<svg xmlns="http://www.w3.org/2000/svg" xmlns:xlink="http://www.w3.org/1999/xlink" 
viewBox="0 0 512 512" width="512" height="512" preserveAspectRatio="xMidYMid meet"
 style="width: 100%; height: 100%; transform: translate3d(0px, 0px, 0px);
  content-visibility: visible;"><defs><clipPath id="__lottie_element_63">
  <rect width="512" height="512" x="0" y="0"></rect></clipPath></defs>
  <g clip-path="url(#__lottie_element_63)"><g transform="matrix(2.5739998817443848,0,0,2.5739998817443848,-94.623046875,-333.2341613769531)" opacity="1" style="display: block;"><g opacity="1" transform="matrix(1,0,0,1,177.20399475097656,289.7040100097656)"><path fill="rgb(230,153,231)" fill-opacity="1" d=" M31.364999771118164,-13.23799991607666 C15.263999938964844,-17.773000717163086 -2.877000093460083,-13.605999946594238 -19.1200008392334,-10.628999710083008 C-23.797000885009766,-9.779999732971191 -33.83100128173828,-8.390000343322754 -37.262001037597656,-4.9039998054504395 C-47.58000183105469,5.61299991607666 -57.49800109863281,7.783999919891357 -61.30400085449219,17.190000534057617 C-53.41899871826172,27.79199981689453 44.54999923706055,26.238000869750977 51.85200119018555,17.108999252319336 C51.83399963378906,11.378000259399414 51.66999816894531,-0.18000000715255737 51.6150016784668,-5.716000080108643 C48.512001037597656,-9.378000259399414 36.43899917602539,-12.5 31.364999771118164,-13.23799991607666z"></path></g><g opacity="1" transform="matrix(1,0,0,1,177.20399475097656,289.7040100097656)"><path fill="rgb(209,112,210)" fill-opacity="1" d=" M31.364999771118164,-13.23799991607666 C23.643999099731445,-15.413000106811523 11.848999977111816,-4.8420000076293945 9.17300033569336,-5.914000034332275 C9.906999588012695,1.569000005722046 10.295000076293945,11.281000137329102 9.180000305175781,23.799999237060547 C26.61199951171875,25.267000198364258 47.590999603271484,20.410999298095703 51.85200119018555,17.108999252319336 C51.83399963378906,11.378000259399414 51.66999816894531,-0.18000000715255737 51.6150016784668,-5.716000080108643 C48.512001037597656,-9.378000259399414 36.43899917602539,-12.5 31.364999771118164,-13.23799991607666z"></path></g><g opacity="1" transform="matrix(1,0,0,1,177.20399475097656,289.7040100097656)"><path stroke-linecap="round" stroke-linejoin="miter" fill-opacity="0" stroke-miterlimit="10" stroke="rgb(151,54,152)" stroke-opacity="1" stroke-width="3" d=" M-61.30400085449219,17.190000534057617 C-57.11000061035156,7.201000213623047 -47.58000183105469,5.61299991607666 -37.262001037597656,-4.9039998054504395 C-33.83100128173828,-8.390000343322754 -23.797000885009766,-9.779999732971191 -19.1200008392334,-10.628999710083008 C-2.877000093460083,-13.605999946594238 15.263999938964844,-17.773000717163086 31.364999771118164,-13.23799991607666 C36.43899917602539,-12.5 44.28799819946289,-8.920999526977539 51.22600173950195,-5.909999847412109"></path>
  </g></g><g transform="matrix(2.5739998817443848,0,0,2.5739998817443848,
  -94.62420654296875,-333.2330627441406)" opacity="1" style="display: block;"><g opacity="1" transform="matrix(1,0,0,1,172.05999755859375,282.41900634765625)"><path fill="rgb(22,188,77)" fill-opacity="1" d=" M-35.6879997253418,
  -1.503000020980835 C-39.685001373291016,-0.8790000081062317 -40.50699996948242,4.223999977111816 -33.534000396728516,7.284999847412109 C-20.72100067138672,12.869000434875488 1.3320000171661377,12.217000007629395 14.17300033569336,8.135000228881836 C21.770000457763672,5.697000026702881 40.50699996948242,-2.3239998817443848 38.15399932861328,-10.204999923706055 C37.388999938964844,
  -12.869000434875488 33.41999816894531,-12.784000396728516 32.14500045776367,-12.444000244140625 C30.698999404907227,-12.020000457763672 -29.53700065612793,-2.4670000076293945 -35.6879997253418,-1.503000020980835z"></path></g><g opacity="1" transform="matrix(1,0,0,1,172.05999755859375,282.41900634765625)"><path fill="rgb(17,163,65)" fill-opacity="1" d=" M11.144000053405762,1.4570000171661377 C15.4399995803833,2.8310000896453857 15.4399995803833,4.9679999351501465 14.17300033569336,8.135000228881836 C21.770000457763672,
  5.697000026702881 40.50699996948242,-2.3239998817443848 38.15399932861328,-10.204999923706055 C37.388999938964844,-12.869000434875488 33.41999816894531,-12.784000396728516 32.14500045776367,-12.444000244140625 C30.698999404907227,-12.020000457763672 3.890000104904175,-0.8619999885559082 11.144000053405762,1.4570000171661377z"></path></g><g opacity="1" transform="matrix(1,0,0,1,172.05999755859375,282.41900634765625)"><path stroke-linecap="round" stroke-linejoin="miter" fill-opacity="0" stroke-miterlimit="10" stroke="rgb(7,109,41)" stroke-opacity="1" stroke-width="3" d=" M-35.6879997253418,-1.503000020980835 C-39.685001373291016,-0.8790000081062317 -40.50699996948242,4.223999977111816 -33.534000396728516,7.284999847412109 C-20.72100067138672,12.869000434875488 1.3320000171661377,
  12.217000007629395 14.17300033569336,8.135000228881836 C21.770000457763672,5.697000026702881 40.50699996948242,-2.3239998817443848 38.15399932861328,-10.204999923706055 C37.388999938964844,-12.869000434875488 33.41999816894531,-12.784000396728516 32.14500045776367,-12.444000244140625 C30.698999404907227,-12.020000457763672 -29.53700065612793,-2.4670000076293945 -35.6879997253418,-1.503000020980835z"></path></g></g><g transform="matrix(2.55041766166687,-0.8002933263778687,0.8002933263778687,2.55041766166687,-1075.6573486328125,-588.2039184570312)" opacity="1" style="display: block;"><g opacity="1" transform="matrix(1,0,0,1,338.8970031738281,397.7669982910156)"><path fill="rgb(61,169,214)" fill-opacity="1" d=" M-14.09808349609375,17.657617568969727 C-5.480641841888428,
  14.756041526794434 -6.197325229644775,9.657732963562012 -5.205325126647949,5.774733543395996 C-4.383325099945068,2.4867334365844727 -2.5220999717712402,-2.4625084400177 -1.2451000213623047,-3.850508451461792 C0.42590001225471497,-5.665508270263672 2.777549982070923,-8.93844985961914 6.9710001945495605,-9.837291717529297 C15.020442008972168,-11.380016326904297 12.403191566467285,-17.420682907104492 4.944333553314209,-16.765666961669922 C-3.181783437728882,-16.06487464904785 -6.833691596984863,-10.023924827575684 -9.92199993133545,-5.230000019073486"></path><path stroke-linecap="round" stroke-linejoin="round" fill-opacity="0" stroke="rgb(23,105,140)" stroke-opacity="1" stroke-width="2.5" d=" M-14.09808349609375,17.657617568969727 C-5.480641841888428,
  14.756041526794434 -6.197325229644775,9.657732963562012 -5.205325126647949,5.774733543395996 C-4.383325099945068,2.4867334365844727 -2.5220999717712402,-2.4625084400177 -1.2451000213623047,-3.850508451461792 C0.42590001225471497,-5.665508270263672 2.777549982070923,-8.93844985961914 6.9710001945495605,-9.837291717529297 C15.020442008972168,-11.380016326904297 12.403191566467285,-17.420682907104492 4.944333553314209,-16.765666961669922 C-3.181783437728882,-16.06487464904785 -6.833691596984863,-10.023924827575684 -9.92199993133545,-5.230000019073486"></path></g></g><g transform="matrix(2.5739328861236572,-0.022452857345342636,0.022452857345342636,2.5739328861236572,-101.07292938232422,-329.5076904296875)" opacity="1" style="display: block;"><g opacity="1" transform="matrix(1,0,0,1,120.56800079345703,209.38400268554688)"><path fill="rgb(49,32,177)" fill-opacity="1" d=" M-23.173999786376953,8.234000205993652 C-17.107999801635742,2.0829999446868896 5.059000015258789,-10.048999786376953 14.130000114440918,-12.26099967956543 C16.426000595092773,-12.82800006866455 18.892000198364258,-12.996999740600586 20.08300018310547,-11.12600040435791 C20.961000442504883,-9.73799991607666 22.80500030517578,-6.109000205993652 23.17300033569336,-4.635000228881836 C23.429000854492188,-3.5859999656677246 21.047000885009766,-2.0260000228881836 20.395000457763672,-3.4719998836517334 C19.204999923706055,-6.335000038146973 17.929000854492188,-10.616000175476074 14.442000389099121,-9.255999565124512 C3.6989998817443848,-5.089000225067139 -10.5600004196167,2.9049999713897705 -20.19700050354004,11.35200023651123 C-22.069000244140625,12.996000289916992 -23.429000854492188,8.48900032043457 -23.173999786376953,8.234000205993652z"></path><path stroke-linecap="round" stroke-linejoin="miter" fill-opacity="0" stroke-miterlimit="10" stroke="rgb(15,2,114)" stroke-opacity="1" stroke-width="2.5" d=" M-23.173999786376953,8.234000205993652 C-17.107999801635742,2.0829999446868896 5.059000015258789,-10.048999786376953 14.130000114440918,-12.26099967956543 C16.426000595092773,-12.82800006866455 18.892000198364258,-12.996999740600586 20.08300018310547,-11.12600040435791 C20.961000442504883,-9.73799991607666 22.80500030517578,-6.109000205993652 23.17300033569336,-4.635000228881836 C23.429000854492188,-3.5859999656677246 21.047000885009766,-2.0260000228881836 20.395000457763672,-3.4719998836517334 C19.204999923706055,-6.335000038146973 17.929000854492188,-10.616000175476074 14.442000389099121,-9.255999565124512 C3.6989998817443848,-5.089000225067139 -10.5600004196167,2.9049999713897705 -20.19700050354004,11.35200023651123 C-22.069000244140625,12.996000289916992
   -23.429000854492188,8.48900032043457 -23.173999786376953,8.234000205993652z"></path></g></g><g transform="matrix(2.573901891708374,-0.022452587261795998,0.022452587261795998,2.573901891708374,-101.06845092773438,-329.49755859375)" opacity="1" style="display: block;"><g opacity="1" transform="matrix(1,0,0,1,122.06999969482422,200.8090057373047)"><path fill="rgb(61,169,214)" fill-opacity="1" d=" M14.329000473022461,6.348999977111816 C14.357000350952148,1.9839999675750732 12.741999626159668,-4.534999847412109 11.918999671936035,-7.198999881744385 C7.099999904632568,-22.648000717163086 -14.357999801635742,-10.545000076293945 -8.77400016784668,-1.9559999704360962 C-5.428999900817871,3.2309999465942383 -4.436999797821045,11.083999633789062 -4.267000198364258,15.420999526977539 C-3.9830000400543213,22.64900016784668 14.300999641418457,15.449000358581543 14.329000473022461,6.348999977111816z"></path><path stroke-linecap="round" stroke-linejoin="miter" fill-opacity="0" stroke-miterlimit="10" stroke="rgb(23,105,140)" stroke-opacity="1" stroke-width="3" d=" M14.329000473022461,6.348999977111816 C14.357000350952148,1.9839999675750732 12.741999626159668,-4.534999847412109 11.918999671936035,-7.198999881744385 C7.099999904632568,-22.648000717163086 -14.357999801635742,-10.545000076293945 -8.77400016784668,-1.9559999704360962 C-5.428999900817871,3.2309999465942383 -4.436999797821045,11.083999633789062 -4.267000198364258,15.420999526977539 C-3.9830000400543213,
   22.64900016784668 14.300999641418457,15.449000358581543 14.329000473022461,6.348999977111816z"></path></g></g><g transform="matrix(2.573901891708374,-0.022452587261795998,0.022452587261795998,2.573901891708374,-101.06845092773438,-329.49755859375)" opacity="1" style="display: block;"><g opacity="1" transform="matrix(1,0,0,1,164.29299926757812,249.08299255371094)"><path fill="rgb(61,169,214)" fill-opacity="1" d=" M22.450000762939453,-45.8650016784668 C8.871999740600586,-46.14899826049805 -9.864999771118164,-46.090999603271484 -22.649999618530273,-45.297000885009766 C-33.30799865722656,-44.67399978637695 -40.875999450683594,-40.222999572753906 -44.75899887084961,-36.14099884033203 C-51.50600051879883,-29.025999069213867 -51.47800064086914,-23.781999588012695 -49.749000549316406,-13.520999908447266 C-49.209999084472656,-10.26099967956543 -49.65700149536133,-3.0910000801086426 -51.86800003051758,0.42399999499320984 C-51.75400161743164,4.0320000648498535 -51.5629997253418,12.076000213623047 -48.472999572753906,14.541999816894531 C-44.53300094604492,17.68899917602539 -32.25899887084961,29.878000259399414 -28.659000396728516,33.393001556396484 C-21.996999740600586,40.16699981689453 25.680999755859375,46.14799880981445 42.0369987487793,22.479000091552734 C42.91600036621094,19.672000885009766 41.29999923706055,16.582000732421875 43.823001861572266,13.520999908447266 C49.861000061035156,6.206999778747559 52.35499954223633,-5.724999904632568 53.09299850463867,-15.25 C54.90700149536133,-39.117000579833984 43.680999755859375,-45.439998626708984 22.450000762939453,-45.8650016784668z"></path></g><g opacity="1" transform="matrix(1,0,0,1,164.29299926757812,249.08299255371094)"><path fill="rgb(26,140,187)" fill-opacity="1" d=" M36.625,-44.08300018310547 C40.18600082397461,-37.66299819946289 41.60499954223633,-7.807000160217285 31.72599983215332,11.597000122070312 C25.052000045776367,24.70599937438965 20.097999572753906,33.54499816894531 15.151000022888184,
   38.05099868774414 C25.246000289916992,35.680999755859375 34.66699981689453,32.08700180053711 42.0369987487793,22.479000091552734 C42.91600036621094,19.672000885009766 41.29999923706055,16.582000732421875 43.823001861572266,13.520999908447266 C49.861000061035156,6.206999778747559 52.35499954223633,-5.724999904632568 53.09299850463867,-15.25 C54.90700149536133,-39.117000579833984 43.79199981689453,-42.104000091552734 36.625,-44.08300018310547z"></path></g><g opacity="1" transform="matrix(1,0,0,1,164.29299926757812,249.08299255371094)"><path stroke-linecap="round" stroke-linejoin="miter" fill-opacity="0" stroke-miterlimit="10" stroke="rgb(23,105,140)" stroke-opacity="1" stroke-width="3" d=" M22.450000762939453,-45.8650016784668 C8.871999740600586,-46.14899826049805 -9.864999771118164,-46.090999603271484 -22.649999618530273,-45.297000885009766 C-33.30799865722656,-44.67399978637695 -40.875999450683594,-40.222999572753906 -44.75899887084961,-36.14099884033203 C-51.50600051879883,-29.025999069213867 -51.47800064086914,-23.781999588012695 -49.749000549316406,-13.520999908447266 C-49.209999084472656,-10.26099967956543 -49.65700149536133,-3.0910000801086426 -51.86800003051758,0.42399999499320984 C-51.75400161743164,4.0320000648498535 -51.5629997253418,12.076000213623047 -48.472999572753906,14.541999816894531 C-44.53300094604492,17.68899917602539 -32.25899887084961,29.878000259399414 -28.659000396728516,33.393001556396484 C-21.996999740600586,40.16699981689453 25.680999755859375,46.14799880981445 42.0369987487793,22.479000091552734 C42.91600036621094,19.672000885009766 41.29999923706055,16.582000732421875 43.823001861572266,13.520999908447266 C49.861000061035156,6.206999778747559 52.35499954223633,-5.724999904632568 53.09299850463867,-15.25 C54.90700149536133,-39.117000579833984 43.680999755859375,-45.439998626708984 22.450000762939453,-45.8650016784668z"></path></g></g><g transform="matrix(2.573901891708374,-0.022452587261795998,0.022452587261795998,2.573901891708374,-101.06845092773438,-329.49755859375)" opacity="1" style="display: block;"><g opacity="1" transform="matrix(1,0,0,1,148.55999755859375,256.97698974609375)"><path fill="rgb(252,108,182)" fill-opacity="1" d=" M-38.15599822998047,-0.5519999861717224 C-41.94834518432617,2.6923251152038574 -38.04499816894531,7.284999847412109 -30.464000701904297,8.1899995803833 C-17.849000930786133,9.696000099182129 10.133637428283691,11.260830879211426 29.14015007019043,4.9315314292907715 C32.81529998779297,3.7001750469207764 36.084136962890625,0.2575249969959259 34.53166198730469,-4.3771748542785645 C33.23341369628906,-8.237405776977539 28.816049575805664,-7.987874984741211 24.616600036621094,-7.073831081390381 C9.041537284851074,-3.5050811767578125 -0.6370000243186951,-3.4769999980926514 -11.934000015258789,-3.244999885559082 C-20.06800079345703,-3.078000068664551 -30.500999450683594,-5.427000045776367 -35.858001708984375,-7.497000217437744 C-41.698001861572266,-8.119999885559082 -42.095001220703125,-1.2039999961853027 -38.125999450683594,-0.43799999356269836 C-30.636999130249023,2.0999999046325684 -18.719999313354492,2.507999897003174 -15.71500015258789,2.552000045776367 C6.093999862670898,2.86899995803833 14.396912574768066,1.5828937292099 27.344406127929688,-1.4903812408447266"></path><path stroke-linecap="round" stroke-linejoin="round" fill-opacity="0" stroke="rgb(172,28,102)" stroke-opacity="1" stroke-width="3" d=" M-38.15599822998047,-0.5519999861717224 C-41.94834518432617,2.6923251152038574 -38.04499816894531,7.284999847412109 -30.464000701904297,8.1899995803833 C-17.849000930786133,9.696000099182129 10.133637428283691,11.260830879211426 29.14015007019043,4.9315314292907715 C32.81529998779297,3.7001750469207764 36.084136962890625,0.2575249969959259 34.53166198730469,-4.3771748542785645 C33.23341369628906,-8.237405776977539 28.816049575805664,-7.987874984741211 24.616600036621094,-7.073831081390381 C9.041537284851074,-3.5050811767578125 -0.6370000243186951,-3.4769999980926514 -11.934000015258789,-3.244999885559082 C-20.06800079345703,-3.078000068664551 -30.500999450683594,-5.427000045776367 -35.858001708984375,-7.497000217437744 C-41.698001861572266,-8.119999885559082 -42.095001220703125,-1.2039999961853027 -38.125999450683594,-0.43799999356269836 C-30.636999130249023,2.0999999046325684 -18.719999313354492,2.507999897003174 -15.71500015258789,2.552000045776367 C6.093999862670898,2.86899995803833 14.396912574768066,1.5828937292099 27.344406127929688,-1.4903812408447266"></path></g></g><g transform="matrix(2.573901891708374,-0.022452587261795998,0.022452587261795998,2.573901891708374,-101.06845092773438,-329.49755859375)" opacity="1" style="display: block;"><g opacity="1" transform="matrix(1,0,0,1,206.96800231933594,202.04200744628906)"><path fill="rgb(61,169,214)" fill-opacity="1" d=" M1.6299999952316284,-15.463000297546387 C-11.664999961853027,-17.589000701904297 -14.612000465393066,-6.052000045776367 -14.527000427246094,3.444000005722046 C-14.527000427246094,3.444000005722046 8.064000129699707,17.589000701904297 8.064000129699707,17.589000701904297 C14.470999717712402,5.372000217437744 14.612000465393066,-13.364999771118164 1.6299999952316284,-15.463000297546387z"></path></g><g opacity="1" transform="matrix(1,0,0,1,206.96800231933594,202.04200744628906)"><path fill="rgb(26,140,187)" fill-opacity="1" d=" M3.2760000228881836,-14.192999839782715 C8.33899974822998,-12.149999618530273 3.6619999408721924,-8.479999542236328 3.013000011444092,-9.982000350952148 C3.013000011444092,-9.982000350952148 8.064000129699707,17.589000701904297 8.064000129699707,17.589000701904297 C14.470999717712402,5.372000217437744 14.458999633789062,-12.317999839782715 3.2760000228881836,-14.192999839782715z"></path></g><g opacity="1" transform="matrix(1,0,0,1,206.96800231933594,202.04200744628906)"><path stroke-linecap="round" stroke-linejoin="miter" fill-opacity="0" stroke-miterlimit="10" stroke="rgb(23,105,140)" stroke-opacity="1" stroke-width="3" d=" M-14.527000427246094,3.444000005722046 C-14.612000465393066,-6.052000045776367 -11.664999961853027,-17.589000701904297 1.6299999952316284,-15.463000297546387 C14.612000465393066,-13.364999771118164 14.470999717712402,5.372000217437744 8.064000129699707,17.589000701904297"></path></g></g><g transform="matrix(2.573901891708374,-0.022452587261795998,0.022452587261795998,2.573901891708374,-101.06845092773438,-329.49755859375)" opacity="1" style="display: block;"><g opacity="1" transform="matrix(1,0,0,1,206.5709991455078,202.1280059814453)"><path fill="rgb(212,67,142)" fill-opacity="1" d=" M-6.743000030517578,1.815000057220459 C-6.3979997634887695,-14.918000221252441 6.210000038146973,-12.204999923706055 7.605000019073486,-3.385999917984009 C8.692999839782715,3.490000009536743 7.270999908447266,9.651000022888184 6.052000045776367,12.656000137329102"></path><path stroke-linecap="round" stroke-linejoin="miter" fill-opacity="0" stroke-miterlimit="10" stroke="rgb(23,105,140)" stroke-opacity="1" stroke-width="2.5" d=" M-6.743000030517578,1.815000057220459 C-6.3979997634887695,-14.918000221252441 6.210000038146973,-12.204999923706055 7.605000019073486,-3.385999917984009 C8.692999839782715,3.490000009536743 7.270999908447266,9.651000022888184 6.052000045776367,12.656000137329102"></path></g></g><g transform="matrix(2.573901891708374,-0.022452587261795998,0.022452587261795998,2.573901891708374,-101.06845092773438,-329.49755859375)" opacity="1" style="display: block;"><g opacity="1" transform="matrix(1,0,0,1,209.0229949951172,212.17599487304688)"><path fill="rgb(61,169,214)" fill-opacity="1" d=" M-9.102999687194824,-7.966000080108643 C-12.229000091552734,-7.410999774932861 -11.843999862670898,8.345999717712402 3.3399999141693115,8.515000343322754 C9.20199966430664,8.579999923706055 14.01200008392334,1.909999966621399 7.572999954223633,-3.309999942779541 C4.3420000076293945,-5.928999900817871 -5.9770002365112305,-8.520999908447266 -9.102999687194824,-7.966000080108643z"></path></g><g opacity="1" transform="matrix(1,0,0,1,209.0229949951172,212.17599487304688)">
   <path fill="rgb(26,140,187)" fill-opacity="1" d=" M-9.102999687194824,-7.966000080108643 C10.87600040435791,-7.546000003814697 5.078000068664551,8.534000396728516 -5.51200008392334,6.122000217437744 C10.116999626159668,14.668999671936035 14.01200008392334,1.909999966621399 7.572999954223633,-3.309999942779541 C4.3420000076293945,
   -5.928999900817871 -5.9770002365112305,-8.520999908447266 -9.102999687194824,-7.966000080108643z"></path></g>
   <g opacity="1" transform="matrix(1,0,0,1,209.0229949951172,212.17599487304688)">
   <path stroke-linecap="round" stroke-linejoin="miter" fill-opacity="0" stroke-miterlimit="10" stroke="rgb(24,106,141)" stroke-opacity="1" stroke-width="2.5" d=" M-9.102999687194824,-7.966000080108643 C-2.4130001068115234,-8.277999877929688 4.3420000076293945,-5.928999900817871 7.572999954223633,-3.309999942779541 C14.01200008392334,1.909999966621399 9.638999938964844,9.493000030517578 3.6470000743865967,8.881999969482422"></path></g></g><g transform="matrix(1.0243165493011475,2.468982458114624,-2.468982458114624,1.0243165493011475,482.75732421875,-983.5906982421875)" opacity="1" style="display: block;"><g opacity="1" transform="matrix(1,0,0,1,380.218994140625,191.2050018310547)"><path fill="rgb(61,169,214)" fill-opacity="1" d=" M1.99399995803833,12.295000076293945 C-0.2981727421283722,8.510391235351562 -3.67700457572937,5.77412748336792 -8.07866382598877,-0.5565590858459473 C-12.85149097442627,-7.0119452476501465 -6.570113658905029,-11.998236656188965 -2.3892409801483154,-6.196549892425537 C1.2068318128585815,-0.7068091034889221 1.7602818012237549,-0.019668182358145714 2.0741817951202393,0.28445908427238464 C2.3880817890167236,0.5885863900184631 3.3440001010894775,3.8889999389648438 7.781000137329102,8.232999801635742 C10.760041236877441,11.148408889770508 8.298664093017578,16.171903610229492 4.644954681396484,15.484618186950684 C2.967690944671631,15.169404983520508 1.9730863571166992,13.031667709350586 1.99399995803833,12.295000076293945z"></path><path stroke-linecap="round" stroke-linejoin="miter" fill-opacity="0" stroke-miterlimit="10" stroke="rgb(23,105,140)" stroke-opacity="1" stroke-width="2.5" d=" M1.99399995803833,12.295000076293945 C-0.2981727421283722,8.510391235351562 -3.67700457572937,5.77412748336792 -8.07866382598877,-0.5565590858459473 C-12.85149097442627,-7.0119452476501465 -6.570113658905029,-11.998236656188965 -2.3892409801483154,-6.196549892425537 C1.2068318128585815,-0.7068091034889221 1.7602818012237549,-0.019668182358145714 2.0741817951202393,0.28445908427238464 C2.3880817890167236,0.5885863900184631 3.3440001010894775,3.8889999389648438 7.781000137329102,8.232999801635742 C10.760041236877441,11.148408889770508 8.298664093017578,16.171903610229492 4.644954681396484,15.484618186950684 C2.967690944671631,15.169404983520508 1.9730863571166992,13.031667709350586 1.99399995803833,12.295000076293945z"></path></g></g><g transform="matrix(0.9899902939796448,-0.00863585527986288,0.00863585527986288,0.9899902939796448,255.53317260742188,248.14627075195312)" opacity="1" style="display: block;"><g opacity="1" transform="matrix(1,0,0,1,-36,20.5)"><path fill="rgb(255,255,255)" fill-opacity="1" d=" M-1.75,-24.25 C18.131999969482422,-24.25 39,-17.75 39,-0.5 C39,17 18.131999969482422,20.75 -1.75,20.75 C-21.631999969482422,20.75 -37.233001708984375,14.538999557495117 -37.75,-2 C-38.25,-18 -21.631999969482422,-24.25 -1.75,-24.25z"></path><path stroke-linecap="butt" stroke-linejoin="miter" fill-opacity="0" stroke-miterlimit="4" stroke="rgb(23,105,140)" stroke-opacity="1" stroke-width="7" d=" M-1.75,-24.25 C18.131999969482422,-24.25 39,-17.75 39,-0.5 C39,17 18.131999969482422,20.75 -1.75,20.75 C-21.631999969482422,20.75 -37.233001708984375,14.538999557495117 -37.75,-2 C-38.25,-18 -21.631999969482422,-24.25 -1.75,-24.25z"></path></g></g><g transform="matrix(0.9899898171424866,-0.008635850623250008,0.008635850623250008,0.9899898171424866,243.43841552734375,251.96469116210938)" opacity="1" style="display: block;"><g opacity="1" transform="matrix(1,0,0,1,-27,13.75)"><path fill="rgb(0,0,0)" fill-opacity="1" d=" M0,-20.200000762939453 C11.148380279541016,-20.200000762939453 20.200000762939453,-11.148380279541016 20.200000762939453,0 C20.200000762939453,11.148380279541016 11.148380279541016,20.200000762939453 0,20.200000762939453 C-11.148380279541016,20.200000762939453 -20.200000762939453,11.148380279541016 -20.200000762939453,0 C-20.200000762939453,-11.148380279541016 -11.148380279541016,-20.200000762939453 0,-20.200000762939453z"></path></g><g opacity="1" transform="matrix(1,0,0,1,-34,11.5)"><path fill="rgb(255,255,255)" fill-opacity="1" d=" M0,-4.949999809265137 C2.731904983520508,-4.949999809265137 4.949999809265137,-2.731904983520508 4.949999809265137,0 C4.949999809265137,2.731904983520508 2.731904983520508,4.949999809265137 0,4.949999809265137 C-2.731904983520508,4.949999809265137 -4.949999809265137,2.731904983520508 -4.949999809265137,0 C-4.949999809265137,-2.731904983520508 -2.731904983520508,-4.949999809265137 0,-4.949999809265137z"></path></g></g><g transform="matrix(0.9899902939796448,-0.00863585527986288,0.00863585527986288,0.9899902939796448,252.12002563476562,254.11642456054688)" opacity="1" style="display: block;"><g opacity="1" transform="matrix(1,0,0,1,0,0)"><path fill="rgb(61,169,214)" fill-opacity="1" d=" M-43.75,-22.75 C-58.73099899291992,-21.50200080871582 -66.5,-14.5 -69.75,-6.25 C-78.25,-4 -78,6.5 -73.75,8.5 C-61.75,-0.25 -7,2.5 11.25,11.5 C21.084999084472656,16.350000381469727 10.74899959564209,-27.288000106811523 -43.75,-22.75z"></path></g><g opacity="1" transform="matrix(1,0,0,1,0,0)"><path fill="rgb(26,140,187)" fill-opacity="1" d=" M-4.311999797821045,6.711999893188477 C1.9930000305175781,8.00100040435791 7.632999897003174,9.23799991607666 11.25,11.5 C23.158000946044922,18.948999404907227 22.42099952697754,-4.388999938964844 6.296999931335449,-16.364999771118164 C6.63700008392334,-8.161999702453613 4.785999774932861,5.210000038146973 -4.311999797821045,6.711999893188477z"></path></g><g opacity="1" transform="matrix(1,0,0,1,0,0)"><path stroke-linecap="round" stroke-linejoin="miter" fill-opacity="0" stroke-miterlimit="4" stroke="rgb(23,105,140)" stroke-opacity="1" stroke-width="8" d=" M-32.141998291015625,-23.253000259399414 C-57.13999938964844,-25.533000946044922 -66.5,-14.5 -69.75,-6.25 C-78.25,-4 -78,6.5 -73.75,8.5 C-61.75,-0.25 -7,2.5 11.25,11.5"></path></g></g><g transform="matrix(0.9899902939796448,-0.00863585527986288,0.00863585527986288,0.9899902939796448,368.8872375488281,247.157470703125)" opacity="1" style="display: block;"><g opacity="1" transform="matrix(1,0,0,1,-36,20.5)"><path fill="rgb(255,255,255)" fill-opacity="1" d=" M-1.75,-24.25 C18.131999969482422,-24.25 39,-17.75 39,-0.5 C39,17 13.881999969482422,21.75 -6,21.75 C-25.881999969482422,21.75 -44.483001708984375,14.288999557495117 -45,-2.25 C-45.5,-18.25 -21.631999969482422,-24.25 -1.75,-24.25z"></path><path stroke-linecap="butt" stroke-linejoin="miter" fill-opacity="0" stroke-miterlimit="4" stroke="rgb(23,105,140)" stroke-opacity="1" stroke-width="7" d=" M-1.75,-24.25 C18.131999969482422,-24.25 39,-17.75 39,-0.5 C39,17 13.881999969482422,21.75 -6,21.75 C-25.881999969482422,21.75 -44.483001708984375,14.288999557495117 -45,-2.25 C-45.5,-18.25 -21.631999969482422,-24.25 -1.75,-24.25z"></path></g></g><g transform="matrix(0.9899898171424866,-0.008635850623250008,0.008635850623250008,0.9899898171424866,355.3075256347656,250.98883056640625)" opacity="1" style="display: block;"><g opacity="1" transform="matrix(1,0,0,1,-27,13.75)"><path fill="rgb(0,0,0)" fill-opacity="1" d=" M0,-20.200000762939453 C11.148380279541016,-20.200000762939453 20.200000762939453,-11.148380279541016 20.200000762939453,0 C20.200000762939453,11.148380279541016 11.148380279541016,20.200000762939453 0,20.200000762939453 C-11.148380279541016,20.200000762939453 -20.200000762939453,11.148380279541016 -20.200000762939453,0 C-20.200000762939453,-11.148380279541016 -11.148380279541016,-20.200000762939453 0,-20.200000762939453z"></path></g><g opacity="1" transform="matrix(1,0,0,1,-34,11.5)"><path fill="rgb(255,255,255)" fill-opacity="1" d=" M0,-4.949999809265137 C2.731904983520508,-4.949999809265137 4.949999809265137,-2.731904983520508 4.949999809265137,0 C4.949999809265137,2.731904983520508 2.731904983520508,4.949999809265137 0,4.949999809265137 C-2.731904983520508,4.949999809265137 -4.949999809265137,2.731904983520508 -4.949999809265137,0 C-4.949999809265137,-2.731904983520508 -2.731904983520508,-4.949999809265137 0,-4.949999809265137z"></path></g></g><g transform="matrix(0.9899902939796448,-0.00863585527986288,0.00863585527986288,0.9899902939796448,365.4740905761719,253.12762451171875)" opacity="1" style="display: block;"><g opacity="1" transform="matrix(1,0,0,1,0,0)"><path fill="rgb(61,169,214)" fill-opacity="1" d=" M-28.5,-22.75 C-43.5,-23.75 -69.25,-25.25 -75.75,-7.25 C-84.25,-5 -84,5.5 -79.75,7.5 C-67.75,-1.25 -7,2.5 11.25,11.5 C19.884000778198242,-8.27299976348877 -13.5,-21.75 -28.5,-22.75z"></path></g><g opacity="1" transform="matrix(1,0,0,1,0,0)"><path fill="rgb(26,140,187)" fill-opacity="1" d=" M-7.390999794006348,6.133999824523926 C0.3720000088214874,7.572999954223633 12.560999870300293,11.17199993133545 16.04800033569336,14.782999992370605 C25.944000244140625,17.485000610351562 17.358999252319336,-13.322999954223633 2.871999979019165,-16.972000122070312 C3.2170000076293945,-10.545999526977539 -1.0750000476837158,4.859000205993652 -7.390999794006348,6.133999824523926z"></path></g><g opacity="1" transform="matrix(1,0,0,1,0,0)"><path stroke-linecap="round" stroke-linejoin="miter" fill-opacity="0" stroke-miterlimit="4" stroke="rgb(23,105,140)" stroke-opacity="1" stroke-width="8" d=" M-60.93899917602539,-20.66699981689453 C-67.64099884033203,-18.4060001373291 -73.18900299072266,-14.340999603271484 -75.75,-7.25 C-84.25,-5 -84,5.5 -79.75,7.5 C-67.75,-1.25 -7,2.5 11.25,11.5"></path></g></g><g transform="matrix(2.5739328861236572,-0.022452857345342636,0.022452857345342636,2.5739328861236572,-101.07549285888672,-329.5076904296875)" opacity="1" style="display: block;"><g opacity="1" transform="matrix(1,0,0,1,120.56800079345703,231.99099731445312)"><path fill="rgb(5,0,44)" fill-opacity="0.9500000000000001" d=" M-19.68600082397461,-11.281999588012695 C-20.025999069213867,-3.005000114440918 -15.293000221252441,11.45199966430664 -7.298999786376953,11.281999588012695 C-2.4519999027252197,11.196999549865723 2.9049999713897705,11.3100004196167 8.178000450134277,11.055000305175781 C12.911999702453613,10.82800006866455 16.229000091552734,8.616999626159668 17.22100067138672,4.9039998054504395 C17.844999313354492,2.5230000019073486 19.14699935913086,-2.1010000705718994 19.52899932861328,-4.377999782562256 C19.52899932861328,-4.377999782562256 15.369000434875488,-11.246999740600586 15.369000434875488,-11.246999740600586 C15.369000434875488,-11.246999740600586 -19.68600082397461,-11.281999588012695 -19.68600082397461,-11.281999588012695z"></path></g><g opacity="1" transform="matrix(1,0,0,1,-2.427999973297119,-0.017999999225139618)"><path fill="rgb(255,255,255)" fill-opacity="1" d=" M116.30699920654297,222.02200317382812 C113.68499755859375,226.197998046875 111.22799682617188,231.06100463867188 114.072998046875,233.093994140625 C116.63899993896484,234.927001953125 116.20999908447266,238.24099731445312 113.87899780273438,242.51499938964844 C116.5009994506836,242.51499938964844 117.81199645996094,242.4980010986328 119.07499694824219,242.4980010986328 C121.11499786376953,239.00100708007812 121.98100280761719,234.91700744628906 119.5979995727539,232.36099243164062 C116.05699920654297,228.56300354003906 119.60900115966797,225.31300354003906 122.03700256347656,222.10800170898438 C120.38600158691406,222.10800170898438 117.27799987792969,222.0709991455078 116.30699920654297,222.02200317382812z"></path></g><g opacity="1" transform="matrix(1,0,0,1,6.798999786376953,0.04899999871850014)"><path fill="rgb(255,255,255)" fill-opacity="1" d=" M116.30699920654297,222.02200317382812 C113.68499755859375,226.197998046875 111.13999938964844,229.74000549316406 113.78800201416016,232.21800231933594 C116.08999633789062,234.3730010986328 116.20999908447266,238.24099731445312 113.87899780273438,242.51499938964844 C116.5009994506836,242.51499938964844 115.43299865722656,242.45799255371094 116.69599914550781,242.45799255371094 C118.73600006103516,238.96099853515625 119.60099792480469,234.8780059814453 117.21800231933594,232.32200622558594 C113.677001953125,228.5240020751953 117.2300033569336,225.2729949951172 119.65799713134766,222.0679931640625 C118.00700378417969,222.0679931640625 117.27799987792969,222.0709991455078 116.30699920654297,222.02200317382812z"></path></g><g opacity="1" transform="matrix(1,0,0,1,120.56800079345703,231.99099731445312)"><path stroke-linecap="round" stroke-linejoin="miter" fill-opacity="0" stroke-miterlimit="10" stroke="rgb(9,10,54)" stroke-opacity="0.9500000000000001" stroke-width="3" d=" M-19.68600082397461,-11.281999588012695 C-20.025999069213867,-3.005000114440918 -15.293000221252441,11.45199966430664 -7.298999786376953,11.281999588012695 C-2.4519999027252197,11.196999549865723 2.9049999713897705,11.3100004196167 8.178000450134277,11.055000305175781 C12.911999702453613,10.82800006866455 16.229000091552734,8.616999626159668 17.22100067138672,4.9039998054504395 C17.844999313354492,2.5230000019073486 19.243999481201172,-1.906999945640564 19.52899932861328,-4.377999782562256 C19.52899932861328,-4.377999782562256 15.369000434875488,-11.246999740600586 15.369000434875488,-11.246999740600586 C15.369000434875488,-11.246999740600586 -19.68600082397461,-11.281999588012695 -19.68600082397461,-11.281999588012695z"></path></g></g><g transform="matrix(2.5739328861236572,-0.022452857345342636,0.022452857345342636,2.5739328861236572,-101.07292938232422,-329.5076904296875)" opacity="1" style="display: block;"><g opacity="1" transform="matrix(1,0,0,1,167.4390106201172,232.35899353027344)"><path fill="rgb(5,0,44)" fill-opacity="0.9500000000000001" d=" M20.863000869750977,-11.651000022888184 C20.099000930786133,-3.6670000553131104 15.579999923706055,11.621999740600586 6.627999782562256,11.598999977111816 C1.7799999713897705,11.586000442504883 -3.864000082015991,11.717000007629395 -9.13700008392334,11.461999893188477 C-13.871000289916992,11.262999534606934 -17.687999725341797,8.362000465393066 -18.68000030517578,4.6479997634887695 C-19.304000854492188,2.2669999599456787 -20.863000869750977,-2.63700008392334 -19.474000930786133,-4.650000095367432 C-19.474000930786133,-4.650000095367432 -14.541999816894531,-11.819999694824219 -14.541999816894531,-11.819999694824219 C-14.541999816894531,-11.819999694824219 20.863000869750977,-11.651000022888184 20.863000869750977,-11.651000022888184z"></path></g><g opacity="1" transform="matrix(1,0,0,1,44.19300079345703,0.014000000432133675)"><path fill="rgb(255,255,255)" fill-opacity="0.9" d=" M116.30699920654297,222.02200317382812 C113.68499755859375,226.197998046875 111.22799682617188,231.06100463867188 114.072998046875,233.093994140625 C116.63899993896484,234.927001953125 116.20999908447266,238.24099731445312 113.87899780273438,242.51499938964844 C116.5009994506836,242.51499938964844 117.81199645996094,242.4980010986328 119.07499694824219,242.4980010986328 C121.11499786376953,239.00100708007812 121.98100280761719,234.91700744628906 119.5979995727539,232.36099243164062 C116.05699920654297,228.56300354003906 119.60900115966797,225.31300354003906 122.03700256347656,222.10800170898438 C120.38600158691406,222.10800170898438 117.27799987792969,222.0709991455078 116.30699920654297,222.02200317382812z"></path></g><g opacity="1" transform="matrix(1,0,0,1,53.41899871826172,0.08100000023841858)"><path fill="rgb(255,255,255)" fill-opacity="0.9" d=" M116.30699920654297,222.02200317382812 C113.68499755859375,226.197998046875 111.13999938964844,229.74000549316406 113.78800201416016,232.21800231933594 C116.08999633789062,234.3730010986328 116.20999908447266,238.24099731445312 113.87899780273438,242.51499938964844 C116.5009994506836,242.51499938964844 115.43299865722656,242.45799255371094 116.69599914550781,242.45799255371094 C118.73600006103516,238.96099853515625 119.60099792480469,234.8780059814453 117.21800231933594,232.32200622558594 C113.677001953125,228.5240020751953 117.2300033569336,225.2729949951172 119.65799713134766,222.0679931640625 C118.00700378417969,222.0679931640625 117.27799987792969,222.0709991455078 116.30699920654297,222.02200317382812z"></path></g><g opacity="1" transform="matrix(1,0,0,1,167.4390106201172,232.35899353027344)"><path stroke-linecap="round" stroke-linejoin="miter" fill-opacity="0" stroke-miterlimit="10" stroke="rgb(9,10,54)" stroke-opacity="0.9500000000000001" stroke-width="3" d=" M20.863000869750977,-11.651000022888184 C20.099000930786133,-3.6670000553131104 15.579999923706055,11.621999740600586 6.627999782562256,11.598999977111816 C1.7799999713897705,11.586000442504883 -3.864000082015991,11.717000007629395 -9.13700008392334,11.461999893188477 C-13.871000289916992,11.262999534606934 -17.687999725341797,8.362000465393066 -18.68000030517578,4.6479997634887695 C-19.304000854492188,2.2669999599456787 -20.863000869750977,-2.63700008392334 -19.474000930786133,-4.650000095367432 C-19.474000930786133,-4.650000095367432 -14.541999816894531,-11.819999694824219 -14.541999816894531,-11.819999694824219 C-14.541999816894531,-11.819999694824219 20.863000869750977,-11.651000022888184 20.863000869750977,-11.651000022888184z"></path></g></g><g transform="matrix(2.5739328861236572,-0.022452857345342636,0.022452857345342636,2.5739328861236572,-101.07292938232422,-329.5076904296875)" opacity="1" style="display: block;"><g opacity="1" transform="matrix(1,0,0,1,144.43600463867188,224.4080047607422)"><path fill="rgb(49,32,177)" fill-opacity="1" d=" M-46.87099838256836,-2.055000066757202 C-48.85499954223633,-2.4240000247955322 -49.50699996948242,-5.994999885559082 -47.125999450683594,-6.816999912261963 C-47.125999450683594,-6.816999912261963 -6.986999988555908,-6.816999912261963 -6.986999988555908,-6.816999912261963 C-5.315000057220459,-6.73199987411499 -4.265999794006348,1.1200000047683716 1.2050000429153442,1.2330000400543213 C8.121000289916992,1.347000002861023 6.959000110626221,-6.874000072479248 10.388999938964844,-6.874000072479248 C10.388999938964844,-6.874000072479248 47.125999450683594,-6.874000072479248 47.125999450683594,-6.874000072479248 C48.7130012512207,-6.789000034332275 49.50699996948242,-3.302000045776367 47.63600158691406,-2.253000020980835 C47.63600158691406,-2.253000020980835 11.692999839782715,-1.7999999523162842 11.692999839782715,-1.7999999523162842 C9.397000312805176,-1.7430000305175781 9.878999710083008,6.874000072479248 -0.41100001335144043,6.761000156402588 C-9.737000465393066,6.61899995803833 -9.567000389099121,-2.111999988555908 -11.663999557495117,-2.055000066757202 C-11.663999557495117,-2.055000066757202 -46.87099838256836,-2.055000066757202 -46.87099838256836,-2.055000066757202z"></path><path stroke-linecap="round" stroke-linejoin="miter" fill-opacity="0" stroke-miterlimit="10" stroke="rgb(15,2,114)" stroke-opacity="1" stroke-width="2.5" d=" M-46.87099838256836,-2.055000066757202 C-48.85499954223633,-2.4240000247955322 -49.50699996948242,-5.994999885559082 -47.125999450683594,-6.816999912261963 C-47.125999450683594,-6.816999912261963 -6.986999988555908,-6.816999912261963 -6.986999988555908,-6.816999912261963 C-5.315000057220459,-6.73199987411499 -4.265999794006348,1.1200000047683716 1.2050000429153442,1.2330000400543213 C8.121000289916992,1.347000002861023 6.959000110626221,-6.874000072479248 10.388999938964844,-6.874000072479248 C10.388999938964844,-6.874000072479248 47.125999450683594,-6.874000072479248 47.125999450683594,-6.874000072479248 C48.7130012512207,-6.789000034332275 49.50699996948242,-3.302000045776367 47.63600158691406,-2.253000020980835 C47.63600158691406,-2.253000020980835 11.692999839782715,-1.7999999523162842 11.692999839782715,-1.7999999523162842 C9.397000312805176,-1.7430000305175781 9.878999710083008,6.874000072479248 -0.41100001335144043,6.761000156402588 C-9.737000465393066,6.61899995803833 -9.567000389099121,-2.111999988555908 -11.663999557495117,-2.055000066757202 C-11.663999557495117,-2.055000066757202 -46.87099838256836,-2.055000066757202 -46.87099838256836,-2.055000066757202z"></path></g></g><g transform="matrix(2.5739328861236572,-0.022452857345342636,0.022452857345342636,2.5739328861236572,-101.07292938232422,-329.5076904296875)" opacity="1" style="display: block;"><g opacity="1" transform="matrix(1,0,0,1,208.15899658203125,211.97799682617188)"><path fill="rgb(49,32,177)" fill-opacity="1" d=" M-16.823999404907227,5.724999904632568 C-10.190999984741211,2.861999988555908 4.973999977111816,-5.642000198364258 12.430000305175781,-9.496999740600586 C14.49899959564209,-10.545999526977539 15.972999572753906,-11.112000465393066 17.191999435424805,-9.213000297546387 C18.070999145507812,-7.823999881744385 17.731000900268555,-3.828000068664551 17.559999465942383,-2.0980000495910645 C17.475000381469727,-1.0490000247955322 14.753999710083008,-0.17100000381469727 14.130999565124512,-1.6169999837875366 C13.932000160217285,-4.507999897003174 15.633000373840332,-7.201000213623047 12.487000465393066,-5.4720001220703125 C2.367000102996826,0.0560000017285347 -5.711999893188477,4.988999843597412 -15.859999656677246,10.005999565124512 C-18.070999145507812,11.112000465393066 -17.163999557495117,5.839000225067139 -16.823999404907227,5.724999904632568z"></path><path stroke-linecap="round" stroke-linejoin="miter" fill-opacity="0" stroke-miterlimit="10" stroke="rgb(15,2,114)" stroke-opacity="1" stroke-width="2.5" d=" M-16.823999404907227,5.724999904632568 C-10.190999984741211,2.861999988555908 4.973999977111816,-5.642000198364258 12.430000305175781,-9.496999740600586 C14.49899959564209,-10.545999526977539 15.972999572753906,-11.112000465393066 17.191999435424805,-9.213000297546387 C18.070999145507812,-7.823999881744385 17.731000900268555,-3.828000068664551 17.559999465942383,-2.0980000495910645 C17.475000381469727,-1.0490000247955322 14.753999710083008,-0.17100000381469727 14.130999565124512,-1.6169999837875366 C13.932000160217285,-4.507999897003174 15.633000373840332,-7.201000213623047 12.487000465393066,-5.4720001220703125 C2.367000102996826,0.0560000017285347 -5.711999893188477,4.988999843597412 -15.859999656677246,10.005999565124512 C-18.070999145507812,11.112000465393066 -17.163999557495117,5.839000225067139 -16.823999404907227,5.724999904632568z"></path></g></g><g transform="matrix(0.9900069236755371,0.0027510093059390783,-0.0027510093059390783,0.9900069236755371,254.15419006347656,283.8905334472656)" opacity="1" style="display: block;"><g opacity="1" transform="matrix(1,0,0,1,0,0)"><path fill="rgb(61,169,214)" fill-opacity="1" d=" M-205.4595489501953,-59.4977912902832 C-204.7095489501953,-52.4977912902832 -204.2572784423828,-47.938819885253906 -204.0643310546875,-46.20185470581055 C-203.2124786376953,-38.45531463623047 -202.23800659179688,-33.729000091552734 -201.6529998779297,-30.378999710083008 C-200.2779998779297,-22.503999710083008 -194.7652587890625,34.39054870605469 -203.17642211914062,88.49919128417969 C-210.34197998046875,134.17478942871094 -204.76881408691406,158.9968719482422 -200.5562744140625,189.64808654785156 C-198.35708618164062,205.6217041015625 -130.92233276367188,215.65802001953125 -129.18560791015625,189.6393280029297 C-126.87016296386719,154.51394653320312 -130.2449951171875,127.90899658203125 -137.98800659179688,93.7699966430664 C-147.25999450683594,52.88600158691406 -158.13226318359375,9.950101852416992 -162.6412353515625,-48.018577575683594 C-164.93460083007812,-77.75994873046875 -206.2095489501953,-66.49778747558594 -205.4595489501953,-59.4977912902832z"></path></g><g opacity="1" transform="matrix(1,0,0,1,0,0)"><path fill="rgb(34,147,193)" fill-opacity="1" d=" M-139.04791259765625,202.1614990234375 C-133.3835906982422,199.62022399902344 -129.58132934570312,195.56468200683594 -129.18560791015625,189.6393280029297 C-126.87016296386719,154.51394653320312 -130.2449951171875,127.90899658203125 -137.98800659179688,93.7699966430664 C-147.25999450683594,52.88600158691406 -158.13226318359375,9.950101852416992 -162.6412353515625,-48.018577575683594 C-163.18002319335938,-55.00128173828125 -165.86660766601562,-59.72319793701172 -169.6536865234375,-62.77120590209961 C-170.4165802001953,-63.38557052612305 -158.25392150878906,210.7780303955078 -139.04791259765625,202.1614990234375z"></path></g><g opacity="1" transform="matrix(1,0,0,1,0,0)"><path stroke-linecap="round" stroke-linejoin="miter" fill-opacity="0" stroke-miterlimit="4" stroke="rgb(23,105,140)" stroke-opacity="1" stroke-width="7" d=" M-129.18560791015625,189.6393280029297 C-126.87016296386719,154.51394653320312 -130.2449951171875,127.90899658203125 -137.98800659179688,93.7699966430664 C-147.25999450683594,52.88600158691406 -158.13226318359375,9.950101852416992 -162.6412353515625,-48.018577575683594 C-164.93460083007812,-77.75994873046875 -206.2095489501953,-66.49778747558594 -205.4595489501953,-59.4977912902832 C-204.7095489501953,-52.4977912902832 -204.2572784423828,-47.938819885253906 -204.0643310546875,-46.20185470581055 C-203.2124786376953,-38.45531463623047 -202.23800659179688,-33.729000091552734 -201.6529998779297,-30.378999710083008 C-200.2779998779297,-22.503999710083008 -194.7652587890625,34.39054870605469 -203.17642211914062,88.49919128417969 C-210.34197998046875,134.17478942871094 -204.76881408691406,158.9968719482422 -200.5562744140625,189.64808654785156"></path></g><g opacity="0" transform="matrix(1,0,0,1,2.299999952316284,0)"><path stroke-linecap="round" stroke-linejoin="miter" fill-opacity="0" stroke-miterlimit="4" stroke="rgb(23,105,140)" stroke-opacity="1" stroke-width="4" d=" M-170.80299377441406,-38.250999450683594 C-170.80299377441406,-38.250999450683594 -169.1490020751953,-17.76300048828125 -169.1490020751953,-17.76300048828125"></path></g></g><g transform="matrix(0.8909767270088196,-0.0077721425332129,0.0077721425332129,0.8909767270088196,237.38490295410156,40.37034606933594)" opacity="1" style="display: block;"><g opacity="1" transform="matrix(1,0,0,1,0,0)"><path fill="rgb(61,169,214)" fill-opacity="1" d=" M-180.39564514160156,115.17064666748047 C-190.4443817138672,104.8318862915039 -213.42816162109375,87.76895141601562 -214.62808227539062,120.14185333251953 C-215.84681701660156,155.31202697753906 -227.8430633544922,192.7099609375 -209.38365173339844,207.05996704101562 C-199.70443725585938,214.51153564453125 -177.31500244140625,226.4117889404297 -167.2969512939453,217.49923706054688 C-157.0370330810547,208.60430908203125 -159.49388122558594,166.00595092773438 -147.76376342773438,152.971923828125 C-153.09129333496094,140.73695373535156 -172.81378173828125,122.54923248291016 -180.39564514160156,115.17064666748047z"></path></g></g><g transform="matrix(2.6729300022125244,-0.023316428065299988,0.023316428065299988,2.6729300022125244,-783.56298828125,-862.3915405273438)" opacity="1" style="display: block;"><g opacity="1" transform="matrix(1,0,0,1,307.4880065917969,395.4840087890625)"><path fill="rgb(61,169,214)" fill-opacity="1" d=" M1.7860000133514404,14.626999855041504 C-1.8191750049591064,11.851741790771484 -2.0697999000549316,6.1151251792907715 -1.7055083513259888,3.134124994277954 C-1.4020333290100098,0.526408314704895 -1.18524169921875,-4.80109167098999 -0.4937500059604645,-7.72130012512207 C0.8361666798591614,-13.248566627502441 -1.9342666864395142,-17.78667449951172 1.9929749965667725,-19.79469108581543"></path><path stroke-linecap="round" stroke-linejoin="round" fill-opacity="0" stroke="rgb(23,105,140)" stroke-opacity="1" stroke-width="2.5" d=" M1.7860000133514404,14.626999855041504 C-1.8191750049591064,11.851741790771484 -2.0697999000549316,6.1151251792907715 -1.7055083513259888,3.134124994277954 C-1.4020333290100098,0.526408314704895 -1.18524169921875,-4.80109167098999 -0.4937500059604645,-7.72130012512207 C0.8361666798591614,-13.248566627502441 -1.9342666864395142,-17.78667449951172 1.9929749965667725,-19.79469108581543"></path></g></g><g transform="matrix(2.6729445457458496,-0.021603960543870926,0.021603960543870926,2.6729445457458496,-781.9857788085938,-873.4689331054688)" opacity="1" style="display: none;"><g opacity="1" transform="matrix(1,0,0,1,321.6189880371094,402.17401123046875)"><path fill="rgb(61,169,214)" fill-opacity="1" d=" M-1.7139999866485596,-10.375 C0.18400000035762787,-8.47700023651123 2.3949999809265137,4.336999893188477 -2.3959999084472656,10.37399959564209"></path><path stroke-linecap="round" stroke-linejoin="round" fill-opacity="0" stroke="rgb(23,105,140)" stroke-opacity="1" stroke-width="2" d=" M-1.7139999866485596,-10.375 C0.18400000035762787,-8.47700023651123 2.3949999809265137,4.336999893188477 -2.3959999084472656,10.37399959564209"></path></g></g><g style="display: none;" transform="matrix(2.6730310916900635,-0.0018495297990739346,0.0018495297990739346,2.6730310916900635,-772.4217529296875,-783.20458984375)" opacity="1"><g opacity="1" transform="matrix(1,0,0,1,321.6189880371094,402.17401123046875)"><path fill="rgb(61,169,214)" fill-opacity="1" d=" M-7.275116443634033,-6.593441009521484 C-5.053236961364746,-5.612802505493164 1.344171404838562,-1.011459231376648 -0.02296043373644352,4.961476802825928"></path><path stroke-linecap="round" stroke-linejoin="round" fill-opacity="0" stroke="rgb(23,105,140)" stroke-opacity="1" stroke-width="2" d=" M-7.275116443634033,-6.593441009521484 C-5.053236961364746,-5.612802505493164 1.344171404838562,-1.011459231376648 -0.02296043373644352,4.961476802825928"></path></g></g><g transform="matrix(2.345560312271118,-1.281969666481018,1.281969666481018,2.345560312271118,-1155.115478515625,-346.7381896972656)" opacity="1" style="display: block;"><g opacity="1" transform="matrix(1,0,0,1,322.4830017089844,374.2669982910156)"><path fill="rgb(61,169,214)" fill-opacity="1" d=" M-12.095486640930176,0.2067272663116455 C-10.078859329223633,-1.1850045919418335 -0.734000027179718,-7.767000198364258 1.8370000123977661,-9.317000389099121 C4.193999767303467,-10.73799991607666 5.941404342651367,-12.462777137756348 8.298813819885254,-11.813995361328125 C11.089804649353027,-11.14638614654541 14.927123069763184,-11.094995498657227 18.937318801879883,-12.2389497756958 C27.106273651123047,-14.56970500946045 25.862863540649414,-9.155595779418945 21.55599594116211,-6.704072952270508 C17.03215980529785,-4.128868103027344 11.399713516235352,-4.71107292175293 10.586564064025879,-4.887477397918701 C8.677336692810059,-5.301318168640137 5.257791042327881,-3.7260000705718994 3.694790840148926,-2.174999952316284 C1.7267909049987793,-0.22300000488758087 -3.7381227016448975,4.9713592529296875 -5.942122936248779,5.818358898162842"></path><path stroke-linecap="round" stroke-linejoin="round" fill-opacity="0" stroke="rgb(23,105,140)" stroke-opacity="1" stroke-width="2.5" d=" M-12.095486640930176,0.2067272663116455 C-10.078859329223633,-1.1850045919418335 -0.734000027179718,-7.767000198364258 1.8370000123977661,-9.317000389099121 C4.193999767303467,-10.73799991607666 5.941404342651367,-12.462777137756348 8.298813819885254,-11.813995361328125 C11.089804649353027,-11.14638614654541 14.927123069763184,-11.094995498657227 18.937318801879883,-12.2389497756958 C27.106273651123047,-14.56970500946045 25.862863540649414,-9.155595779418945 21.55599594116211,-6.704072952270508 C17.03215980529785,-4.128868103027344 11.399713516235352,-4.71107292175293 10.586564064025879,-4.887477397918701 C8.677336692810059,-5.301318168640137 5.257791042327881,-3.7260000705718994 3.694790840148926,-2.174999952316284 C1.7267909049987793,-0.22300000488758087 -3.7381227016448975,4.9713592529296875 -5.942122936248779,5.818358898162842"></path></g></g><g transform="matrix(2.6729300022125244,-0.023316428065299988,0.023316428065299988,2.6729300022125244,-769.94970703125,-860.7117309570312)" opacity="1" style="display: block;"><g opacity="1" transform="matrix(1,0,0,1,329.10198974609375,377.80999755859375)"><path fill="rgb(61,169,214)" fill-opacity="1" d=" M-22.7189998626709,2.7920000553131104 C-22.68631362915039,-1.4339817762374878 -20.599905014038086,-3.5452635288238525 -14.90827751159668,-2.2412726879119873 C-11.905791282653809,-1.5409045219421387 -7.495299816131592,-2.5785181522369385 -3.8298091888427734,-1.5817317962646484 C-0.3945545554161072,-0.9310363531112671 -1.6299227476119995,2.8315317630767822 -3.0730409622192383,4.669940948486328 C-5.333377361297607,7.549654483795166 -6.865427494049072,10.200204849243164 -7.50554084777832,13.585823059082031 C-8.249845504760742,17.518173217773438 -11.977777481079102,17.319128036499023 -12.717100143432617,11.928199768066406 C-13.405136108398438,6.90596342086792 -12.357854843139648,5.24586820602417 -10.32044506072998,2.584399938583374 C-9.488558769226074,1.4988545179367065 -5.260036468505859,3.9175362586975098 -7.174522876739502,3.3132636547088623 C-9.851604461669922,2.5116636753082275 -12.943668365478516,5.236531734466553 -15.22403621673584,4.435791015625"></path><path stroke-linecap="round" stroke-linejoin="round" fill-opacity="0" stroke="rgb(23,105,140)" stroke-opacity="1" stroke-width="2.5" d=" M-22.7189998626709,2.7920000553131104 C-22.68631362915039,-1.4339817762374878 -20.599905014038086,-3.5452635288238525 -14.90827751159668,-2.2412726879119873 C-11.905791282653809,-1.5409045219421387 -7.495299816131592,-2.5785181522369385 -3.8298091888427734,-1.5817317962646484 C-0.3945545554161072,-0.9310363531112671 -1.6299227476119995,2.8315317630767822 -3.0730409622192383,4.669940948486328 C-5.333377361297607,
   7.549654483795166 -6.865427494049072,10.200204849243164 -7.50554084777832,13.585823059082031 C-8.249845504760742,17.518173217773438 -11.977777481079102,17.319128036499023 -12.717100143432617,11.928199768066406 C-13.405136108398438,6.90596342086792 -12.357854843139648,5.24586820602417 -10.32044506072998,2.584399938583374 C-9.488558769226074,1.4988545179367065 -5.260036468505859,3.9175362586975098 -7.174522876739502,3.3132636547088623 C-9.851604461669922,2.5116636753082275 -12.943668365478516,5.236531734466553 -15.22403621673584,4.435791015625"></path></g></g><g transform="matrix(2.6729300022125244,-0.023316428065299988,0.023316428065299988,2.6729300022125244,-774.822998046875,-862.5340576171875)" opacity="1" style="display: block;"><g opacity="1" transform="matrix(1,0,0,1,322.2569885253906,391.2749938964844)"><path fill="rgb(61,169,214)" fill-opacity="1" d=" M-11.649999618530273,-6.363999843597412 C-11.847999572753906,-9.11299991607666 -9.372054100036621,-11.919877052307129 -6.855331897735596,-11.77819538116455 C-4.182095527648926,-11.643940925598145 2.2070136070251465,-12.294572830200195 5.8352861404418945,-12.500245094299316 C7.280090808868408,-12.566923141479492 8.621399879455566,-10.923704147338867 8.940681457519531,-10.039058685302734 C9.87424087524414,-7.4114909172058105 6.736217975616455,-2.1413955688476562 7.388604640960693,0.5928954482078552 C8.5032958984375,5.340849876403809 1.6001499891281128,7.062168121337891 0.7417773008346558,2.7443454265594482 C0.42648181319236755,1.166459083557129 0.19269545376300812,0.5716045498847961 1.5647454261779785,-2.4814271926879883"></path><path stroke-linecap="round" stroke-linejoin="round" fill-opacity="0" stroke="rgb(23,105,140)" stroke-opacity="1" stroke-width="2.5" d=" M-11.649999618530273,-6.363999843597412 C-11.847999572753906,-9.11299991607666 -9.372054100036621,-11.919877052307129 -6.855331897735596,-11.77819538116455 C-4.182095527648926,-11.643940925598145 2.2070136070251465,-12.294572830200195 5.8352861404418945,-12.500245094299316 C7.280090808868408,-12.566923141479492 8.621399879455566,-10.923704147338867 8.940681457519531,-10.039058685302734 C9.87424087524414,-7.4114909172058105 6.736217975616455,-2.1413955688476562 7.388604640960693,0.5928954482078552 C8.5032958984375,5.340849876403809 1.6001499891281128,7.062168121337891 0.7417773008346558,2.7443454265594482 C0.42648181319236755,1.166459083557129 0.19269545376300812,0.5716045498847961 1.5647454261779785,-2.4814271926879883"></path></g></g><g style="display: block;" transform="matrix(0.8909767270088196,-0.0077721425332129,0.0077721425332129,0.8909767270088196,237.38490295410156,40.37034606933594)" opacity="1"><g opacity="1" transform="matrix(1,0,0,1,0,0)"><path fill="rgb(61,169,214)" fill-opacity="1" d=" M-181,132.5 C-194,142.5 -203.25,179.75 -200,194 C-196.75,208.25 -155.21749877929688,215.98899841308594 -155.46249389648438,195.02499389648438 C-155.96249389648438,152.27499389648438 -147.83749389648438,155.52499389648438 -136.08749389648438,147.02499389648438 C-126.25350189208984,139.91099548339844 -170.4010009765625,124.34700012207031 -181,132.5z"></path></g></g><g transform="matrix(2.653296947479248,0.32421281933784485,-0.32421281933784485,2.653296947479248,-631.2030639648438,-963.4151611328125)" opacity="1" style="display: block;"><g opacity="1" transform="matrix(1,0,0,1,323.4049987792969,391.9840087890625)"><path fill="rgb(61,169,214)" fill-opacity="1" d=" M-8.65999984741211,-4.1529998779296875 C-8.093999862670898,-8.77299976348877 -5.004000186920166,-9.34000015258789 -2.309999942779541,-7.696000099182129 C-0.4003772735595703,-6.873636245727539 3.47760009765625,-6.792777061462402 5.761490821838379,-6.600095272064209 C10.358404159545898,-6.183468341827393 5.239945411682129,1.5758181810379028 4.899945259094238,5.203818321228027 C4.587945461273193,8.605817794799805 -2.13677716255188,7.1251091957092285 -0.2867681682109833,1.4720817804336548 C0.4613727331161499,-0.8102045655250549 0.8115181922912598,-0.32774999737739563 1.5068681240081787,-1.458799958229065"></path><path stroke-linecap="round" stroke-linejoin="round" fill-opacity="0" stroke="rgb(23,105,140)" stroke-opacity="1" stroke-width="2.5" d=" M-8.65999984741211,-4.1529998779296875 C-8.093999862670898,-8.77299976348877 -5.004000186920166,-9.34000015258789 -2.309999942779541,-7.696000099182129 C-0.4003772735595703,-6.873636245727539 3.47760009765625,-6.792777061462402 5.761490821838379,-6.600095272064209 C10.358404159545898,-6.183468341827393 5.239945411682129,1.5758181810379028 4.899945259094238,5.203818321228027 C4.587945461273193,8.605817794799805 -2.13677716255188,7.1251091957092285 -0.2867681682109833,1.4720817804336548 C0.4613727331161499,-0.8102045655250549 0.8115181922912598,-0.32774999737739563 1.5068681240081787,-1.458799958229065"></path></g></g><g style="display: block;" transform="matrix(2.6729300022125244,-0.023316428065299988,0.023316428065299988,2.6729300022125244,-772.1782836914062,-858.30322265625)" opacity="1"><g opacity="1" transform="matrix(1,0,0,1,321.6189880371094,402.17401123046875)"><path fill="rgb(61,169,214)" fill-opacity="1" d=" M-1.491133213043213,-12.69635009765625 C0.959212064743042,-10.145286560058594 2.3949999809265137,4.336999893188477 -2.3959999084472656,10.37399959564209"></path><path stroke-linecap="round" stroke-linejoin="round" fill-opacity="0" stroke="rgb(23,105,140)" stroke-opacity="1" stroke-width="2.5" d=" M-1.491133213043213,-12.69635009765625 C0.959212064743042,-10.145286560058594 2.3949999809265137,4.336999893188477 -2.3959999084472656,10.37399959564209"></path></g></g><g transform="matrix(0.9898071885108948,0.02007991261780262,-0.02007991261780262,0.9898071885108948,533.5927124023438,291.38751220703125)" opacity="1" style="display: block;"><g opacity="1" transform="matrix(1,0,0,1,0,0)"><path fill="rgb(61,169,214)" fill-opacity="1" d=" M-205.37399291992188,-59.88399887084961 C-204.62399291992188,-52.88399887084961 -202.44000244140625,-30.01099967956543 -202.125,-26.625 C-201.16400146484375,-16.315000534057617 -192.51272583007812,35.58335494995117 -202.5,88.5 C-210.34425354003906,130.39292907714844 -209.7283477783203,181.0430450439453 -203.92166137695312,207.30087280273438 C-200.86831665039062,223.06568908691406 -124.14891052246094,230.24871826171875 -123.38667297363281,204.64031982421875 C-121.33770751953125,164.7311248779297 -131.5047149658203,122.81165313720703 -138.77413940429688,90.62084197998047 C-147.5462188720703,51.74270248413086 -151.25759887695312,4.127995491027832 -149.93006896972656,-54.22274398803711 C-149.28213500976562,-82.81238555908203 -206.12399291992188,-66.88400268554688 -205.37399291992188,-59.88399887084961z"></path></g><g opacity="1" transform="matrix(1,0,0,1,0,0)"><path fill="rgb(34,147,193)" fill-opacity="1" d=" M-140.02035522460938,219.35655212402344 C-130.4326934814453,216.88536071777344 -123.61138916015625,212.18692016601562 -123.38667297363281,204.64031982421875 C-121.33770751953125,164.7311248779297 -131.5047149658203,122.81165313720703 -138.77413940429688,90.62084197998047 C-147.5462188720703,51.74270248413086 -151.25759887695312,4.127995491027832 -149.93006896972656,-54.22274398803711 C-149.7330780029297,-62.90745544433594 -154.8412322998047,-67.48393249511719 -162.02793884277344,-69.45118713378906 C-176.74293518066406,-36.19068145751953 -157.36268615722656,168.2330780029297 -140.02035522460938,219.35655212402344z"></path></g><g opacity="1" transform="matrix(1,0,0,1,0,0)"><path stroke-linecap="round" stroke-linejoin="miter" fill-opacity="0" stroke-miterlimit="4" stroke="rgb(23,105,140)" stroke-opacity="1" stroke-width="7" d=" M-123.38667297363281,204.64031982421875 C-121.33770751953125,164.7311248779297 -131.5047149658203,122.81165313720703 -138.77413940429688,90.62084197998047 C-147.5462188720703,51.74270248413086 -151.25759887695312,4.127995491027832 -149.93006896972656,-54.22274398803711 C-149.28213500976562,-82.81238555908203 -206.12399291992188,-66.88400268554688 -205.37399291992188,-59.88399887084961 C-204.62399291992188,-52.88399887084961 -202.44000244140625,-30.01099967956543 -202.125,-26.625 C-201.16400146484375,-16.315000534057617 -192.51272583007812,35.58335494995117 -202.5,88.5 C-210.34425354003906,130.39292907714844 -209.7283477783203,181.0430450439453 -203.92166137695312,207.30087280273438"></path></g></g><g transform="matrix(2.159289598464966,1.5756169557571411,-1.5756169557571411,2.159289598464966,-202.4966278076172,-912.0784301757812)" opacity="1" style="display: block;"><g opacity="1" transform="matrix(1,0,0,1,396.3190002441406,178.66600036621094)"><path fill="rgb(61,169,214)" fill-opacity="1" d=" M19.18985939025879,4.29567289352417 C18.785676956176758,1.6043908596038818 15.792040824890137,0.09323636442422867 14.264436721801758,0.0831499993801117 C12.622045516967773,-0.7346545457839966 10.127786636352539,-2.8788318634033203 8.833786010742188,-4.182831764221191 C7.969786167144775,-5.052831649780273 6.133159160614014,-6.312086582183838 3.5647318363189697,-6.08401346206665 C0.7868000268936157,-5.8404998779296875 -6.20619535446167,-7.435154438018799 -8.855595588684082,-8.211331367492676 C-16.555667877197266,-10.467845916748047 -15.850199699401855,-4.572354316711426 -10.773390769958496,-2.5730772018432617 C-9.012818336486816,-1.8802045583724976 -1.5994635820388794,-1.2272363901138306 -0.2925136387348175,-1.291204571723938 C1.017654538154602,-1.3527591228485107 2.7879364490509033,-0.7227181792259216 3.42415452003479,0.085063636302948 C3.77980899810791,0.6926727294921875 11.296954154968262,8.559022903442383 12.349954605102539,9.333023071289062"></path><path stroke-linecap="round" stroke-linejoin="miter" fill-opacity="0" stroke-miterlimit="10" stroke="rgb(23,105,140)" stroke-opacity="1" stroke-width="2.5" d=" M19.18985939025879,4.29567289352417 C18.785676956176758,1.6043908596038818 15.792040824890137,0.09323636442422867 14.264436721801758,0.0831499993801117 C12.622045516967773,-0.7346545457839966 10.127786636352539,-2.8788318634033203 8.833786010742188,-4.182831764221191 C7.969786167144775,-5.052831649780273 6.133159160614014,-6.312086582183838 3.5647318363189697,-6.08401346206665 C0.7868000268936157,-5.8404998779296875 -6.20619535446167,-7.435154438018799 -8.855595588684082,-8.211331367492676 C-16.555667877197266,-10.467845916748047 -15.850199699401855,-4.572354316711426 -10.773390769958496,-2.5730772018432617 C-9.012818336486816,-1.8802045583724976 -1.5994635820388794,-1.2272363901138306 -0.2925136387348175,-1.291204571723938 C1.017654538154602,-1.3527591228485107 2.7879364490509033,-0.7227181792259216 3.42415452003479,0.085063636302948 C3.77980899810791,0.6926727294921875 11.296954154968262,8.559022903442383 12.349954605102539,9.333023071289062"></path></g></g><g transform="matrix(2.6729300022125244,-0.023316428065299988,0.023316428065299988,2.6729300022125244,-698.72705078125,-347.8005676269531)" opacity="1" style="display: block;"><g opacity="1" transform="matrix(1,0,0,1,396.875,208.75)"><path fill="rgb(61,169,214)" fill-opacity="1" d=" M0.125,-16.66699981689453 C0.125,-16.66699981689453 3.407677173614502,-18.07464599609375 5.667677402496338,-19.838645935058594 C7.205677509307861,-21.03964614868164 6.988859176635742,-21.573081970214844 8.635863304138184,-22.498544692993164 C11.25607681274414,-23.963544845581055 14.489850044250488,-24.50320053100586 14.923850059509277,-24.26219940185547 C16.04884910583496,-23.63719940185547 16.393686294555664,7.725518226623535 3.9494454860687256,17.70800018310547 C-6.971827507019043,26.601545333862305 -12.627004623413086,18.64690399169922 -12.627004623413086,18.64690399169922 C-16.410173416137695,8.33002758026123 -14.926395416259766,1.948163628578186 -14.056863784790039,-3.0875000953674316 C-13.320886611938477,-7.0820817947387695 -8.718181610107422,-12.86963176727295 -7.093181610107422,-14.24463176727295 C-5.468181610107422,-15.61963176727295 0.125,-16.66699981689453 0.125,-16.66699981689453z"></path></g></g><g transform="matrix(2.6729300022125244,-0.023316428065299988,0.023316428065299988,2.6729300022125244,-701.4143676757812,-344.1221008300781)" opacity="1" style="display: block;"><g opacity="1" transform="matrix(1,0,0,1,390.7359924316406,180.7449951171875)"><path fill="rgb(61,169,214)" fill-opacity="1" d=" M19.135000228881836,4.517000198364258 C19.653709411621094,2.381768226623535 18.385467529296875,-0.6200727224349976 13.696186065673828,-0.42527273297309875 C9.68118667602539,-0.4709545373916626 8.191740989685059,-0.9702136516571045 5.797277450561523,-1.9073727130889893 C2.2707226276397705,-3.266336441040039 0.5599045157432556,-1.2395000457763672 0.1589045524597168,0.6184999942779541 C-0.6830954551696777,4.515500068664551 -3.981091022491455,9.974813461303711 -5.203091144561768,16.887813568115234 C-6.066091060638428,21.769813537597656 -0.13699544966220856,21.36445426940918 0.7020045518875122,17.889453887939453 C1.3880045413970947,15.046454429626465 3.2760863304138184,8.953568458557129 4.207086563110352,6.581568241119385 C4.761086463928223,5.168568134307861 5.881940841674805,4.195309162139893 6.607663631439209,4.54866361618042 C7.690854549407959,5.119313716888428 8.95300006866455,5.060999870300293 11.496999740600586,5.302000045776367"></path><path stroke-linecap="round" stroke-linejoin="miter" fill-opacity="0" stroke-miterlimit="10" stroke="rgb(23,105,140)" stroke-opacity="1" stroke-width="2.5" d=" M19.135000228881836,4.517000198364258 C19.653709411621094,2.381768226623535 18.385467529296875,-0.6200727224349976 13.696186065673828,-0.42527273297309875 C9.68118667602539,-0.4709545373916626 8.191740989685059,-0.9702136516571045 5.797277450561523,-1.9073727130889893 C2.2707226276397705,-3.266336441040039 0.5599045157432556,-1.2395000457763672 0.1589045524597168,0.6184999942779541 C-0.6830954551696777,4.515500068664551 -3.981091022491455,9.974813461303711 -5.203091144561768,16.887813568115234 C-6.066091060638428,21.769813537597656 -0.13699544966220856,21.36445426940918 0.7020045518875122,17.889453887939453 C1.3880045413970947,15.046454429626465 3.2760863304138184,8.953568458557129 4.207086563110352,6.581568241119385 C4.761086463928223,5.168568134307861 5.881940841674805,4.195309162139893 6.607663631439209,4.54866361618042 C7.690854549407959,5.119313716888428 8.95300006866455,5.060999870300293 11.496999740600586,5.302000045776367"></path></g></g><g transform="matrix(2.6729300022125244,-0.023316428065299988,0.023316428065299988,2.6729300022125244,-707.110595703125,-343.0087585449219)" opacity="1" style="display: block;"><g opacity="1" transform="matrix(1,0,0,1,393.3059997558594,195.38900756835938)"><path fill="rgb(61,169,214)" fill-opacity="1" d=" M14.074999809265137,-7.978000164031982 C14.144000053405762,-8.777999877929688 14.883000373840332,-11.541000366210938 12.527000427246094,-12.13599967956543 C11.156999588012695,-12.482000350952148 9.622913360595703,-12.067268371582031 8.2202730178833,-11.992213249206543 C6.267736434936523,-11.887645721435547 2.601309061050415,-12.96815013885498 -0.7169408798217773,-13.84859561920166 C-1.8670817613601685,-14.153463363647461 -4.383286476135254,-14.739495277404785 -5.206445217132568,-12.006590843200684 C-5.775372505187988,-9.879827499389648 -5.755527496337891,-6.719118118286133 -5.590522766113281,-5.3504638671875 C-5.165822505950928,-1.8157954216003418 -5.624981880187988,-0.8414000272750854 -5.501363754272461,1.9209545850753784 C-5.402868270874023,4.691445350646973 -3.55637264251709,4.873204708099365 -2.533231735229492,4.313899993896484"></path><path stroke-linecap="round" stroke-linejoin="miter" fill-opacity="0" stroke-miterlimit="10" stroke="rgb(23,105,140)" stroke-opacity="1" stroke-width="2.5" d=" M14.074999809265137,-7.978000164031982 C14.144000053405762,-8.777999877929688 14.883000373840332,-11.541000366210938 12.527000427246094,-12.13599967956543 C11.156999588012695,-12.482000350952148 9.622913360595703,-12.067268371582031 8.2202730178833,-11.992213249206543 C6.267736434936523,-11.887645721435547 2.601309061050415,-12.96815013885498 -0.7169408798217773,-13.84859561920166 C-1.8670817613601685,-14.153463363647461 -4.383286476135254,-14.739495277404785 -5.206445217132568,
  -12.006590843200684 C-5.775372505187988,-9.879827499389648 -5.755527496337891,-6.719118118286133 -5.590522766113281,-5.3504638671875 C-5.165822505950928,-1.8157954216003418 -5.624981880187988,-0.8414000272750854 -5.501363754272461,1.9209545850753784 C-5.402868270874023,4.691445350646973 -3.55637264251709,4.873204708099365 -2.533231735229492,4.313899993896484"></path></g></g><g style="display: block;" transform="matrix(0.8909767270088196,-0.0077721425332129,0.0077721425332129,0.8909767270088196,363.1253356933594,201.54946899414062)" opacity="1"><g opacity="1" transform="matrix(1,0,0,1,0,0)"><path fill="rgb(61,169,214)" fill-opacity="1" d=" M1.75,-55.25 C-17.75,-50.75 -18.884300231933594,-52.28165054321289 -25.5,-46 C-38.587501525878906,-34.07083511352539 -35.653499603271484,-27.562999725341797 -36.162498474121094,-10.524999618530273 C-36.662498474121094,6.224999904632568 13.639200210571289,-16.23466682434082 13.639200210571289,-28.48466682434082 C13.639200210571289,-40.73466491699219 21.25,-59.75 1.75,-55.25z"></path></g></g><g transform="matrix(2.6729300022125244,-0.023316428065299988,0.023316428065299988,2.6729300022125244,-698.72705078125,-347.8005676269531)" opacity="1" style="display: block;"><g opacity="1" transform="matrix(1,0,0,1,396.875,208.75)"><path fill="rgb(34,147,193)" fill-opacity="1" d=" M-0.4702000021934509,-16.460359573364258 C-0.0812181830406189,-19.282278060913086 2.160822629928589,-16.879180908203125 0.8071045279502869,-18.796932220458984 C5.882290840148926,-16.018468856811523 2.1200273036956787,-23.09288215637207 6.38028621673584,-22.144559860229492 C6.98330020904541,-21.955949783325195 6.073400020599365,-19.256813049316406 7.100868225097656,-19.1041316986084 C8.682454109191895,-18.87660026550293 8.809318542480469,-20.648590087890625 8.575077056884766,-22.06711769104004 C8.376954078674316,-23.1755313873291 9.564672470092773,-24.328413009643555 10.400413513183594,-23.99232292175293 C11.532377243041992,-23.536699295043945 11.033745765686035,-21.365026473999023 11.684223175048828,-21.183454513549805 C14.303459167480469,-20.437562942504883 11.978832244873047,-26.18916893005371 14.80638599395752,-23.575119018554688 C15.93138599395752,-22.950119018554688 15.960841178894043,5.336822509765625 5.613245487213135,16.077991485595703 C5.176895618438721,17.6794490814209 5.427313804626465,22.788122177124023 0.28668636083602905,20.118282318115234 C-0.5630636215209961,13.998690605163574 -1.6824454069137573,6.082631587982178 -0.4702000021934509,-16.460359573364258z"></path></g></g><g transform="matrix(2.6729300022125244,-0.023316428065299988,0.023316428065299988,2.6729300022125244,-713.38720703125,-343.05853271484375)" opacity="1" style="display: block;"><g opacity="1" transform="matrix(1,0,0,1,393.89300537109375,193.75799560546875)"><path fill="rgb(61,169,214)" fill-opacity="1" d=" M8.748000144958496,-3.756999969482422 C9.463000297546387,-5.11899995803833 7.630000114440918,-8.78600025177002 3.5179998874664307,-6.565999984741211 C2.440999984741211,-5.984000205993652 -3.4598500728607178,-6.358591079711914 -4.490677356719971,-6.2317728996276855 C-6.1599955558776855,-6.017909049987793 -7.766277313232422,-4.44047737121582 -7.195995330810547,-1.9904909133911133 C-5.805331707000732,3.302427291870117 -7.604454517364502,8.200236320495605 -5.99884557723999,9.234477043151855"></path><path stroke-linecap="round" stroke-linejoin="miter" fill-opacity="0" stroke-miterlimit="10" stroke="rgb(23,105,140)" stroke-opacity="1" stroke-width="2.5" d=" M8.748000144958496,-3.756999969482422 C9.463000297546387,-5.11899995803833 7.630000114440918,-8.78600025177002 3.5179998874664307,-6.565999984741211 C2.440999984741211,-5.984000205993652 -3.4598500728607178,-6.358591079711914 -4.490677356719971,-6.2317728996276855 C-6.1599955558776855,-6.017909049987793 -7.766277313232422,-4.44047737121582 -7.195995330810547,-1.9904909133911133 C-5.805331707000732,3.302427291870117 -7.604454517364502,8.200236320495605 -5.99884557723999,9.234477043151855"></path></g></g><g transform="matrix(2.6729300022125244,-0.023316428065299988,0.023316428065299988,2.6729300022125244,-698.7288818359375,-347.800537109375)" opacity="1" style="display: block;"><g opacity="1" transform="matrix(1,0,0,1,396.875,208.75)"><path stroke-linecap="round" stroke-linejoin="miter" fill-opacity="0" stroke-miterlimit="10" stroke="rgb(23,105,140)" stroke-opacity="1" stroke-width="2.5" d=" M-11.890999794006348,19.520000457763672 C-13.001999855041504,18.319000244140625 -13.496999740600586,17.1560001373291 -13.496999740600586,17.1560001373291 C-16.609617233276367,6.169336318969727 -14.446805000305176,3.301154613494873 -14.381817817687988,-1.0635181665420532 C-14.292695045471191,-5.07660436630249 -12.777541160583496,-10.975150108337402 -11.152541160583496,-12.350150108337402 C-10.642000198364258,-12.781999588012695 -10.048999786376953,-13.215999603271484 -9.473999977111816,-13.609000205993652 M15.239999771118164,-23.889999389648438 C16.290000915527344,-23.30699920654297 15.97700023651123,3.989000082015991 5.839000225067139,15.645999908447266"></path></g></g><g style="display: none;" transform="matrix(1,0,0,1,260.5,252.5)" opacity="1"><g opacity="1" transform="matrix(1,0,0,1,0,0)"><path stroke-linecap="round" stroke-linejoin="miter" fill-opacity="0" stroke-miterlimit="4" stroke="rgb(255,163,4)" stroke-opacity="1" stroke-width="8" d=" M-114.77200317382812,-153.2310028076172 C-111.3489990234375,-160.44200134277344 -108,-167.5 -108,-167.5"></path></g><g opacity="1" transform="matrix(1,0,0,1,0,0)"><path stroke-linecap="round" stroke-linejoin="miter" fill-opacity="0" stroke-miterlimit="4" stroke="rgb(255,163,4)" stroke-opacity="1" stroke-width="8" d=" M-92.63899993896484,-133.5679931640625 C-83.47200012207031,-138.3350067138672 -74.5,-143 -74.5,-143"></path></g><g opacity="1" transform="matrix(1,0,0,1,0,0)"><path stroke-linecap="round" stroke-linejoin="miter" fill-opacity="0" stroke-miterlimit="4" stroke="rgb(255,163,4)" stroke-opacity="1" stroke-width="8" d=" M-93.76899719238281,-102.45099639892578 C-86.55799865722656,-101.71800231933594 -79.5,-101 -79.5,-101"></path></g></g><g style="display: none;" transform="matrix(-0.9743700623512268,-0.22495105862617493,-0.22495105862617493,0.9743700623512268,161.3362579345703,199.30157470703125)" opacity="1"><g opacity="1" transform="matrix(1,0,0,1,0,0)"><path stroke-linecap="round" stroke-linejoin="miter" fill-opacity="0" stroke-miterlimit="4" stroke="rgb(255,163,4)" stroke-opacity="1" stroke-width="8" d=" M-116.73699951171875,-153.5330047607422 C-114.24600219726562,-160.88800048828125 -111.80699920654297,-168.08599853515625 -111.80699920654297,-168.08599853515625"></path></g><g opacity="1" transform="matrix(1,0,0,1,0,0)"><path stroke-linecap="round" stroke-linejoin="miter" fill-opacity="0" stroke-miterlimit="4" stroke="rgb(255,163,4)" stroke-opacity="1" stroke-width="8" d=" M-92.63899993896484,-133.5679931640625 C-83.47200012207031,-138.3350067138672 -74.5,-143 -74.5,-143"></path></g><g opacity="1" transform="matrix(1,0,0,1,0,0)"><path stroke-linecap="round" stroke-linejoin="miter" fill-opacity="0" stroke-miterlimit="4" stroke="rgb(255,163,4)" stroke-opacity="1" stroke-width="8" d=" M-92.05799865722656,-100.29199981689453 C-84.03600311279297,-98.53700256347656 -76.18499755859375,-96.81900024414062 -76.18499755859375,-96.81900024414062"></path></g></g></g>
 

</svg>