<svg xmlns="http://www.w3.org/2000/svg" xmlns:xlink="http://www.w3.org/1999/xlink" 
viewBox="0 0 512 512" width="512" height="512" preserveAspectRatio="xMidYMid meet" style="width: 100%; height: 100%; transform: translate3d(0px, 0px, 0px);
 content-visibility: visible;"><defs><clipPath id="__lottie_element_202"><rect width="512" height="512" x="0" y="0"></rect></clipPath><linearGradient id="__lottie_element_272" spreadMethod="pad" gradientUnits="userSpaceOnUse" x1="46.76900100708008" y1="12.307999610900879"
  x2="111.48699951171875" y2="1.6410000324249268"><stop offset="0%" stop-color="rgb(230,153,231)"></stop><stop offset="50%" stop-color="rgb(219,132,221)"></stop><stop offset="100%" stop-color="rgb(209,111,210)"></stop></linearGradient></defs><g clip-path="url(#__lottie_element_202)"><g transform="matrix(1.2172421216964722,0.0605815164744854,-0.0605815164744854,1.2172421216964722,-37.372047424316406,-48.16447448730469)" 
  opacity="1" style="display: block;"><g opacity="1" transform="matrix(1,0,0,1,362.6619873046875,300.51300048828125)"><path fill="rgb(61,169,214)" fill-opacity="1" d=" M-25.878000259399414,-93.76300048828125 C-11.411999702453613,-94.72100067138672 6.635000228881836,-79.32099914550781 7.0879998207092285,-37.159000396728516 C7.204999923706055,-26.253999710083008 19.83799934387207,-27.26300048828125 33.5880012512207,16.924999237060547 C40.124000549316406,37.92900085449219 
  55.5880012512207,46.573001861572266 51.0880012512207,79.98699951171875 C49.10300064086914,94.72000122070312 5.34499979019165,73.23899841308594 -14.265000343322754,35.49399948120117 C-27.482999801635742,10.052000045776367 -22.14900016784668,-6.769000053405762 -32.16699981689453,-21.292999267578125 C-36.91899871826172,-26.43600082397461 -58.20899963378906,-28.64699935913086 -77.30799865722656,-24.250999450683594 
  C-102.73999786376953,-18.39699935913086 -40.73899841308594,-92.77899932861328 -25.878000259399414,-93.76300048828125z"></path></g><g opacity="1" transform="matrix(1,0,0,1,362.6619873046875,300.51300048828125)"><path fill="rgb(10,126,175)" fill-opacity="0.5" d=" M-25.878000259399414,
  -93.76300048828125 C-11.411999702453613,-94.72100067138672 6.635000228881836,-79.32099914550781 7.0879998207092285,-37.159000396728516 C7.204999923706055,-26.253999710083008 19.83799934387207,-27.26300048828125 33.5880012512207,16.924999237060547 C40.124000549316406,37.92900085449219 55.5880012512207,46.573001861572266 51.0880012512207,79.98699951171875 C49.10300064086914,94.72000122070312
   5.34499979019165,73.23899841308594 -14.265000343322754,35.49399948120117 C-27.482999801635742,10.052000045776367 -22.14900016784668,-6.769000053405762 -32.16699981689453,-21.292999267578125 C-36.91899871826172,-26.43600082397461 -58.20899963378906,-28.64699935913086 -77.30799865722656,-24.250999450683594 C-102.73999786376953,-18.39699935913086 -40.73899841308594,-92.77899932861328 -25.878000259399414,-93.76300048828125z"></path></g><g opacity="1" transform="matrix(1,0,0,1,362.6619873046875,300.51300048828125)"><path stroke-linecap="round" stroke-linejoin="round" fill-opacity="0" stroke="rgb(24,105,141)"
    stroke-opacity="1" stroke-width="6" d=" M-25.878000259399414,-93.76300048828125 C-11.411999702453613,-94.72100067138672 6.635000228881836,-79.32099914550781 7.0879998207092285,-37.159000396728516 C7.204999923706055,-26.253999710083008 19.83799934387207,-27.26300048828125 33.5880012512207,16.924999237060547 C40.124000549316406,37.92900085449219 55.5880012512207,46.573001861572266 51.0880012512207,79.98699951171875 C49.10300064086914,94.72000122070312 5.34499979019165,73.23899841308594 -14.265000343322754,35.49399948120117 C-27.482999801635742,10.052000045776367 -22.14900016784668,-6.769000053405762 -32.16699981689453,-21.292999267578125 C-36.91899871826172,-26.43600082397461 -58.20899963378906,-28.64699935913086 -77.30799865722656,-24.250999450683594 C-102.73999786376953,-18.39699935913086 -40.73899841308594,-92.77899932861328 -25.878000259399414,-93.76300048828125z"></path></g></g><g transform="matrix(1.21875,0,0,1.21875,-43.99974060058594,-54.00042724609375)"
    opacity="1" style="display: block;"><g opacity="1" 
    transform="matrix(1,0,0,1,234.66099548339844,331.25)"><path fill="rgb(203,103,48)" fill-opacity="1" d=" M-64.05286407470703,-124.15601348876953 C-78.
    03004455566406,-119.4756088256836 -89.72166442871094,-119.01459503173828 -106.75159454345703,-115.1413345336914 C-95.6635971069336,-96.7683334350586 -86.706001
    28173828,-8.5 -99.20600128173828,14.5 C-94.49947357177734,49.17559814453125 -94.06019592285156,83.25572204589844 -94.06019592285156,83.25572204589844 C-81.61884307861328,106.56436157226562 65.33270263671875,126.70904541015625 105.08270263671875,88.45904541015625 C105.52546691894531,47.81917190551758 106.3914566040039,24.256690979003906 97.87844848632812,-11.58020305633545 C102.06344604492188,-47.4972038269043 105.22098541259766,-82.43561553955078
     103.09298706054688,-109.65461730957031 C90.24796295166016,-107.94729614257812 73.39949035644531,-110.1893539428711 64.72492980957031,-113.28959655761719 C27.038928985595703,-110.72059631347656 -64.05286407470703,-124.15601348876953 -64.05286407470703,-124.15601348876953z"></path><path fill="rgb(230,153,231)" fill-opacity="1" d=" M-64.05286407470703,-124.15601348876953 C-78.03004455566406,-119.4756088256836 -89.72166442871094,-119.01459503173828 -106.75159454345703,-115.1413345336914 C-95.6635971069336,-96.7683334350586 -86.70600128173828,-8.5 -99.20600128173828,14.5 C-94.49947357177734,49.17559814453125 -94.06019592285156,83.25572204589844 -94.06019592285156,83.25572204589844 C-81.61884307861328,106.56436157226562 65.33270263671875,126.70904541015625 105.08270263671875,88.45904541015625 C105.52546691894531,47.81917190551758 106.3914566040039,24.256690979003906 97.87844848632812,-11.58020305633545 C102.06344604492188,-47.4972038269043 105.22098541259766,-82.43561553955078 103.09298706054688,-109.65461730957031 C90.24796295166016,-107.9472961425
     7812 73.39949035644531,-110.1893539428711 64.72492980957031,-113.28959655761719 C27.038928985595703,-110.72059631347656 -64.05286407470703,-124.15601348876953 -64.05286407470703,-124.15601348876953z"></path></g><g opacity="1" transform="matrix(1,0,0,1,234.66099548339844,331.25)"><path fill="url(#__lottie_element_272)" fill-opacity="1" d=" M73.68523406982422,104.00486755371094 C86.78460693359375,100.57628631591797 97.75469970703125,95.51004028320312 105.08270263671875,88.45904541015625 C105.52546691894531,47.81917190551758 106.3914566040039,24.256690979003906 97.87844848632812,-11.58020305633545 C102.06344604492188,-47.4972038269043 105.22098541259766,-82.43561553955078 103.09298706054688,-109.65461730957031 C90.24796295166016,-107.94729614257812 69.1455078125,-110.36380004882812 60.47093963623047,-113.46404266357422 C51.66565704345703,-112.99143981933594 34.67395782470703,-114.12811279296875 36.29115676879883,-108.99353790283203 C55.91324996948242,-79.83541870117188 56.6895866394043
     ,-46.8177490234375 59.729366302490234,-17.940017700195312 C73.05371856689453,5.857150077819824 77.68467712402344,54.63841247558594 73.68523406982422,104.00486755371094z"></path></g><g opacity="1" transform="matrix(1,0,0,1,234.66099548339844,331.25)"><path stroke-linecap="round" stroke-linejoin="round" fill-opacity="0" stroke="rgb(150,54,152)" stroke-opacity="1" stroke-width="6" d=" M105.08270263671875,88.45904541015625 C105.52546691894531,47.81917190551758 106.3914566040039,24.256690979003906 97.87844848632812,-11.58020305633545 C102.06344604492188,-47.4972038269043 105.22098541259766,-82.43561553955078 103.09298706054688,-109.65461730957031 C90.24796295166016,-107.94729614257812 73.39949035644531,-110.1893539428711 64.72492980957031,-113.28959655761719 C27.038928985595703,-110.72059631347656 -64.05286407470703,-124.15601348876953 -64.05286407470703,-124.15601348876953 C-78.03004455566406,-119.4756088256836 -89.72166442871094,-118.86856842041016 -106.75159454345703,-115.1413345336914 C-95.6635971069336,-96.7683334350586 -86.70600128173828,-8.5 -99.20600128173828,14.5 C-94.49947357177734,49.17559814453125 -94.06019592285156,83.25572204589844 -94.06019592285156,83.25572204589844 C-81.61884307861328,106.56436157226562 65.33270263671875,126.70904541015625 105.08270263671875,88.45904541015625z"></path></g></g><g transform="matrix(1.2141109704971313,-0.10622094571590424,0.10622094571590424,1.2141109704971313,-73.43772888183594,-51.47380828857422)" opacity="1" style="display: block;"><g opacity="1" transform="matrix(1,0,0,1,126.34500122070312,337.8330078125)"><path fill="rgb(61,169,214)" fill-opacity="1" d=" M-6.8460001945495605,-104.33300018310547 C-18.236000061035156,-97.64600372314453 -30.969999313354492,-62.67499923706055 -32.178001403808594,-43 C-34.012001037597656,-13.166000366210938 -24.78499984741211,-6.426000118255615 -24.67799949645996,0.5809999704360962 C-24.344999313354492,22.5 -31.448999404907227,38.43600082397461 -33.34000015258789,52.11399841308594 C-37.53099822998047,82.42900085449219 -27.360000610351562,102.67500305175781 -16.523000717163086,107.68599700927734 C-3.490999937057495,113.7129974365
     2344 15.166000366210938,92.4010009765625 16.666000366210938,80.73400115966797 C18.166000366210938,69.06800079345703 34.77899932861328,24.323999404907227 21.16699981689453,-10.064000129699707 C26.270000457763672,-35.8849983215332 32.42300033569336,-133.93600463867188 -6.8460001945495605,-104.33300018310547z"></path><path stroke-linecap="round" stroke-linejoin="round" fill-opacity="0" stroke="rgb(24,105,141)" stroke-opacity="1" stroke-width="6" d=" M-6.8460001945495605,-104.33300018310547 C-18.236000061035156,-97.64600372314453 -30.969999313354492,-62.67499923706055 -32.178001403808594,-43 C-34.012001037597656,-13.166000366210938 -24.78499984741211,-6.426000118255615 -24.67799949645996,0.5809999704360962 C-24.344999313354492,22.5 -31.448999404907227,38.43600082397461 -33.34000015258789,52.11399841308594 C-37.53099822998047,82.42900085449219 -27.360000610351562,102.67500305175781 -16.523000717163086,107.68599700927734 C-3.490999937057495,113.71299743652344 15.166000366210938,92.4010009765625 16.666000366210938,80.73400115966797 C18.166000366210938,69.06800079345703 34.77899932861328,24.323999404907227 21.16699981689453,-10.064000129699707 C26.270000457763672,-35.8849983215332 32.42300033569336,-133.93600463867188 -6.8460001945495605,-104.33300018310547z"></path></g></g><g transform="matrix(0.9961936473846436,-0.08715564757585526,0.08715564757585526,0.9961936473846436,252.43853759765625,231.19924926757812)" opacity="1" style="display: block;"><g opacity="1" transform="matrix(1,0,0,1,0,0)"><path fill="rgb(22,188,76)" fill-opacity="1" d=" M-147.5,-32.5 C-140.76199340820312,-32.27399826049805 -135.2729949951172,-29.033000946044922 -133.1199951171875,-25.62700080871582 C-125.20800018310547,-17.863000869750977 -122.33300018310547,12.723999977111816 -121.46900177001953,26.56399917602539 C-120.0459976196289,49.34199905395508 -122.02899932861328,72.00599670410156 -122.54100036621094,86.43299865722656 C-120.75700378417969,86.36699676513672 -118.5780029296875,90.07099914550781 -116.09400177001953,86.54000091552734 C-110.51899719238281,78.61599731445312 -106.2509994506836,44.48899841308594 -107.708000183
     10547,15.27299976348877 C-108.72100067138672,-5.045000076293945 -113.16100311279297,-29.35700035095215 -123.99099731445312,-36.21099853515625 C-127.83100128173828,-38.64099884033203 -143.75,-41 -147.5,-32.5z"></path><path stroke-linecap="round" stroke-linejoin="round" fill-opacity="0" stroke="rgb(6,108,40)" stroke-opacity="1" stroke-width="7" d=" M-147.5,-32.5 C-140.76199340820312,-32.27399826049805 -135.2729949951172,-29.033000946044922 -133.1199951171875,-25.62700080871582 C-125.20800018310547,-17.863000869750977 -122.33300018310547,12.723999977111816 -121.46900177001953,26.56399917602539 C-120.0459976196289,49.34199905395508 -122.02899932861328,72.00599670410156 -122.54100036621094,86.43299865722656 C-120.75700378417969,86.36699676513672 -118.5780029296875,90.07099914550781 -116.09400177001953,86.54000091552734 C-110.51899719238281,78.61599731445312 -106.2509994506836,44.48899841308594 -107.70800018310547,15.27299976348877 C-108.72100067138672,-5.045000076293945 -113.16100311279297,-29.35700035095215 -123.99099731445312,-36.21099853515625 C-127.83100128173828,-38.64099884033203 -143.75,-41 -147.5,-32.5z"></path></g></g><g transform="matrix(-0.999998927116394,0,0,0.999998927116394,224.4750213623047,251.53866577148438)" opacity="1" style="display: block;"><g opacity="1" transform="matrix(1,0,0,1,0,0)"><path fill="rgb(17,163,65)" fill-opacity="1" d=" M-151.125,-33.125 C-153.19700622558594,-24 -150.0260009765625,16.68400001525879 -148.76600646972656,26.225000381469727 C-146.94700622558594,40 -142.69700622558594,93.125 -140.625,95.875 C-139.07200622558594,96.875 -134.3159942626953,100.677001953125 -134.66099548339844,96.3740005493164 C-135.572998046875,85 -135.69700622558594,46.5 -136.08599853515625,19.22599983215332 C-136.48800659179688,-8.972000122070312 -132.19700622558594,-31.25 -136.46099853515625,-35.80400085449219 C-140.69700622558594,-40.5 -151.69700622558594,-37.25 -151.125,-33.125z"></path><path stroke-linecap="round" stroke-linejoin="round" fill-opacity="0" stroke="rgb(6,108,40)" stroke-opacity="1" stroke-width="7" d=" M-151.125,-33.125 C-153.19700622558594,-24 -150.0260009765625,16.68400001525879 -148.76600646972656,26.225000381469727 C-146.94700622558594,40 -142.69700622558594,93.125 -140.625,95.875 C-139.07200622558594,96.875 -134.3159942626953,100.677001953125 -134.66099548339844,96.3740005493164 C-135.572998046875,85 -135.69700622558594,46.5 -136.08599853515625,19.22599983215332 C-136.48800659179688,-8.972000122070312 -132.19700622558594,-31.25 -136.46099853515625,-35.80400085449219 C-140.69700622558594,-40.5 -151.69700622558594,-37.25 -151.125,-33.125z"></path></g></g><g transform="matrix(1.2044126987457275,0,0,1.2187505960464478,-44.04466247558594,-53.999114990234375)" opacity="1" style="display: block;"><g opacity="1" transform="matrix(1,0,0,1,233.875,214.75)"><path fill="rgb(22,188,76)" fill-opacity="1" d=" M-62.75,-5.5 C-50.08000183105469,24.429000854492188 41,20.30500030517578 64.125,8.097000122070312 C68.875,3.055000066757202 66.93399810791016,-5.416999816894531 59.19599914550781,-6.083000183105469 C45.79199981689453,-2.75 -42.869998931884766,-19.6200008392334 -52.20800018310547,-21.75 C-68.875,-19.41699981689453 -62.75,-5.5 -62.75,-5.5z"></path></g><g opacity="1" transform="matrix(1,0,0,1,233.875,214.75)"><path fill="rgb(17,163,65)" fill-opacity="1" d=" M38.39375305175781,15.019624710083008 C49.461997985839844,13.390815734863281 58.68452453613281,10.968867301940918 64.125,8.097000122070312 C68.875,3.055000066757202 66.93399810791016,-5.416999816894531 59.19599914550781,-6.083000183105469 C55.864566802978516,-5.2544636726379395 52.6807975769043,10.612988471984863 38.39375305175781,15.019624710083008z"></path></g><g opacity="1" transform="matrix(1,0,0,1,233.875,214.75)"><path stroke-linecap="round" stroke-linejoin="round" fill-opacity="0" stroke="rgb(5,108,39)" stroke-opacity="1" stroke-width="6" d=" M-62.75,-5.5 C-50.7149543762207,28.09357452392578 50.26531982421875,22.614194869995117 65.03176879882812,7.950620651245117 C69.78176879882812,2.908620834350586 66.93399810791016,-5.416999816894531 59.19599914550781,-6.083000183105469 C45.79199981689453,-2.75 -42.869998931884766,-19.6200008392334 -52.20800018310547,-21.75 C-68.875,-19.41699981689453 -62.75,-5.5 -62.75,-5.5z"></path></g></g><g transform="matrix(1.1966938972473145,0,0,1.2109400033950806,-50.62413024902344,-49.999725341796875)" opacity="1" style="display: block;"><g opacity="1" transform="matrix(1,0,0,1,297.17999267578125,76.67900085449219)"><path fill="rgb(31,164,219)" fill-opacity="1" d=" M-32.56999969482422,10.071000099182129 C-31.179000854492188,3.071000099182129 -24.43000030517578,-18.679000854492188 -9.930000305175781,-23.429000854492188 C4.570000171661377,-28.179000854492188 15.977999687194824,-25.367000579833984 20.56999969482422,-20.679000854492188 C32.56999969482422,-8.428999900817871 12.819999694824219,-3.3559999465942383 5.570000171661377,14.321000099182129 C-0.11400000005960464,28.17799949645996 -32.56999969482422,10.071000099182129 -32.56999969482422,10.071000099182129z"></path><path stroke-linecap="round" stroke-linejoin="round" fill-opacity="0" stroke="rgb(23,105,140)" stroke-opacity="1" stroke-width="6" d=" M-32.56999969482422,10.071000099182129 C-31.179000854492188,3.071000099182129 -24.43000030517578,-18.679000854492188 -9.930000305175781,-23.429000854492188 C4.570000171661377,-28.179000854492188 15.977999687194824,-25.367000579833984 20.56999969482422,-20.679000854492188 C32.56999969482422,-8.428999900817871 12.819999694824219,-3.3559999465942383 5.570000171661377,14.321000099182129 C-0.11400000005960464,28.17799949645996 -32.56999969482422,10.071000099182129 -32.56999969482422,10.071000099182129z"></path></g></g><g transform="matrix(1.1966938972473145,0,0,1.2109400033950806,-48.98619079589844,-49.999725341796875)" opacity="1" style="display: block;"><g opacity="1" transform="matrix(1,0,0,1,247.66700744628906,154.1649932861328)"><path fill="rgb(61,169,214)" fill-opacity="1" d=" M-31.33300018310547,-67.83200073242188 C-14,-72.4990005493164 51.66600036621094,-74.4990005493164 62.999000549316406,-67.83200073242188 C74.33300018310547,-61.165000915527344 87.66600036621094,-45.499000549316406 88.9990005493164,-28.165000915527344 C90.33300018310547,-10.831999778747559 91.33300018310547,22.834999084472656 84.33300018310547,34.834999084472656 C77.33300018310547,46.834999084472656 57.66699981689453,57.834999084472656 46.66699981689453,61.167999267578125 C35.66699981689453,64.5009994506836 -31.22800064086914,74.4990005493164 -62.000999450683594,53.167999267578125 C-91.33399963378906,32.834999084472656 -84.03299713134766,-32.51900100708008 -77.33300018310547,-43.499000549316406 C-64.41600036621094,-64.66500091552734 -31.33300018310547,-67.83200073242188 -31.33300018310547,-67.83200073242188z"></path></g><g opacity="1" transform="matrix(1,0,0,1,247.66700744628906,154.1649932861328)"><path fill="rgb(10,126,175)" fill-opacity="0.7000000000000001" d=" M44.64099884033203,-71.44499969482422 C49.95899963378906,-71.14600372314453 60.358001708984375,-69.5459976196289 62.999000549316406,-67.83200073242188 C74.33300018310547,-61.165000915527344 87.66600036621094,-45.499000549316406 88.9990005493164,-28.165000915527344 C90.33300018310547,-10.831999778747559 91.33300018310547,22.834999084472656 84.33300018310547,34.834999084472656 C77.33300018310547,46.834999084472656 57.66699981689453,57.834999084472656 46.66699981689453,61.167999267578125 C52.30799865722656,54.970001220703125 78.5270004272461,38.24700164794922 80.24500274658203,10.22599983215332 C85.75299835205078,-13.984999656677246 79.97200012207031,-39.584999084472656 69.04100036621094,-49.073001861572266 C67.06900024414062,-61.3120002746582 44.64099884033203,-71.44499969482422 44.64099884033203,-71.44499969482422z"></path></g><g opacity="1" transform="matrix(1,0,0,1,247.66700744628906,154.1649932861328)">
     <path stroke-linecap="round" stroke-linejoin="round" fill-opacity="0" stroke="rgb(22,105,140)" stroke-opacity="1" stroke-width="6" d=" M-31.33300018310547,-67.83200073242188 C-14,-72.4990005493164 51.66600036621094,-74.4990005493164 62.999000549316406,-67.83200073242188 C74.33300018310547,-61.165000915527344 87.66600036621094,-45.499000549316406 88.9990005493164,-28.165000915527344 C90.33300018310547,-10.831999778747559 91.33300018310547,22.834999084472656 84.33300018310547,34.834999084472656 C77.33300018310547,46.834999084472656 57.66699981689453,57.834999084472656 46.66699981689453,61.167999267578125 C35.66699981689453,64.5009994506836 -31.22800064086914,74.4990005493164 -62.000999450683594,53.167999267578125 C-91.33399963378906,32.834999084472656 -84.03299713134766,-32.51900100708008 -77.33300018310547,-43.499000549316406 C-64.41600036621094,-64.66500091552734 -31.33300018310547,-67.83200073242188 -31.33300018310547,-67.83200073242188z"></path></g></g><g transform="matrix(1.2109400033950806,0,0,1.2109400033950806,-54.65391540527344,-52.730072021484375)" opacity="1" style="display: block;"><g opacity="1" transform="matrix(1,0,0,1,185.93800354003906,79.18800354003906)">
     <path fill="rgb(61,169,214)" fill-opacity="1" d=" M27.187999725341797,13.187999725341797 C28.562999725341797,3.062999963760376 26.316999435424805,-25.44499969482422 9.87399959564209,-29.392000198364258 C-2.812999963760376,-32.4370002746582 -15.312999725341797,-30.687999725341797 -21.625999450683594,-19.562999725341797 C-27.663000106811523,-8.92199993133545 -28.562999725341797,18.312999725341797 -15.312999725341797,32.4379997253418"></path><path stroke-linecap="round" stroke-linejoin="round" fill-opacity="0" stroke="rgb(23,105,140)" stroke-opacity="1" stroke-width="6" d=" M27.187999725341797,13.187999725341797 C28.562999725341797,3.062999963760376 26.316999435424805,-25.44499969482422 9.87399959564209,-29.392000198364258 C-2.812999963760376,-32.4370002746582 -15.312999725341797,-30.687999725341797 -21.625999450683594,-19.562999725341797 C-27.663000106811523,-8.92199993133545 -28.562999725341797,18.312999725341797 -15.312999725341797,32.4379997253418"></path></g><g opacity="1" transform="matrix(1,0,0,1,184.5260009765625,80.11299896240234)"><path fill="rgb(252,107,182)" fill-opacity="1" d=" M11.970000267028809,7.158999919891357 C10.553000450134277,-2.6740000247955322 10.194999694824219,-20.429000854492188 -1.4149999618530273,-22.0049991607666 C-5.455999851226807,-22.554000854492188 -13.920000076293945,-19.43199920654297 -15.427000045776367,-12.607000350952148 C-17.594999313354492,-2.7860000133514404 -16.89900016784668,14.680999755859375 -8.777999877929688,25.4950008392334"></path></g><g opacity="1" 
     transform="matrix(1,0,0,1,184.5260009765625,80.11299896240234)"><path fill="rgb(212,67,142)" fill-opacity="1" d=" M-6.110816955566406,11.774367332458496 C-8.360459327697754,5.093910217285156 -12.180816650390625,-16.128000259399414 -1.4149999618530273,-22.0049991607666 C-5.455999851226807,-22.554000854492188 -13.920000076293945,-19.43199920654297 -15.427000045776367,-12.607000350952148 C-17.594999313354492,-2.7860000133514404 -16.89900016784668,14.680999755859375 -8.777999877929688,25.4950008392334"></path></g><g opacity="1" transform="matrix(1,0,0,1,184.5260009765625,80.11299896240234)"><path stroke-linecap="round" stroke-linejoin="round" fill-opacity="0" stroke="rgb(23,105,140)" stroke-opacity="1" stroke-width="6" d=" M11.970000267028809,7.158999919891357 C10.553000450134277,-2.6740000247955322 10.194999694824219,-20.429000854492188 -1.4149999618530273,-22.0049991607666 C-5.455999851226807,-22.554000854492188 -13.920000076293945,-19.43199920654297 -15.427000045776367,-12.607000350952148 C-17.594999313354492,-2.7860000133514404 -16.89900016784668,14.680999755859375 -8.777999877929688,25.4950008392334"></path></g><g opacity="1" transform="matrix(1,0,0,1,180.5399932861328,102.91699981689453)"><path fill="rgb(61,169,214)" fill-opacity="1" d=" M20.95599937438965,3.611999988555908 C14.76200008392334,4.85099983215332 6.710999965667725,8.567000389099121 -3.4570000171661377,12.833000183105469 C-17.44300079345703,18.701000213623047 -22.792999267578125,1.6410000324249268 -9.539999961853027,-6.695000171661377 C-3.624000072479248,-10.416999816894531 9.395000457763672,-15.175000190734863 20.108999252319336,-15.789999961853027"></path><path stroke-linecap="round" 
     stroke-linejoin="round" fill-opacity="0" stroke="rgb(23,105,140)" stroke-opacity="1" stroke-width="6" d=" M20.95599937438965,3.611999988555908 C14.76200008392334,4.85099983215332 6.710999965667725,8.567000389099121 -3.4570000171661377,12.833000183105469 C-17.44300079345703,18.701000213623047 -22.792999267578125,1.6410000324249268 -9.539999961853027,-6.695000171661377 C-3.624000072479248,-10.416999816894531 9.395000457763672,-15.175000190734863 20.108999252319336,-15.789999961853027"></path></g></g><g transform="matrix(1.2109400033950806,0,0,1.2109400033950806,-49.92350769042969,-50.000732421875)" opacity="1" style="display: block;"><g opacity="1" transform="matrix(1,0,0,1,247.31300354003906,128.843994140625)"><path fill="rgb(61,169,214)" fill-opacity="1" d=" M-3.803457736968994,-27.513092041015625 C4.517873287200928,-23.313201904296875 11.991000175476074,-16.94700050354004 6.438000202178955,5.906000137329102 C6.623000144958496,16.910999298095703 0.873633861541748,26.112817764282227 -12.389366149902344,26.039817810058594"></path><path stroke-linecap="round" stroke-linejoin="round" fill-opacity="0" stroke="rgb(23,105,140)" stroke-opacity="1" stroke-width="6" d=" M-3.803457736968994,-27.513092041015625 C4.517873287200928,-23.313201904296875 11.991000175476074,-16.94700050354004 6.438000202178955,5.906000137329102 C6.623000144958496,16.910999298095703 0.873633861541748,26.112817764282227 -12.389366149902344,26.039817810058594"></path></g></g><g transform="matrix(1.2109400033950806,0,0,1.2109400033950806,-49.92350769042969,-50.000732421875)" opacity="1" style="display: block;"><g opacity="1" transform="matrix(1,0,0,1,228.54200744628906,127.91699981689453)"><path fill="rgb(255,255,255)" fill-opacity="1" d=" M-30.54199981689453,-1.4170000553131104 C-31.625,9.083000183105469 -20.861000061035156,15.967000007629395 0.125,16.750999450683594 C22.43199920654297,17.583999633789062 30.625,11.25100040435791 31.125,1.2510000467300415 C31.625,-8.74899959564209 11.958000183105469,-17.25 -1.5420000553131104,-17.41699981689453 C-15.041999816894531,-17.583999633789062 -29.354000091552734,-12.932999610900879 -30.54199981689453,-1.4170000553131104z"></path><path stroke-linecap="round" stroke-linejoin="round" fill-opacity="0" stroke="rgb(23,105,140)" stroke-opacity="1" stroke-width="6" d=" M-30.54199981689453,-1.4170000553131104 C-31.625,9.083000183105469 -20.861000061035156,15.967000007629395 0.125,16.750999450683594 C22.43199920654297,17.583999633789062 30.625,11.25100040435791 31.125,1.2510000467300415 C31.625,-8.74899959564209 11.958000183105469,-17.25 -1.5420000553131104,-17.41699981689453 C-15.041999816894531,-17.583999633789062 -29.354000091552734,-12.932999610900879 -30.54199981689453,-1.4170000553131104z"></path></g></g><g transform="matrix(1.1583353281021118,0,0,1.2109400033950806,-35.93373107910156,-49.999725341796875)" opacity="1" style="display: block;"><g opacity="1" transform="matrix(1,0,0,1,329.781005859375,130.718994140625)"><path fill="rgb(61,169,214)" fill-opacity="1" d=" M-13.448391914367676,-26.217723846435547 C-1.8233922719955444,-25.281723022460938 12.330156326293945,-25.48685073852539 11.418999671936035,-10.03499984741211 C10.626667976379395,3.6434106826782227 13.281999588012695,7.0279998779296875 11.437999725341797,13.904999732971191 C9.593999862670898,20.7810001373291 6.085723876953125,25.570449829101562 -1.664276123046875,24.945449829101562"></path><path stroke-linecap="round" stroke-linejoin="round" fill-opacity="0" stroke="rgb(23,105,140)" stroke-opacity="1" stroke-width="6" d=" M-13.448391914367676,-26.217723846435547 C-1.8233922719955444,-25.281723022460938 12.330156326293945,-25.48685073852539 11.418999671936035,-10.03499984741211 C10.626667976379395,3.6434106826782227 13.281999588012695,7.0279998779296875 11.437999725341797,13.904999732971191 C9.593999862670898,20.7810001373291 6.085723876953125,25.570449829101562 -1.664276123046875,24.945449829101562"></path></g></g><g transform="matrix(1.1583353281021118,0,0,1.2109400033950806,-35.93373107910156,-49.999725341796875)" opacity="1" style="display: block;"><g opacity="1" transform="matrix(1,0,0,1,315.76300048828125,131.69400024414062)"><path 
     fill="rgb(255,255,255)" fill-opacity="1" d=" M-32.76300048828125,0.02199999988079071 C-32.553001403808594,8.213000297546387 -23.3700008392334,15.70300006866455 -4.0960001945495605,16.639999389648438 C18.898000717163086,17.756999969482422 33.09600067138672,13.20300006866455 33.06999969482422,1.9730000495910645 C33.03099822998047,-14.723999977111816 8.677000045776367,-17.423999786376953 -4.822999954223633,-17.590999603271484 C-18.322999954223633,-17.756999969482422 -33.09600067138672,-12.977999687194824 -32.76300048828125,0.02199999988079071z"></path><path stroke-linecap="round" stroke-linejoin="round" fill-opacity="0" stroke="rgb(23,105,140)" stroke-opacity="1" stroke-width="6" d=" M-32.76300048828125,0.02199999988079071 C-32.553001403808594,8.213000297546387 -23.3700008392334,15.70300006866455 -4.0960001945495605,16.639999389648438 C18.898000717163086,17.756999969482422 33.09600067138672,13.20300006866455 33.06999969482422,1.9730000495910645 C33.03099822998047,-14.723999977111816 8.677000045776367,-17.423999786376953 -4.822999954223633,-17.590999603271484 C-18.322999954223633,-17.756999969482422 -33.09600067138672,-12.977999687194824 -32.76300048828125,0.02199999988079071z"></path></g></g><g transform="matrix(1.2109400033950806,0,0,1.2109400033950806,-56.86064147949219,-51.0009765625)" opacity="1" style="display: block;"><g opacity="1" transform="matrix(1,0,0,1,227.32200622558594,128.625)"><path fill="rgb(0,0,0)" fill-opacity="1" d=" M10.375,0.2199999988079071 C10.375,5.949999809265137 5.730000019073486,9.625 0,9.625 C-5.730000019073486,9.625 -10.375,5.949999809265137 -10.375,0.2199999988079071 C-10.375,-5.510000228881836 -5.730000019073486,-9.625 0,-9.625 C5.730000019073486,-9.625 10.375,-5.510000228881836 10.375,0.2199999988079071z"></path></g><g opacity="1" transform="matrix(1,0,0,1,230.96600341796875,128.28900146484375)"><path fill="rgb(255,255,255)" fill-opacity="1" d=" M4.172999858856201,0.09300000220537186 C4.172999858856201,2.51200008392334 2.303999900817871,4.064000129699707 0,4.064000129699707 C-2.305000066757202,4.064000129699707 -4.172999858856201,2.51200008392334 -4.172999858856201,0.09300000220537186 C-4.172999858856201,-2.3259999752044678 -2.305000066757202,-4.064000129699707 0,-4.064000129699707 C2.303999900817871,-4.064000129699707 4.172999858856201,-2.3259999752044678 4.172999858856201,0.09300000220537186z"></path></g></g><g transform="matrix(1.2107555866241455,0.021133815869688988,-0.021133815869688988,1.2107555866241455,-82.8797607421875,-55.458343505859375)" opacity="1" style="display: none;"><g opacity="1" transform="matrix(1,0,0,1,228.54200744628906,127.91699981689453)"><path fill="rgb(61,169,214)" fill-opacity="1" d=" M-30.54199981689453,-1.4170000553131104 C-25.264999389648438,-28.304000854492188 29.961000442504883,-17.87700080871582 31.125,1.2510000467300415 C31.625,-8.74899959564209 11.958000183105469,-17.25 -1.5420000553131104,-17.41699981689453 C-15.041999816894531,-17.583999633789062 -29.354000091552734,-12.932999610900879 -30.54199981689453,-1.4170000553131104z"></path><path stroke-linecap="round" stroke-linejoin="round" fill-opacity="0" stroke="rgb(23,105,140)" stroke-opacity="1" stroke-width="6" d=" M-30.54199981689453,-1.4170000553131104 C-25.264999389648438,-28.304000854492188 29.961000442504883,-17.87700080871582 31.125,1.2510000467300415 C31.625,-8.74899959564209 11.958000183105469,-17.25 -1.5420000553131104,-17.41699981689453 C-15.041999816894531,-17.583999633789062 -29.354000091552734,-12.932999610900879 -30.54199981689453,-1.4170000553131104z"></path></g></g><g transform="matrix(1.2109400033950806,0,0,1.2109400033950806,-56.86064147949219,-51.000946044921875)" opacity="1" style="display: block;"><g opacity="1" transform="matrix(1,0,0,1,315.91400146484375,131.2989959716797)"><path fill="rgb(0,0,0)" fill-opacity="1" d=" M10.375,0.21899999678134918 C10.375,5.948999881744385 5.729000091552734,9.625 0,9.625 C-5.730000019073486,9.625 -10.375,5.948999881744385 -10.375,0.21899999678134918 C-10.375,-5.510000228881836 -5.730000019073486,-9.625 0,-9.625 C5.729000091552734,-9.625 10.375,-5.510000228881836 10.375,0.21899999678134918z"></path></g><g opacity="1" transform="matrix(1,0,0,1,319.5580139160156,130.96299743652344)"><path fill="rgb(255,255,255)" fill-opacity="1" d=" M4.172999858856201,0.09200000017881393 C4.172999858856201,2.510999917984009 2.303999900817871,4.064000129699707 0,4.064000129699707 C-2.305000066757202,4.064000129699707 -4.171999931335449,2.510999917984009 -4.171999931335449,0.09200000017881393 C-4.171999931335449,-2.3269999027252197 -2.305000066757202,-4.064000129699707 0,-4.064000129699707 C2.303999900817871,-4.064000129699707 4.172999858856201,-2.3269999027252197 4.172999858856201,0.09200000017881393z"></path></g></g><g transform="matrix(1.2107555866241455,0.021133815869688988,-0.021133815869688988,1.2107555866241455,-87.87886047363281,-55.54459762573242)" opacity="1" style="display: none;"><g opacity="1" transform="matrix(1,0,0,1,315.76300048828125,131.69400024414062)"><path fill="rgb(61,169,214)" fill-opacity="1" d=" M-28.647794723510742,-0.31643420457839966 C-28.769479751586914,-8.312423706054688 -21.76074981689453,-17.573471069335938 -2.4867501258850098,-16.636470794677734 C20.50724983215332,-15.51947021484375 32.54447937011719,-9.692893028259277 33.06999969482422,1.9730000495910645 C33.03099822998047,-14.723999977111816 10.866698265075684,-17.462568283081055 -2.6333017349243164,-17.629568099975586 C-16.133302688598633,-17.795568466186523 -28.98079490661621,-13.316433906555176 -28.647794723510742,-0.31643420457839966z"></path><path stroke-linecap="round" stroke-linejoin="round" fill-opacity="0" stroke="rgb(23,105,140)" stroke-opacity="1" stroke-width="6" d=" M-28.647794723510742,-0.31643420457839966 C-28.769479751586914,-8.312423706054688 -21.76074981689453,-17.573471069335938 -2.4867501258850098,-16.636470794677734 C20.50724983215332,-15.51947021484375 32.54447937011719,-9.692893028259277 33.06999969482422,1.9730000495910645 C33.03099822998047,-14.723999977111816 10.866698265075684,-17.462568283081055 -2.6333017349243164,-17.629568099975586 C-16.133302688598633,-17.795568466186523 -28.98079490661621,-13.316433906555176 -28.647794723510742,-0.31643420457839966z"></path></g></g><g transform="matrix(1.1966938972473145,0,0,1.2109400033950806,-48.98619079589844,-49.999725341796875)" opacity="1" style="display: block;"><g opacity="1" transform="matrix(1,0,0,1,259.90899658203125,180.26699829101562)"><path fill="rgb(252,108,182)" fill-opacity="1" d=" M77.4739990234375,-19.011999130249023 C84.77899932861328,-18.704999923706055 83.21600341796875,-5.26800012588501 76.0260009765625,-4.123000144958496 C82.18499755859375,-2.0209999084472656 79.34100341796875,8.107000350952148 70.88899993896484,10.60200023651123 C53.747982025146484,17.56316566467285 -8.791349411010742,27.28744888305664 -58.37216567993164,5.905110836029053 C-82.78861999511719,-4.618741512298584 -67.28916931152344,-25.629735946655273 -49.33016586303711,-17.24773597717285 C-29.049165725708008,-7.781735420227051 -2.1562206745147705,-8.367166519165039 12.00283432006836,-7.914735317230225 C53.40813446044922,-6.593564510345459 64.3157958984375,-15.305009841918945 77.4739990234375,-19.011999130249023z"></path></g><g opacity="1" transform="matrix(1,0,0,1,259.90899658203125,180.26699829101562)"><path fill="rgb(172,27,102)" fill-opacity="0.5" d=" M77.4739990234375,-19.011999130249023 C84.77899932861328,-18.704999923706055 83.21600341796875,-5.26800012588501 76.0260009765625,-4.123000144958496 C82.18499755859375,-2.0209999084472656 79.34100341796875,8.107000350952148 70.88899993896484,10.60200023651123 C66.88600158691406,12.119999885559082 60.402000427246094,13.852999687194824 52.16899871826172,15.34000015258789 C58.233001708984375,13.590999603271484 61.74300003051758,3.680999994277954 51.89400100708008,3 C59.058998107910156,0.7900000214576721 63.1879997253418,-10.152000427246094 54.91999816894531,-11.630999565124512 C64.30999755859375,-14.22599983215332 70.63300323486328,-17.381000518798828 77.4739990234375,-19.011999130249023z"></path></g><g opacity="1" transform="matrix(1,0,0,1,259.90899658203125,180.26699829101562)"><path stroke-linecap="round" stroke-linejoin="round" fill-opacity="0" stroke="rgb(172,26,101)" stroke-opacity="1" stroke-width="6" d=" M77.4739990234375,-19.011999130249023 C84.77899932861328,-18.704999923706055 83.21600341796875,-5.26800012588501 76.0260009765625,-4.123000144958496 C82.18499755859375,-2.0209999084472656 79.34100341796875,8.107000350952148 70.88899993896484,10.60200023651123 C53.747982025146484,17.56316566467285 -8.791349411010742,27.28744888305664 -58.37216567993164,5.905110836029053 C-82.78861999511719,-4.618741512298584 -67.28916931152344,-25.629735946655273 -49.33016586303711,-17.24773597717285 C-29.049165725708008,-7.781735420227051 -2.1562206745147705,-8.367166519165039 12.00283432006836,-7.914735317230225 C53.40813446044922,-6.593564510345459 64.3157958984375,-15.305009841918945 77.4739990234375,-19.011999130249023z"></path></g><g opacity="1" transform="matrix(1,0,0,1,269.8420104980469,184.75)"><path stroke-linecap="round" 
     stroke-linejoin="round" fill-opacity="0" stroke="rgb(172,26,101)" stroke-opacity="1" stroke-width="6" d=" M-64.1805191040039,-9.14709186553955 C-30.305522918701172,1.3529084920883179 24.031999588012695,9 66.09200286865234,-8.604999542236328"></path></g></g><g transform="matrix(1.1781954765319824,-0.31177499890327454,0.31177499890327454,1.1781954765319824,-165.56434631347656,-18.5751953125)" opacity="1" style="display: block;"><g opacity="1" transform="matrix(1,0,0,1,161.75,400.1669921875)"><path fill="rgb(61,169,214)" fill-opacity="1" d=" M-53.60200119018555,6.5269999504089355 C-47.62300109863281,-10.87399959564209 -35.060001373291016,-14.086999893188477 -22.75,-22.659000396728516 C-10.4399995803833,-31.231000900268555 15.725000381469727,-56.792999267578125 25.249000549316406,-63.66699981689453 C52.08300018310547,-55.83399963378906 47.41600036621094,-27.5 47.41600036621094,-27.5 C4.249000072479248,7 -9.652999877929688,56.49399948120117 -49.435001373291016,52.560001373291016"></path></g><g opacity="1" transform="matrix(1,0,0,1,161.75,400.1669921875)"><path fill="rgb(36,148,194)" fill-opacity="1" d=" M-28.385000228881836,42.35599899291992 C-14.496000289916992,36.941001892089844 2.381999969482422,3.859999895095825 32.4900016784668,-19.211999893188477 C36.202999114990234,-20.70199966430664 37.891998291015625,-18.275999069213867 37.891998291015625,-18.275999069213867 C-5.275000095367432,16.224000930786133 -9.652999877929688,56.49399948120117 -49.435001373291016,52.560001373291016"></path></g><g opacity="1" transform="matrix(1,0,0,1,162.15899658203125,400.2019958496094)"><path stroke-linecap="round" stroke-linejoin="round" fill-opacity="0" stroke="rgb(24,105,141)" stroke-opacity="1" stroke-width="6" d=" M-53.60200119018555,6.5269999504089355 C-47.62300109863281,-10.87399959564209 -35.060001373291016,-14.086999893188477 -22.75,-22.659000396728516 C-10.4399995803833,-31.231000900268555 15.725000381469727,-56.792999267578125 25.249000549316406,-63.66699981689453 C52.08300018310547,-55.83399963378906 47.41600036621094,-27.5 47.41600036621094,-27.5 C4.249000072479248,7 -9.652999877929688,56.49399948120117 -49.435001373291016,52.560001373291016"></path></g></g><g transform="matrix(1.169630527496338,-0.34250977635383606,0.34250977635383606,1.169630527496338,-175.28968811035156,-8.859490394592285)" opacity="1" style="display: block;"><g opacity="1" transform="matrix(1,0,0,1,0,0)"><path fill="rgb(61,169,214)" fill-opacity="1" d=" M198.7689971923828,332.7179870605469 C184.4340057373047,328.1059875488281 171.69200134277344,375.7950134277344 200.61500549316406,380.9230041503906 C220.6199951171875,384.4700012207031 222.35899353027344,340.3080139160156 198.7689971923828,332.7179870605469z"></path></g><g opacity="1" transform="matrix(1,0,0,1,227.57000732421875,337.69500732421875)"><path fill="rgb(61,169,214)" fill-opacity="1" d=" M-40.49300003051758,-1.4259999990463257 C-33.7239990234375,-7.644000053405762 -25.86199951171875,-10.027999877929688 -23.69499969482422,-12.694999694824219 C-21.52899932861328,-15.362000465393066 -17.19499969482422,-24.56999969482422 -18.06999969482422,-31.94499969482422 C-18.6200008392334,-36.57899856567383 -27.361000061035156,-50.49100112915039 -25.069000244140625,-53.36600112915039 C-22.718000411987305,-56.314998626708984 -11.237000465393066,-54.36199951171875 -7.236999988555908,-44.69499969482422 C-3.236999988555908,-35.02799987792969 -4.216000080108643,-24.525999069213867 -3.944999933242798,-19.81999969482422 C-3.236999988555908,-7.5279998779296875 12.468000411987305,-4.935999870300293 18.996000289916992,-2.6019999980926514 C23.05500030517578,1.9299999475479126 27.38800048828125,6.263000011444092 33.76300048828125,13.305000305175781 C38.23699951171875,18.246999740600586 33.76300048828125,24.05500030517578 31.18000030517578,23.38800048828125 C33.18000030517578,25.472000122070312 34.34600067138672,34.38800048828125 27.59600067138672,33.38800048828125 C30.659000396728516,36.07600021362305 30.68000030517578,43.97200012207031 24.93000030517578,44.55500030517578 C26.80500030517578,47.43000030517578 27.492000579833984,53.617000579833984 22.18000030517578,55.05500030517578 C16.742000579833984,56.242000579833984 10.635000228881836,56.31399917602539 5.263000011444092,55.63800048828125 C3.125,55.68199920654297 0.09600000083446503,54.55500030517578 -3.1080000400543213,53.143001556396484 C-9.524999618530273,54.560001373291016 -17.673999786376953,51.25699996948242 -22.56999969482422,46.30500030517578 C-24.801000595092773,44.04899978637695 -28.08300018310547,44.099998474121094 -29.18400001525879,45.05500030517578"></path><path stroke-linecap="round" stroke-linejoin="round" fill-opacity="0" stroke="rgb(24,105,141)" stroke-opacity="1" stroke-width="6" d=" M-40.49300003051758,-1.4259999990463257 C-33.7239990234375,-7.644000053405762 -25.86199951171875,-10.027999877929688 -23.69499969482422,-12.694999694824219 C-21.52899932861328,-15.362000465393066 -17.19499969482422,-24.56999969482422 -18.06999969482422,-31.94499969482422 C-18.6200008392334,-36.57899856567383 -27.361000061035156,-50.49100112915039 -25.069000244140625,-53.36600112915039 C-22.718000411987305,-56.314998626708984 -11.237000465393066,-54.36199951171875 -7.236999988555908,-44.69499969482422 C-3.236999988555908,-35.02799987792969 -4.216000080108643,-24.525999069213867 -3.944999933242798,-19.81999969482422 C-3.236999988555908,-7.5279998779296875 12.468000411987305,-4.935999870300293 18.996000289916992,-2.6019999980926514 C23.05500030517578,1.9299999475479126 27.38800048828125,6.263000011444092 33.76300048828125,13.305000305175781 C38.23699951171875,18.246999740600586 33.76300048828125,24.05500030517578 31.18000030517578,23.38800048828125 C33.18000030517578,25.472000122070312 34.34600067138672,34.38800048828125 27.59600067138672,33.38800048828125 C30.659000396728516,36.07600021362305 30.68000030517578,43.97200012207031 24.93000030517578,44.55500030517578 C26.80500030517578,47.43000030517578 27.492000579833984,53.617000579833984 22.18000030517578,55.05500030517578 C16.742000579833984,56.242000579833984 10.635000228881836,56.31399917602539 5.263000011444092,55.63800048828125 C3.125,55.68199920654297 0.09600000083446503,54.55500030517578 -3.1080000400543213,53.143001556396484 C-9.524999618530273,54.560001373291016 -17.673999786376953,51.25699996948242 -22.56999969482422,46.30500030517578 C-24.801000595092773,44.04899978637695 -28.08300018310547,44.099998474121094 -29.18400001525879,45.05500030517578"></path></g><g opacity="1" transform="matrix(1,0,0,1,249.81300354003906,381.375)"><path fill="rgb(61,169,214)" fill-opacity="1" d=" M-1.2419999837875366,-0.42500001192092896 C-1.2419999837875366,-0.42500001192092896 2.687999963760376,0.875 2.687999963760376,0.875"></path><path stroke-linecap="round" stroke-linejoin="round" fill-opacity="0" stroke="rgb(24,105,141)" stroke-opacity="1" stroke-width="6" d=" M-1.2419999837875366,-0.42500001192092896 C-1.2419999837875366,-0.42500001192092896 2.687999963760376,0.875 2.687999963760376,0.875"></path></g><g opacity="1" transform="matrix(1,0,0,1,251.64599609375,369.5419921875)"><path fill="rgb(61,169,214)" fill-opacity="1" d=" M-1.4739999771118164,-0.6859999895095825 C-1.4739999771118164,-0.6859999895095825 3.5209999084472656,1.5420000553131104 3.5209999084472656,1.5420000553131104"></path><path stroke-linecap="round" stroke-linejoin="round" fill-opacity="0" stroke="rgb(24,105,141)" stroke-opacity="1" stroke-width="6" d=" M-1.4739999771118164,-0.6859999895095825 C-1.4739999771118164,-0.6859999895095825 3.5209999084472656,1.5420000553131104 3.5209999084472656,1.5420000553131104"></path></g><g opacity="1" transform="matrix(1,0,0,1,254.281005859375,356.97900390625)"><path fill="rgb(61,169,214)" fill-opacity="1" d=" M-2.678999900817871,-2.1530001163482666 C-2.678999900817871,-2.1530001163482666 4.468999862670898,4.104000091552734 4.468999862670898,4.104000091552734"></path><path stroke-linecap="round" stroke-linejoin="round" fill-opacity="0" stroke="rgb(24,105,141)" stroke-opacity="1" stroke-width="6" d=" M-2.678999900817871,-2.1530001163482666 C-2.678999900817871,-2.1530001163482666 4.468999862670898,4.104000091552734 4.468999862670898,4.104000091552734"></path></g><g opacity="1" transform="matrix(1,0,0,1,241.16700744628906,364.4200134277344)"><path fill="rgb(61,169,214)" fill-opacity="1" d=" M5.291999816894531,-29.128000259399414 C8.333999633789062,-27.920000076293945 7.809000015258789,-22.70599937438965 7.395999908447266,-20.336999893188477 C6.583000183105469,-15.670000076293945 3.2920000553131104,-16.75 2.6670000553131104,-13.836999893188477 C2.375,-11.420000076293945 5.693999767303467,-8.885000228881836 5.372000217437744,-4.793000221252441 C4.915999889373779,0.996999979019165 1.5,-0.09200000017881393 0.9169999957084656,2.3299999237060547 C0.5,4.163000106811523 3.572000026702881,5.2820000648498535 2.749000072479248,10.496999740600586 C1.9989999532699585,15.246999740600586 -1.0829999446868896,13.996999740600586 -1.8329999446868896,16.329999923706055 C-2.5829999446868896,18.329999923706055 0.3409999907016754,21.38800048828125 -0.3499999940395355,24.250999450683594 C-1.3339999914169312,28.329999923706055 -2.5409998893737793,29.152999877929688 -6.679999828338623,28.937999725341797"></path><path stroke-linecap="round" stroke-linejoin="round" fill-opacity="0" stroke="rgb(24,105,141)" stroke-opacity="1" stroke-width="6" d=" M5.291999816894531,-29.128000259399414 C8.333999633789062,-27.920000076293945 7.809000015258789,-22.70599937438965 7.395999908447266,-20.336999893188477 C6.583000183105469,-15.670000076293945 3.2920000553131104,-16.75 2.6670000553131104,-13.836999893188477 C2.375,-11.420000076293945 5.693999767303467,-8.885000228881836 5.372000217437744,-4.793000221252441 C4.915999889373779,0.996999979019165 1.5,-0.09200000017881393 0.9169999957084656,2.3299999237060547 C0.5,4.163000106811523 3.572000026702881,5.2820000648498535 2.749000072479248,10.496999740600586 C1.9989999532699585,15.246999740600586 -1.0829999446868896,13.996999740600586 -1.8329999446868896,16.329999923706055 C-2.5829999446868896,18.329999923706055 0.3409999907016754,21.38800048828125 -0.3499999940395355,24.250999450683594 C-1.3339999914169312,28.329999923706055 -2.5409998893737793,29.152999877929688 -6.679999828338623,28.937999725341797"></path></g></g><g transform="matrix(1.2187269926071167,-0.007281249389052391,0.007281249389052391,1.2187269926071167,-65.62770080566406,-31.125200271606445)" opacity="1" style="display: block;"><g opacity="1" transform="matrix(1,0,0,1,358.2799987792969,335.875)"><path fill="rgb(61,169,214)" fill-opacity="1" d=" M-43.9630012512207,-21.30699920654297 C-31.46299934387207,-14.59000015258789 -18.767000198364258,-2.4690001010894775 -6.994999885559082,17.648000717163086 C10.880999565124512,48.19599914550781 26.25,53.948001861572266 39.720001220703125,55.125 C42.90800094604492,55.40299987792969 50.46900177001953,59.875 57.5099983215332,56.45399856567383 C59.979000091552734,55.255001068115234 58.84199905395508,48.875 58.34199905395508,41.375 C57.84199905395508,33.875 61.459999084472656,21.80699920654297 44.89899826049805,0.
     07999999821186066 C26.89900016784668,-23.535999298095703 -5.809999942779541,-38.14400100708008 -25.608999252319336,-53.34000015258789 C-40.9630012512207,-53.34000015258789 -51.4630012512207,-36.70399856567383 -43.9630012512207,-21.30699920654297z"></path></g><g opacity="1" transform="matrix(1,0,0,1,358.2799987792969,335.875)"><path stroke-linecap="round" stroke-linejoin="round" fill-opacity="0" stroke="rgb(24,105,141)" stroke-opacity="1" stroke-width="6" d=" M58.56999969482422,44.35100173950195 C58.48899841308594,43.387001037597656 58.40999984741211,42.39099884033203 58.34199905395508,41.375 C57.84199905395508,33.875 61.459999084472656,21.80699920654297 44.89899826049805,0.07999999821186066 C26.89900016784668,-23.535999298095703 -5.809999942779541,-38.14400100708008 -25.608999252319336,-53.34000015258789 C-40.9630012512207,-53.34000015258789 -51.4630012512207,-36.70399856567383 -43.9630012512207,-21.30699920654297 C-43.9630012512207,-21.30699920654297 -43.9630012512207,-21.30699920654297 -43.9630012512207,-21.30699920654297 C-31.46299934387207,-14.59000015258789 -18.767000198364258,-2.4690001010894775 -6.994999885559082,17.648000717163086 C10.880999565124512,48.19599914550781 26.25,53.948001861572266 39.720001220703125,55.125 C42.90800094604492,55.40299987792969 50.46900177001953,59.875 57.5099983215332,56.45399856567383 C59.64500045776367,55.41699981689453 59.08399963378906,50.50899887084961 58.56999969482422,44.35100173950195"></path></g></g><g transform="matrix(1.2073301076889038,0.16644062101840973,-0.16644062101840973,1.2073301076889038,19.82651138305664,-61.1728630065918)" opacity="1" style="display: block;"><g opacity="1" transform="matrix(1,0,0,1,0,0)"><path fill="rgb(61,169,214)" fill-opacity="1" d=" M305.4360046386719,265.84600830078125 C263.7950134277344,246.9739990234375 272.6159973144531,307.2820129394531 309.7439880371094,308.9230041503906 C325.4179992675781,309.6159973144531 329.0249938964844,287.3840026855469 328.614990234375,282.0509948730469 C328.2049865722656,276.7179870605469 318.7590026855469,271.8840026855469 305.4360046386719,265.84600830078125z"></path></g><g opacity="1" transform="matrix(1,0,0,1,304.48699951171875,247.16700744628906)"><path fill="rgb(61,169,214)" fill-opacity="1" d=" M24.724000930786133,34.33300018310547 C15.180000305175781,17.33300018310547 -4.988999843597412,8.833000183105469 -7.988999843597412,-10.333000183105469 C-9.710000038146973,-21.325000762939453 -6.3379998207092285,-29.69300079345703 -11.987000465393066,-32.999000549316406 C-15.220000267028809,-34.89099884033203 -21.047000885009766,-34.018001556396484 -22.98699951171875,-18.66699981689453 C-24.722999572753906,-4.925000190734863 -17.15399932861328,-6.083000183105469 -19.31999969482422,12.041999816894531"></path><path stroke-linecap="round" stroke-linejoin="round" fill-opacity="0" stroke="rgb(24,105,141)" stroke-opacity="1" stroke-width="6" d=" M24.724000930786133,34.33300018310547 C15.180000305175781,17.33300018310547 -4.988999843597412,8.833000183105469 -7.988999843597412,-10.333000183105469 C-9.710000038146973,-21.325000762939453 -6.3379998207092285,-29.69300079345703 -11.987000465393066,-32.999000549316406 C-15.220000267028809,-34.89099884033203 -21.047000885009766,-34.018001556396484 -22.98699951171875,-18.66699981689453 C-24.722999572753906,-4.925000190734863 -17.15399932861328,-6.083000183105469 -19.31999969482422,12.041999816894531"></path></g><g opacity="1" transform="matrix(1,0,0,1,278.6669921875,292.6669921875)"><path fill="rgb(61,169,214)" fill-opacity="1" d=" M13.333000183105469,-33.33399963378906 C5.165999889373779,-33.5 -5.834000110626221,-33.5 -12.166999816894531,-33.33399963378906 C-15.729000091552734,-33.04199981689453 -30.833999633789062,-19.66699981689453 -30.833999633789062,-19.66699981689453 C-33.83399963378906,-14.166999816894531 -31.07200050354004,-12.5 -29.785999298095703,-10.5 C-34.66699981689453,-3 -29.833999633789062,3 -27.5,4 C-31.16699981689453,10 -27.333999633789062,17.166000366210938 -21.5,17.166000366210938 C-22.5,23.5 -21.333999633789062,26 -16.5,27.5 C-10.333999633789062,28.83300018310547 -8,28.5 -6.666999816894531,28.33300018310547 C-5,29.83300018310547 20.666000366210938,33.5 34.66600036621094,15.5"></path><path stroke-linecap="round" stroke-linejoin="round" fill-opacity="0" stroke="rgb(24,105,141)" stroke-opacity="1" stroke-width="6" d=" M13.333000183105469,-33.33399963378906 C5.165999889373779,-33.5 -5.834000110626221,-33.5 -12.166999816894531,-33.33399963378906 C-15.729000091552734,-33.04199981689453 -30.833999633789062,-19.66699981689453 -30.833999633789062,-19.66699981689453 C-33.83399963378906,-14.166999816894531 -31.07200050354004,-12.5 -29.785999298095703,-10.5 C-34.66699981689453,-3 -29.833999633789062,3 -27.5,4 C-31.16699981689453,10 -27.333999633789062,17.166000366210938 -21.5,17.166000366210938 C-22.5,23.5 -21.333999633789062,26 -16.5,27.5 C-10.333999633789062,28.83300018310547 -8,28.5 -6.666999816894531,28.33300018310547 C-5,29.83300018310547 20.666000366210938,33.5 34.66600036621094,15.5"></path></g><g opacity="1" transform="matrix(1,0,0,1,255.35699462890625,281)"><path fill="rgb(61,169,214)" fill-opacity="1" d=" M6.47599983215332,-1.1670000553131104 C6.47599983215332,-1.1670000553131104 -6.47599983215332,1.1670000553131104 -6.47599983215332,1.1670000553131104"></path><path stroke-linecap="round" stroke-linejoin="round" fill-opacity="0" stroke="rgb(24,105,141)" stroke-opacity="1" stroke-width="6" d=" M6.47599983215332,-1.1670000553131104 C6.47599983215332,-1.1670000553131104 -6.47599983215332,1.1670000553131104 -6.47599983215332,1.1670000553131104"></path></g><g opacity="1" transform="matrix(1,0,0,1,257.2019958496094,295.75)"><path fill="rgb(61,169,214)" fill-opacity="1" d=" M6.035999774932861,-0.9169999957084656 C6.035999774932861,-0.9169999957084656 -6.034999847412109,0.9169999957084656 -6.034999847412109,0.9169999957084656"></path><path stroke-linecap="round" stroke-linejoin="round" fill-opacity="0" stroke="rgb(24,105,141)" stroke-opacity="1" stroke-width="6" d=" M6.035999774932861,-0.9169999957084656 C6.035999774932861,-0.9169999957084656 -6.034999847412109,0.9169999957084656 -6.034999847412109,0.9169999957084656"></path></g><g opacity="1" transform="matrix(1,0,0,1,261.6669921875,309.4169921875)"><path fill="rgb(61,169,214)" fill-opacity="1" d=" M4.5,-0.4169999957084656 C4.5,-0.4169999957084656 -4.5,0.4169999957084656 -4.5,0.4169999957084656"></path><path stroke-linecap="round" stroke-linejoin="round" fill-opacity="0" stroke="rgb(24,105,141)" stroke-opacity="1" stroke-width="6" d=" M4.5,-0.4169999957084656 C4.5,-0.4169999957084656 -4.5,0.4169999957084656 -4.5,0.4169999957084656"></path></g><g opacity="1" transform="matrix(1,0,0,1,266.47900390625,279.031005859375)"><path fill="rgb(61,169,214)" fill-opacity="1" d=" M4.645999908447266,-1.406000018119812 C2.0209999084472656,-1.781000018119812 -6.164999961853027,-1.0420000553131104 -3.61899995803833,7.203999996185303"></path><path stroke-linecap="round" stroke-linejoin="round" fill-opacity="0" stroke="rgb(24,105,141)" stroke-opacity="1" stroke-width="6" d=" M4.645999908447266,-1.406000018119812 C2.0209999084472656,-1.781000018119812 -6.164999961853027,-1.0420000553131104 -3.61899995803833,7.203999996185303"></path></g><g opacity="1" transform="matrix(1,0,0,1,268.593994140625,294.18798828125)"><path fill="rgb(61,169,214)" fill-opacity="1" d=" M4.781000137329102,-1.437999963760376 C2.7809998989105225,-1.812999963760376 -5.525000095367432,-1.1670000553131104 -4.0269999504089355,4.9079999923706055"></path><path stroke-linecap="round" stroke-linejoin="round" fill-opacity="0" stroke="rgb(24,105,141)" stroke-opacity="1" stroke-width="6" d=" M4.781000137329102,-1.437999963760376 C2.7809998989105225,-1.812999963760376 -5.525000095367432,-1.1670000553131104 -4.0269999504089355,4.9079999923706055"></path></g><g opacity="1" transform="matrix(1,0,0,1,271.197998046875,307.656005859375)"><path fill="rgb(61,169,214)" fill-opacity="1" d=" M-4.706999778747559,-1.9229999780654907 C-2.749000072479248,1.7039999961853027 0.9269999861717224,1.281999945640564 4.802000045776367,-0.4690000116825104"></path><path stroke-linecap="round" stroke-linejoin="round" fill-opacity="0" stroke="rgb(24,105,141)" stroke-opacity="1" stroke-width="6" d=" M-4.706999778747559,-1.9229999780654907 C-2.749000072479248,1.7039999961853027 0.9269999861717224,1.281999945640564 4.802000045776367,-0.4690000116825104"></path></g><g opacity="1" transform="matrix(1,0,0,1,272.843994140625,318.843994140625)"><path fill="rgb(61,169,214)" fill-opacity="1" d=" M-4.111999988555908,-4.466000080108643 C-3.135999917984009,0.6060000061988831 0.4339999854564667,1.9539999961853027 3.1559998989105225,1.281000018119812"></path><path stroke-linecap="round" stroke-linejoin="round" fill-opacity="0" stroke="rgb(24,105,141)" stroke-opacity="1" stroke-width="6" d=" M-4.111999988555908,-4.466000080108643 C-3.135999917984009,0.6060000061988831 0.4339999854564667,1.9539999961853027 3.1559998989105225,1.281000018119812"></path></g><g opacity="1" transform="matrix(1,0,0,1,263.25,263.35400390625)"><path fill="rgb(61,169,214)" fill-opacity="1" d=" M-1.6230000257492065,8.524999618530273 C-4.8420000076293945,2.056999921798706 -0.29600000381469727,-4.056000232696533 3.25,-4.020999908447266"></path><path stroke-linecap="round" stroke-linejoin="round" fill-opacity="0" stroke="rgb(24,105,141)" stroke-opacity="1" stroke-width="6" d=" M-1.6230000257492065,8.524999618530273 C-4.8420000076293945,2.056999921798706 -0.29600000381469727,-4.056000232696533 3.25,-4.020999908447266"></path></g></g></g></svg>