<svg xmlns="http://www.w3.org/2000/svg" xmlns:xlink="http://www.w3.org/1999/xlink" viewBox="0 0 512 512" width="512" height="512" preserveAspectRatio="xMidYMid meet" style="width: 100%; height: 100%; transform: translate3d(0px, 0px, 0px); content-visibility: visible;"><defs><clipPath id="__lottie_element_2"><rect width="512" height="512" x="0" y="0"></rect></clipPath></defs><g clip-path="url(#__lottie_element_2)"><g transform="matrix(1.2234455347061157,0,0,1.2234455347061157,-57.20204544067383,-94.3220443725586)" opacity="1" style="display: block;"><g opacity="1" transform="matrix(1,0,0,1,255.74400329589844,291.6619873046875)"><path fill="rgb(61,169,214)" fill-opacity="1" d=" M-128.1790008544922,-62.16400146484375 C-143.6479949951172,-23.56399917602539 -143.30499267578125,11.196999549865723 -137.1020050048828,34.34299850463867 C-131.74400329589844,54.3380012512207 -99.35800170898438,98.80899810791016 -88.697998046875,109.13899993896484 C-54.1349983215332,140.0749969482422 47.15299987792969,146.3509979248047 89.35399627685547,104.86399841308594 C102.10199737548828,90.19200134277344 128.27099609375,56.32600021362305 136.2239990234375,30.95800018310547 C144.25599670410156,5.3379998207092285 141.46200561523438,-25.44099998474121 131.447998046875,-52.987998962402344 C109.75499725341797,-112.66200256347656 60.75600051879883,-123.16200256347656 -3.5269999504089355,-123.31700134277344 C-57.35100173950195,-123.4469985961914 -108.74400329589844,-110.66200256347656 -128.1790008544922,-62.16400146484375z"></path></g><g opacity="1" transform="matrix(1,0,0,1,255.74400329589844,291.6619873046875)"><path fill="rgb(26,140,187)" fill-opacity="1" d=" M60.3380012512207,123.26399993896484 C71.5250015258789,118.6969985961914 81.47100067138672,112.61399841308594 89.35399627685547,104.86399841308594 C102.10199737548828,90.19200134277344 128.27099609375,56.32600021362305 136.2239990234375,30.95800018310547 C144.25599670410156,5.3379998207092285 135.96499633789062,-33.45399856567383 131.947998046875,-62.487998962402344 C129.14700317382812,-82.73600006103516 122.20500183105469,-97.87300109863281 112.2770004272461,-109.18099975585938 C119.25499725341797,-5.6620001792907715 121.25599670410156,35.3380012512207 60.3380012512207,123.26399993896484z"></path></g><g opacity="1" transform="matrix(1,0,0,1,255.74400329589844,291.6619873046875)"><path stroke-linecap="round" stroke-linejoin="miter" fill-opacity="0" stroke-miterlimit="10" stroke="rgb(23,105,140)" stroke-opacity="1" stroke-width="6" d=" M-128.1790008544922,-62.16400146484375 C-142.73399353027344,-23.211000442504883 -143.30499267578125,11.196999549865723 -137.1020050048828,34.34299850463867 C-131.74400329589844,54.3380012512207 -99.35800170898438,98.80899810791016 -88.697998046875,109.13899993896484 C-54.1349983215332,140.0749969482422 47.15299987792969,146.3509979248047 89.35399627685547,104.86399841308594 C102.10199737548828,90.19200134277344 128.27099609375,56.32600021362305 136.2239990234375,30.95800018310547 C144.25599670410156,5.3379998207092285 140.20399475097656,-27.177000045776367 130.94900512695312,-54.987998962402344 C111.75599670410156,-112.66200256347656 60.75600051879883,-123.16200256347656 -3.5269999504089355,-123.31700134277344 C-57.35100173950195,-123.4469985961914 -110.24400329589844,-110.16200256347656 -128.1790008544922,-62.16400146484375z"></path></g></g><g transform="matrix(1.2149227857589722,0.14415684342384338,-0.14415684342384338,1.2149227857589722,-28.572404861450195,-86.36453247070312)" opacity="1" style="display: block;"><g opacity="1" transform="matrix(1,0,0,1,118.23500061035156,144.23399353027344)"><path fill="rgb(61,169,214)" fill-opacity="1" d=" M52.525001525878906,22.187999725341797 C41.263999938964844,-15.234000205993652 11.263999938964844,-64.23400115966797 -25.65399932861328,-43.8489990234375 C-60.750999450683594,-24.4689998626709 -34.736000061035156,38.76599884033203 4.438000202178955,66.78099822998047"></path></g><g opacity="1" transform="matrix(1,0,0,1,118.23500061035156,144.23399353027344)"><path stroke-linecap="round" stroke-linejoin="miter" fill-opacity="0" stroke-miterlimit="10" stroke="rgb(23,105,140)" stroke-opacity="1" stroke-width="6" d=" M52.525001525878906,22.187999725341797 C41.263999938964844,-15.234000205993652 11.263999938964844,-64.23400115966797 -25.65399932861328,-43.8489990234375 C-60.750999450683594,-24.4689998626709 -34.736000061035156,38.76599884033203 4.438000202178955,66.78099822998047"></path></g><g opacity="1" transform="matrix(1,0,0,1,106.447998046875,152.6409912109375)"><path fill="rgb(212,67,142)" fill-opacity="1" d=" M27.874000549316406,9.244000434875488 C25.51099967956543,-4.986999988555908 5.482999801635742,-43.395999908447266 -14.869000434875488,-29.798999786376953 C-29.698999404907227,-19.891000747680664 -7.823999881744385,20.233999252319336 2.6659998893737793,30.673999786376953"></path><path stroke-linecap="round" stroke-linejoin="miter" fill-opacity="0" stroke-miterlimit="10" stroke="rgb(23,105,140)" stroke-opacity="1" stroke-width="6" d=" M27.874000549316406,9.244000434875488 C25.51099967956543,-4.986999988555908 5.482999801635742,-43.395999908447266 -14.869000434875488,-29.798999786376953 C-29.698999404907227,-19.891000747680664 -7.823999881744385,20.233999252319336 2.6659998893737793,30.673999786376953"></path></g><g opacity="1" transform="matrix(1,0,0,1,0,0)"><path fill="rgb(61,169,214)" fill-opacity="1" d=" M140.02699279785156,161.5260009765625 C126.53700256347656,165.7270050048828 109.29900360107422,186.6750030517578 109.70700073242188,199.67799377441406 C110.11499786376953,212.68099975585938 133.25799560546875,213.4969940185547 143.74099731445312,194.9709930419922 C154.2239990234375,176.44500732421875 153.51699829101562,157.3249969482422 140.02699279785156,161.5260009765625z"></path></g><g opacity="1" transform="matrix(1,0,0,1,120.40599822998047,192.75399780273438)"><path fill="rgb(61,169,214)" fill-opacity="1" d=" M15.029000282287598,22.034000396728516 C3.2249999046325684,30.22599983215332 -10.38599967956543,25.05699920654297 -13.73799991607666,14.342000007629395 C-19.23200035095215,-3.187000036239624 5.685999870300293,-25.91200065612793 21.493999481201172,-29.95800018310547"></path><path stroke-linecap="round" stroke-linejoin="miter" fill-opacity="0" stroke-miterlimit="10" stroke="rgb(23,105,140)" stroke-opacity="1" stroke-width="6" d=" M15.029000282287598,22.034000396728516 C3.2249999046325684,30.22599983215332 -10.38599967956543,25.05699920654297 -13.73799991607666,14.342000007629395 C-19.23200035095215,-3.187000036239624 5.685999870300293,-25.91200065612793 21.493999481201172,-29.95800018310547"></path></g></g><g transform="matrix(-1.2149227857589722,0.14415684342384338,0.14415684342384338,1.2149227857589722,536.9020385742188,-88.81140899658203)" opacity="1" style="display: block;"><g opacity="1" transform="matrix(1,0,0,1,118.23500061035156,144.23399353027344)"><path fill="rgb(61,169,214)" fill-opacity="1" d=" M52.525001525878906,22.187999725341797 C41.263999938964844,-15.234000205993652 11.263999938964844,-64.23400115966797 -25.65399932861328,-43.8489990234375 C-60.750999450683594,-24.4689998626709 -34.736000061035156,38.76599884033203 4.438000202178955,66.78099822998047"></path></g><g opacity="1" transform="matrix(1,0,0,1,118.23500061035156,144.23399353027344)"><path fill="rgb(26,140,187)" fill-opacity="1" d=" M-25.65399932861328,-43.8489990234375 C-60.750999450683594,-24.4689998626709 -34.736000061035156,38.76599884033203 4.438000202178955,66.78099822998047 C4.438000202178955,66.78099822998047 -18.975000381469727,-24.062000274658203 -18.975000381469727,-24.062000274658203 C-27.236000061035156,-25.733999252319336 -33.736000061035156,-34.73400115966797 -25.65399932861328,-43.8489990234375z"></path></g><g opacity="1" transform="matrix(1,0,0,1,118.23500061035156,144.23399353027344)"><path stroke-linecap="round" stroke-linejoin="miter" fill-opacity="0" stroke-miterlimit="10" stroke="rgb(23,105,140)" stroke-opacity="1" stroke-width="6" d=" M52.525001525878906,22.187999725341797 C41.263999938964844,-15.234000205993652 11.263999938964844,-64.23400115966797 -25.65399932861328,-43.8489990234375 C-60.750999450683594,-24.4689998626709 -34.736000061035156,38.76599884033203 4.438000202178955,66.78099822998047"></path></g><g opacity="1" transform="matrix(1,0,0,1,106.447998046875,152.6409912109375)"><path fill="rgb(212,67,142)" fill-opacity="1" d=" M27.874000549316406,9.244000434875488 C25.51099967956543,-4.986999988555908 5.482999801635742,-43.395999908447266 -14.869000434875488,-29.798999786376953 C-29.698999404907227,-19.891000747680664 -7.823999881744385,20.233999252319336 2.6659998893737793,30.673999786376953"></path><path stroke-linecap="round" stroke-linejoin="miter" fill-opacity="0" stroke-miterlimit="10" stroke="rgb(23,105,140)" stroke-opacity="1" stroke-width="6" d=" M27.874000549316406,9.244000434875488 C25.51099967956543,-4.986999988555908 5.482999801635742,-43.395999908447266 -14.869000434875488,-29.798999786376953 C-29.698999404907227,-19.891000747680664 -7.823999881744385,20.233999252319336 2.6659998893737793,30.673999786376953"></path></g><g opacity="1" transform="matrix(1,0,0,1,120.40599822998047,192.75399780273438)"><path fill="rgb(61,169,214)" fill-opacity="1" d=" M19.231000900268555,-29.89299964904785 C6.334000110626221,-26.30500030517578 -19.23200035095215,-3.187000036239624 -13.73799991607666,14.342000007629395 C-10.38599967956543,25.05699920654297 2.193000078201294,29.239999771118164 12.081999778747559,25.22800064086914 C40.5359992980957,6.599999904632568 43.361000061035156,-34.36600112915039 19.231000900268555,-29.89299964904785z"></path></g><g opacity="1" transform="matrix(1,0,0,1,120.40599822998047,192.75399780273438)"><path fill="rgb(26,140,187)" fill-opacity="1" d=" M19.231000900268555,-29.89299964904785 C6.334000110626221,-26.30500030517578 -19.23200035095215,-3.187000036239624 -13.73799991607666,14.342000007629395 C-10.38599967956543,25.05699920654297 2.86899995803833,32.22100067138672 13.951000213623047,23.038999557495117 C-5.908999919891357,10.807000160217285 -11.196000099182129,-10.36400032043457 19.231000900268555,-29.89299964904785z"></path></g><g opacity="1" transform="matrix(1,0,0,1,120.40599822998047,192.75399780273438)"><path stroke-linecap="round" stroke-linejoin="miter" fill-opacity="0" stroke-miterlimit="10" stroke="rgb(23,105,140)" stroke-opacity="1" stroke-width="6" d=" M10.00100040435791,25.770000457763672 C-0.6039999723434448,29.892000198364258 -10.38599967956543,25.05699920654297 -13.73799991607666,14.342000007629395 C-19.23200035095215,-3.187000036239624 4.889999866485596,-24.947999954223633 19.231000900268555,-29.89299964904785"></path></g></g><g transform="matrix(1.2234455347061157,0,0,1.2234455347061157,-57.20204544067383,-72.05317687988281)" opacity="1" style="display: block;"><g opacity="1" transform="matrix(1,0,0,1,189.58599853515625,246.38400268554688)"><path fill="rgb(255,255,255)" fill-opacity="1" d=" M0.7149999737739563,-29.562999725341797 C28.68400001525879,-29.562999725341797 51.59700012207031,-17.63800048828125 51.59700012207031,-0.21899999678134918 C51.59700012207031,17.198999404907227 37.145999908447266,28.628999710083008 1.9229999780654907,29.12299919128418 C-33.29899978637695,29.562999725341797 -51.59700012207031,21.266000747680664 -51.37699890136719,-1.2079999446868896 C-51.21200180053711,-22.30900001525879 -27.253999710083008,-29.562999725341797 0.7149999737739563,-29.562999725341797z"></path><path stroke-linecap="round" stroke-linejoin="miter" fill-opacity="0" stroke-miterlimit="10" stroke="rgb(23,105,140)" stroke-opacity="1" stroke-width="6" d=" M0.7149999737739563,-29.562999725341797 C28.68400001525879,-29.562999725341797 51.59700012207031,-17.63800048828125 51.59700012207031,-0.21899999678134918 C51.59700012207031,17.198999404907227 37.145999908447266,28.628999710083008 1.9229999780654907,29.12299919128418 C-33.29899978637695,29.562999725341797 -51.59700012207031,21.266000747680664 -51.37699890136719,-1.2079999446868896 C-51.21200180053711,-22.30900001525879 -27.253999710083008,-29.562999725341797 0.7149999737739563,-29.562999725341797z"></path></g></g><g transform="matrix(1.2234455347061157,0,0,1.2234455347061157,-57.20204544067383,-72.05317687988281)" opacity="1" style="display: block;"><g opacity="1" transform="matrix(1,0,0,1,191.7570037841797,248.44500732421875)"><path fill="rgb(0,0,0)" fill-opacity="1" d=" M0.02800000086426735,19.259000778198242 C13.489999771118164,19.259000778198242 24.479999542236328,10.631999969482422 24.479999542236328,0.027000000700354576 C24.479999542236328,-10.57800006866455 13.489999771118164,-19.259000778198242 0.02800000086426735,-19.259000778198242 C-13.48900032043457,-19.259000778198242 -24.479000091552734,-10.57800006866455 -24.479000091552734,0.027000000700354576 C-24.479000091552734,10.631999969482422 -13.48900032043457,19.259000778198242 0.02800000086426735,19.259000778198242z"></path></g><g opacity="1" transform="matrix(1,0,0,1,202.681396484375,250.81613159179688)"><path fill="rgb(255,255,255)" fill-opacity="1" d=" M7.118000030517578,-1.4700000286102295 C10.6899995803833,0.34299999475479126 7.605000019073486,3.421999931335449 4.8420000076293945,5.888000011444092 C1.156999945640564,9.177000045776367 -2.1619999408721924,10.015999794006348 -4.48799991607666,8.23900032043457 C-7.631999969482422,5.8379998207092285 -11.300000190734863,-0.07800000160932541 -6.672999858856201,-1.8040000200271606 C-3.993000030517578,-2.803999900817871 -2.822999954223633,0.9269999861717224 -0.07800000160932541,0.7730000019073486 C2.9570000171661377,0.6019999980926514 5.270999908447266,-2.4509999752044678 7.118000030517578,-1.4700000286102295z"></path></g></g><g transform="matrix(1.2234455347061157,0,0,1.2234455347061157,-57.20204544067383,-72.05317687988281)" opacity="1" style="display: block;"><g opacity="1" transform="matrix(1,0,0,1,188.70700073242188,226.54800415039062)"><path fill="rgb(61,169,214)" fill-opacity="1" d=" M0.16500000655651093,-20.826000213623047 C28.518999099731445,-21.320999145507812 56.81700134277344,-7.0329999923706055 57.97100067138672,21.320999145507812 C57.97100067138672,21.320999145507812 -56.48699951171875,19.836999893188477 -56.48699951171875,19.836999893188477 C-57.97100067138672,-6.757999897003174 -29.781999588012695,-20.33099937438965 0.16500000655651093,-20.826000213623047z"></path></g><g opacity="0" transform="matrix(1,0,0,1,0,0)"><path fill="rgb(61,169,214)" fill-opacity="1" d=" M225.6719970703125,269.8970031738281 C217.75,276.3609924316406 171.625,278.1109924316406 151.52200317382812,269.97601318359375 C164.625,275.1109924316406 176.375,275.6099853515625 191.0050048828125,275.3420104980469 C212.4459991455078,274.9490051269531 218.125,274.2359924316406 225.6719970703125,269.8970031738281z"></path><path stroke-linecap="round" stroke-linejoin="round" fill-opacity="0" stroke="rgb(23,105,140)" stroke-opacity="1" stroke-width="6" d=" M225.6719970703125,269.8970031738281 C217.75,276.3609924316406 171.625,278.1109924316406 151.52200317382812,269.97601318359375 C164.625,275.1109924316406 176.375,275.6099853515625 191.0050048828125,275.3420104980469 C212.4459991455078,274.9490051269531 218.125,274.2359924316406 225.6719970703125,269.8970031738281z"></path></g><g opacity="1" transform="matrix(1,0,0,1,188.70700073242188,226.54800415039062)"><path stroke-linecap="round" stroke-linejoin="round" fill-opacity="0" stroke="rgb(23,105,140)" stroke-opacity="1" stroke-width="6" d=" M53.775001525878906,5.073999881744385 C56.23699951171875,9.842000007629395 57.7239990234375,15.260000228881836 57.97100067138672,21.320999145507812 C57.97100067138672,21.320999145507812 -56.48699951171875,19.836999893188477 -56.48699951171875,19.836999893188477 C-57.30400085449219,5.189000129699707 -49.119998931884766,-5.508999824523926 -36.597999572753906,-12.246999740600586"></path></g></g><g transform="matrix(-1.2234455347061157,0,0,1.2234455347061157,569.2020263671875,-72.05317687988281)" opacity="1" style="display: block;"><g opacity="1" transform="matrix(1,0,0,1,189.58599853515625,246.38400268554688)"><path fill="rgb(255,255,255)" fill-opacity="1" d=" M0.7149999737739563,-29.562999725341797 C28.68400001525879,-29.562999725341797 51.59700012207031,-17.63800048828125 51.59700012207031,-0.21899999678134918 C51.59700012207031,17.198999404907227 37.145999908447266,28.628999710083008 1.9229999780654907,29.12299919128418 C-33.29899978637695,29.562999725341797 -51.59700012207031,21.266000747680664 -51.37699890136719,-1.2079999446868896 C-51.21200180053711,-22.30900001525879 -27.253999710083008,-29.562999725341797 0.7149999737739563,-29.562999725341797z"></path><path stroke-linecap="round" stroke-linejoin="miter" fill-opacity="0" stroke-miterlimit="10" stroke="rgb(23,105,140)" stroke-opacity="1" stroke-width="6" d=" M0.7149999737739563,-29.562999725341797 C28.68400001525879,-29.562999725341797 51.59700012207031,-17.63800048828125 51.59700012207031,-0.21899999678134918 C51.59700012207031,17.198999404907227 37.145999908447266,28.628999710083008 1.9229999780654907,29.12299919128418 C-33.29899978637695,29.562999725341797 -51.59700012207031,21.266000747680664 -51.37699890136719,-1.2079999446868896 C-51.21200180053711,-22.30900001525879 -27.253999710083008,-29.562999725341797 0.7149999737739563,-29.562999725341797z"></path></g></g><g transform="matrix(-1.2234455347061157,0,0,1.2234455347061157,569.2020263671875,-72.05317687988281)" opacity="1" style="display: block;"><g opacity="1" transform="matrix(1,0,0,1,191.7570037841797,248.44500732421875)"><path fill="rgb(0,0,0)" fill-opacity="1" d=" M0.02800000086426735,19.259000778198242 C13.489999771118164,19.259000778198242 24.479999542236328,10.631999969482422 24.479999542236328,0.027000000700354576 C24.479999542236328,-10.57800006866455 13.489999771118164,-19.259000778198242 0.02800000086426735,-19.259000778198242 C-13.48900032043457,-19.259000778198242 -24.479000091552734,-10.57800006866455 -24.479000091552734,0.027000000700354576 C-24.479000091552734,10.631999969482422 -13.48900032043457,19.259000778198242 0.02800000086426735,19.259000778198242z"></path></g><g opacity="1" transform="matrix(-0.32556816935539246,0.9455185532569885,-0.9455185532569885,-0.32556816935539246,181.02951049804688,250.98074340820312)"><path fill="rgb(255,255,255)" fill-opacity="1" d=" M7.25600004196167,-7.488999843597412 C9.562000274658203,-3.5320000648498535 8.520999908447266,-1.8569999933242798 6.673999786376953,2.7239999771118164 C4.935999870300293,7.034999847412109 1.8009999990463257,10.361000061035156 0.09300000220537186,6.736999988555908 C-1.9639999866485596,2.372999906539917 1.0069999694824219,1.4800000190734863 0.5519999861717224,-0.6029999852180481 C0.020999999716877937,-3.0329999923706055 -3.7090001106262207,-4.386000156402588 -3.996999979019165,-7.269999980926514 C-4.493000030517578,-12.234000205993652 4.949999809265137,-11.446000099182129 7.25600004196167,-7.488999843597412z"></path></g></g><g transform="matrix(-1.2234455347061157,0,0,1.2234455347061157,569.2020263671875,-72.05317687988281)" opacity="1" style="display: block;"><g opacity="1" transform="matrix(1,0,0,1,188.70700073242188,226.54800415039062)"><path fill="rgb(61,169,214)" fill-opacity="1" d=" M0.16500000655651093,-20.826000213623047 C28.518999099731445,-21.320999145507812 53.56700134277344,-6.948999881744385 54.72100067138672,21.405000686645508 C54.72100067138672,21.405000686645508 -54.73699951171875,19.937000274658203 -54.73699951171875,19.937000274658203 C-56.22100067138672,-6.6579999923706055 -29.781999588012695,-20.33099937438965 0.16500000655651093,-20.826000213623047z"></path></g><g opacity="0" transform="matrix(1,0,0,1,0,0)"><path fill="rgb(61,169,214)" fill-opacity="1" d=" M225.6719970703125,269.8970031738281 C217.75,276.3609924316406 171.625,278.1109924316406 151.52200317382812,269.97601318359375 C164.625,275.1109924316406 176.375,275.6099853515625 191.0050048828125,275.3420104980469 C212.4459991455078,274.9490051269531 218.125,274.2359924316406 225.6719970703125,269.8970031738281z"></path><path stroke-linecap="round" stroke-linejoin="round" fill-opacity="0" stroke="rgb(23,105,140)" stroke-opacity="1" stroke-width="6" d=" M225.6719970703125,269.8970031738281 C217.75,276.3609924316406 171.625,278.1109924316406 151.52200317382812,269.97601318359375 C164.625,275.1109924316406 176.375,275.6099853515625 191.0050048828125,275.3420104980469 C212.4459991455078,274.9490051269531 218.125,274.2359924316406 225.6719970703125,269.8970031738281z"></path></g><g opacity="1" transform="matrix(1,0,0,1,188.70700073242188,226.54800415039062)"><path stroke-linecap="round" stroke-linejoin="round" fill-opacity="0" stroke="rgb(23,105,140)" stroke-opacity="1" stroke-width="6" d=" M51.0369987487793,5.428999900817871 C53.1879997253418,10.135000228881836 54.479000091552734,15.463000297546387 54.72100067138672,21.405000686645508 C54.72100067138672,21.405000686645508 -54.73699951171875,19.937000274658203 -54.73699951171875,19.937000274658203 C-55.564998626708984,5.104000091552734 -47.707000732421875,-5.709000110626221 -35.39799880981445,-12.458000183105469"></path></g></g><g transform="matrix(1.2234455347061157,0,0,1.2234455347061157,-57.20204544067383,-85.25086975097656)" opacity="1" style="display: block;"><g opacity="1" transform="matrix(1,0,0,1,253.62899780273438,315.6199951171875)"><path fill="rgb(252,108,182)" fill-opacity="1" d=" M-91.18800354003906,-15.166000366210938 C-114.9800033569336,-29.562000274658203 -137.83900451660156,-4.122000217437744 -116.95899963378906,14.560999870300293 C-90.85800170898438,37.85900115966797 -33.38199996948242,43.683998107910156 4.039000034332275,43.24399948120117 C39.37099838256836,42.85900115966797 92.1760025024414,30.00200080871582 120.4749984741211,6.482999801635742 C137.83799743652344,-7.9679999351501465 127.01399993896484,-43.685001373291016 92.56099700927734,-19.39699935913086 C66.12999725341797,-0.7149999737739563 31.128000259399414,2.361999988555908 4.257999897003174,3.9560000896453857 C-27.281999588012695,5.823999881744385 -72.33999633789062,-3.7920000553131104 -91.18800354003906,-15.166000366210938z"></path><path stroke-linecap="round" stroke-linejoin="miter" fill-opacity="0" stroke-miterlimit="10" stroke="rgb(172,27,102)" stroke-opacity="1" stroke-width="6" d=" M-91.18800354003906,-15.166000366210938 C-114.9800033569336,-29.562000274658203 -137.83900451660156,-4.122000217437744 -116.95899963378906,14.560999870300293 C-90.85800170898438,37.85900115966797 -33.38199996948242,43.683998107910156 4.039000034332275,43.24399948120117 C39.37099838256836,42.85900115966797 92.1760025024414,30.00200080871582 120.4749984741211,6.482999801635742 C137.83799743652344,-7.9679999351501465 127.01399993896484,-43.685001373291016 92.56099700927734,-19.39699935913086 C66.12999725341797,-0.7149999737739563 31.128000259399414,2.361999988555908 4.257999897003174,3.9560000896453857 C-27.281999588012695,5.823999881744385 -72.33999633789062,-3.7920000553131104 -91.18800354003906,-15.166000366210938z"></path></g></g><g transform="matrix(1.2234455347061157,0,0,1.2234455347061157,-57.20204544067383,-85.25086975097656)" opacity="1" style="display: block;"><g opacity="1" transform="matrix(1,0,0,1,254.75599670410156,322.35101318359375)"><path stroke-linecap="round" stroke-linejoin="miter" fill-opacity="0" stroke-miterlimit="10" stroke="rgb(172,27,102)" stroke-opacity="1" stroke-width="6" d=" M-111.93099975585938,-10.303000450134277 C-76.00599670410156,13.64900016784668 -19.874000549316406,17.54199981689453 2.9119999408721924,16.841999053955078 C22.2549991607666,16.2450008392334 80.24400329589844,12.39900016784668 111.93099975585938,-18.051000595092773"></path></g></g><g style="display: none;" transform="matrix(1.159999966621399,0,0,1.159999966621399,-40.959991455078125,-68.8174819946289)" opacity="1"><g opacity="1" transform="matrix(1,0,0,1,254.75599670410156,322.35101318359375)"><path stroke-linecap="round" stroke-linejoin="miter" fill-opacity="0" stroke-miterlimit="10" stroke="rgb(172,27,102)" stroke-opacity="1" stroke-width="6" d=" M-111.93099975585938,-10.303000450134277 C-76.00599670410156,13.64900016784668 -19.874000549316406,17.54199981689453 2.9119999408721924,16.841999053955078 C22.2549991607666,16.2450008392334 80.24400329589844,12.39900016784668 111.93099975585938,-18.051000595092773"></path></g></g><g transform="matrix(1.2234455347061157,0,0,1.2234455347061157,256,227.95118713378906)" opacity="1" style="display: block;"><g opacity="1" transform="matrix(1,0,0,1,0,0)"><path fill="rgb(122,1,26)" fill-opacity="1" d=" M0.5,82.875 C-1.9040000438690186,82.875 -6.738999843597412,82.70600128173828 -13.197999954223633,82.4739990234375 C-17.148000717163086,82.33200073242188 -21.707000732421875,82.16600036621094 -26.687999725341797,82 C-13.625,83.375 -3.315000057220459,83.375 0.5,83.375 C4.188000202178955,83.375 16.312999725341797,82.56300354003906 30.812999725341797,80.93800354003906 C24.554000854492188,81.42400360107422 18.72599983215332,81.83899688720703 13.831000328063965,82.16000366210938 C7.38700008392334,82.58200073242188 2.559999942779541,82.83899688720703 0.5,82.875z"></path><path stroke-linecap="round" stroke-linejoin="round" fill-opacity="0" stroke="rgb(172,27,102)" stroke-opacity="1" stroke-width="6" d=" M0.5,82.875 C-1.9040000438690186,82.875 -6.738999843597412,82.70600128173828 -13.197999954223633,82.4739990234375 C-17.148000717163086,82.33200073242188 -21.707000732421875,82.16600036621094 -26.687999725341797,82 C-13.625,83.375 -3.315000057220459,83.375 0.5,83.375 C4.188000202178955,83.375 16.312999725341797,82.56300354003906 30.812999725341797,80.93800354003906 C24.554000854492188,81.42400360107422 18.72599983215332,81.83899688720703 13.831000328063965,82.16000366210938 C7.38700008392334,82.58200073242188 2.559999942779541,82.83899688720703 0.5,82.875z"></path></g></g><g transform="matrix(2.236840009689331,0.48932087421417236,-0.48932087421417236,2.236840009689331,257.23199462890625,213.43760681152344)" opacity="1" style="display: none;"><g opacity="1" transform="matrix(1,0,0,1,0,0)"><path fill="rgb(251,133,194)" fill-opacity="1" d=" M-29.25,-45.75 C-60.25,-46.25 -66.91500091552734,-27.531999588012695 -70,-20.5 C-75.08699798583984,-8.906000137329102 -73.05699920654297,2.632999897003174 -38.5,-15 C-6.290999889373779,-31.434999465942383 -5.414999961853027,-45.36600112915039 -29.25,-45.75z"></path></g><g opacity="1" transform="matrix(0.7431448101997375,0.6691306233406067,-0.6691306233406067,0.7431448101997375,50.50012969970703,17.000286102294922)"><path fill="rgb(251,133,194)" fill-opacity="1" d=" M-28.57699966430664,-43.0369987487793 C-57.07699966430664,-49.452999114990234 -68.73400115966797,-25.56399917602539 -70,-20.5 C-71.25,-15.5 -74.552001953125,-2.7850000858306885 -38.361000061035156,-16.761999130249023 C-2.1110000610351562,-30.761999130249023 -7.7779998779296875,-38.354000091552734 -28.57699966430664,-43.0369987487793z"></path></g><g opacity="1" transform="matrix(1,0,0,1,0,0)"><path fill="rgb(251,133,194)" fill-opacity="1" d=" M56.347999572753906,66.22100067138672 C42.08599853515625,67.47899627685547 19.20800018310547,75.39700317382812 5.340000152587891,89.06999969482422 C-15.359999656677246,74.78500366210938 -39.70600128173828,69.21900177001953 -52.689998626708984,72.05400085449219 C-64.92400360107422,74.72599792480469 -63.26300048828125,85.25399780273438 -56.81700134277344,92.51899719238281 C-49.540000915527344,100.72000122070312 -4.521999835968018,110.16100311279297 5.330999851226807,97.23200225830078 C13.819999694824219,106.89299774169922 59.42900085449219,95.90899658203125 69.927001953125,85.34500122070312 C78.38500213623047,76.83399963378906 69.19100189208984,65.08899688720703 56.347999572753906,66.22100067138672z"></path></g></g><g transform="matrix(1.0684921741485596,0.8834551572799683,-0.8834551572799683,1.0684921741485596,279.52960205078125,243.40798950195312)" opacity="1" style="display: none;"><g opacity="1" transform="matrix(1,0,0,1,0,0)"><path fill="rgb(214,61,93)" fill-opacity="1" d=" M13.571975708007812,66.54501342773438 C13.762999534606934,57.74883270263672 -17.34882354736328,57.376678466796875 -15.833080291748047,67.28297424316406 C-10.874032020568848,72.46964263916016 -6.012775897979736,74.324462890625 0.2600319981575012,74.51163482666016 C3.5524721145629883,74.60668182373047 14.292223930358887,71.44039154052734 13.571975708007812,66.54501342773438z"></path><path stroke-linecap="butt" stroke-linejoin="miter" fill-opacity="0" stroke-miterlimit="4" stroke="rgb(172,27,102)" stroke-opacity="1" stroke-width="10" d=" M13.571975708007812,66.54501342773438 C13.762999534606934,57.74883270263672 -17.34882354736328,57.376678466796875 -15.833080291748047,67.28297424316406 C-10.874032020568848,72.46964263916016 -6.012775897979736,74.324462890625 0.2600319981575012,74.51163482666016 C3.5524721145629883,74.60668182373047 14.292223930358887,71.44039154052734 13.571975708007812,66.54501342773438z"></path></g></g><g transform="matrix(1.8053025007247925,0,0,1.8053025007247925,254.25999450683594,237.42250061035156)" opacity="0.6338974358965748" style="display: none;"><g opacity="1" transform="matrix(1,0,0,1,0,0)"><path stroke-linecap="round" stroke-linejoin="miter" fill-opacity="0" stroke-miterlimit="4" stroke="rgb(253,210,234)" stroke-opacity="0.4" stroke-width="30" d="M0 0"></path></g><g opacity="1" transform="matrix(1,0,0,1,0,0)"><path stroke-linecap="round" stroke-linejoin="miter" fill-opacity="0" stroke-miterlimit="4" stroke="rgb(253,210,234)" stroke-opacity="0.4" stroke-width="38.24066666665547" d=" M-41.790000915527344,33.87900161743164 C-51.52000045776367,27.343000411987305 -59.784000396728516,21.06599998474121 -67.16899871826172,12.586999893188477 C-102.16400146484375,-27.5939998626709 -51.90299987792969,-64.71499633789062 -22.784000396728516,-44.749000549316406 C-16.104000091552734,-40.16899871826172 -5.815000057220459,-31.190000534057617 2.6389999389648438,-31.39699935913086 C10.220000267028809,-31.58300018310547 21.32200050354004,-43.20500183105469 31.23900032043457,-50.79499816894531 C50.152000427246094,-65.27100372314453 100.68099975585938,-42.768001556396484 77.18099975585938,1.2319999933242798 C62.56800079345703,28.591999053955078 30.618000030517578,67.30500030517578 8.968999862670898,80.85199737548828"></path></g></g><g transform="matrix(1.8182833194732666,0,0,1.8182833194732666,254.16482543945312,237.73875427246094)" opacity="0.14876699999942894" style="display: block;"><g opacity="1" transform="matrix(1,0,0,1,0,0)"><path stroke-linecap="round" stroke-linejoin="miter" fill-opacity="0" stroke-miterlimit="4" stroke="rgb(253,210,234)" stroke-opacity="0.4" stroke-width="30" d="M0 0"></path></g><g opacity="1" transform="matrix(1,0,0,1,0,0)"><path stroke-linecap="round" stroke-linejoin="miter" fill-opacity="0" stroke-miterlimit="4" stroke="rgb(253,210,234)" stroke-opacity="0.4" stroke-width="31.944666666659202" d=" M-53.4739990234375,25.475000381469727 C-58.40299987792969,21.5939998626709 -62.930999755859375,17.452999114990234 -67.16899871826172,12.586999893188477 C-102.16400146484375,-27.5939998626709 -51.90299987792969,-64.71499633789062 -22.784000396728516,-44.749000549316406 C-16.104000091552734,-40.16899871826172 -5.815000057220459,-31.190000534057617 2.6389999389648438,-31.39699935913086 C10.220000267028809,-31.58300018310547 21.32200050354004,-43.20500183105469 31.23900032043457,-50.79499816894531 C50.152000427246094,-65.27100372314453 100.68099975585938,-42.768001556396484 77.18099975585938,1.2319999933242798 C62.56800079345703,28.591999053955078 30.618000030517578,67.30500030517578 8.968999862670898,80.85199737548828"></path></g></g></g></svg>