<svg xmlns="http://www.w3.org/2000/svg" xmlns:xlink="http://www.w3.org/1999/xlink" viewBox="0 0 512 512" width="512" height="512" preserveAspectRatio="xMidYMid meet" style="width: 100%; height: 100%; transform: translate3d(0px, 0px, 0px); content-visibility: visible;">
<defs><clipPath id="__lottie_element_2"><rect width="512" 
height="512" x="0" y="0"></rect></clipPath></defs><g clip-p
ath="url(#__lottie_element_2)"><g transform="matrix(1.193066
2393569946,0.017443105578422546,-0.017443105578422546,1.1930662393569946,-44.959503173828125,-91.68463897705078)" opacity="1" style="display: block;">
<g opacity="1" transform="matrix(1,0,0,1,255.74400329589844,291.6619873
046875)">
<path fill="rgb(61,169,214)" fill-opacity="1" d=" M-123.07759857177734,-60.999549865722656 C-138.5288543701172,-24.091440200805664 -139.65040588378906,9.90
3129577636719 -133.88589477539062,34.34299850463867 C-128.860595703125,
56.167850494384766 -95.25525665283203,98.92378234863281 -84.4082794189453
1,109.02210998535156 C-49.123538970947266,140.12013244628906 47.42903137207031,144.615966796875 88.20274353027344,102.34501647949219 C100.63446044921875,87.44500732421875 
.1067886352539,57.65813064575195 133.22970581054688,30.95800018310547 C140.40821838378906,5.201925754547119 136.6866455078125,-25.89979362487793 125.90311431884766,-53.04344940185547 C103.37836456298828,-110.66580200195312 56.98540115356445,-119.86859893798828 -3.
2528553009033203,-119.98999786376953 C-54.34483337402344,-120.08839416503906 -103.14354705810547,-108.166748046875 -123.07759857177734,-60.999549865722656z"></path></g>
<g opacity="1" transform="matrix(1,0,0,1,255.74400329589844,291.6619873046875)">
<path fill="rgb(26,140,187)" fill-opacity="1" d=" M60.34010696411133,121.21257019042969 C71.06110382080078,116.45970153808594 80.60265350341797,110.2144546508789 88.20274353027344,102.34501647949219 C100.63446044921875,87.44500732421875 126.1067886352539,57.65813064575195 133.22970581054688,30.95800018310547 C140.40821838378906,5.201814651489258 131.7991485595703,-33.02415084838867 126.34754943847656,-61.489898681640625 C122.92994689941406,-80.8002395629882
8 115.86418151855469,-95.18090057373047 106.16142272949219,-105.88482666015625 C118.97785949707031,-5.162950038909912 117.99653625488281,34.85292434692383 60.34010696411133,121.21257019042969z">
</path></g><g opacity="1" transform="matrix(1,0,0,1,255.74400329589844,291.6619873046875)">
<path stroke-linecap="round" stroke-linejoin="miter" fill-opacity="0" stroke-miterlimit="
10" stroke="rgb(23,105,140)" stroke-opacity="1" stroke-width="6" d=" M-123.07759857177734,-60.999549865722656 C-137.71621704101562,-23.777587890625 -139.65040588378906,9.903129577636719 -133.88589477539062,34.34299850463867 C-128.860595703125,56.167850494384766 -95.25525665283203,98.92378234863281 -84.40827941894531,109.02210998535156 C-49.123538970947266,140.12013244628906 47.42903137207031,144.615966796875 88.20274353027344,102.34501647949219 C10
0.63446044921875,87.44500732421875 126.1067886352539,57.65813064575195 133.22970581054688,30.95800018310547 C140.40821838378906,5.201925754547119 135.5681610107422,-27.44327163696289 125.4594497680664,-54.821651458740234 C105.1574478149414,-110.66580200195312 56.98540115356445,-119.86859893798828 -3.2528553009033203,-119.98999786376953 C-54.34483337
402344,-120.08839416503906 -104.47720336914062,-107.72219848632812 -123.07759857177734,-60.999549865722656z">
</path>
</g></g><g transform="matrix(1.1322460174560547,0.09582621604204178,-0.09582621604204178,1.1322460174560547,-15.639419555664062,-57.95764923095703)" opacity="1" style="display: block;"><g opacity="1" transform="matrix(1,0,0,1,118.23500061035156,144.23399353027344)"><path fill="rgb(61,169,214)" fill-opacity="1" d=" M52.014305114746094,21.847536087036133 C39.96558380126953,-11.157759666442871 12.597128868103027,-54.353363037109375 -20.98444366455078,-35.62875747680664 C-53.143592834472656,-17.64188575744629 -30.59743309020996,39.139732360839844 3.5625553131103516,65.29749298095703"></path></g><g opacity="1" transform="matrix(1,0,0,1,118.23500061035156,144.23399353027344)"><path stroke-linecap="round" stroke-linej
oin="miter" fill-opacity="0" stroke-miterlimit="10" stroke="rgb(23,105,140)" stroke-opacity="1" stroke-width="6" d=" M50.3626708984375,20.013694763183594 C39.7728385925293,-11.569198608398438 12.506523132324219,-53.939151763916016 -20.98444366455078,-35.62887191772461 C-53.22821044921875,-17.648427963256836 -30.59743309020996,39.13951110839844 3.5625553131103516,65.29737854003906">
</path></g><g opacity="1" transform="matrix(1,0,0,1,106.447998046875,152.6409912109375)">
<path fill="rgb(212,67,142)" fill-opacity="1" d=" M29.465303421020508,9.644570
350646973 C26.330440521240234,-2.6633121967315674 7.611503601074219,-36.143917083740234 -10.856637954711914,-23.7301082611084 C-24.341310501098633,-14.660401344299316 -5.642597198486328,21.82785415649414 3.2649710178375244,31.779783248901367"></path><path stroke-linecap="round" stroke-linejoin="miter" fill-opacity="0" stroke-miterlimit="10" stroke="rgb(23,105,140)" stroke-opacity="1" stroke-width="6" d=" M29.465303421020508,9.644570350646973 C26.330440521240234,-2.6633121967315674 7.611503601074219,-36.143917083740234 -10.856637954711914,-23.7301082611084 C-24.341310501098633,-14.660401344299316 -5.642597198486328,21.82785415649414 3.2649710178375244,31.779783248901367"></path></g><g opacity="1" transform="matrix(1,0,0,1,0,0)"><path fill="rgb(61,169,214)" fill-opacity="1" d=" M140.02699279785156,161.52
60009765625 C126.53700256347656,165.7270050048828 109.29900360107422,186.6750030517578 109.70700073242188,199.67799377441406 C110.11499786376953,212.68099975585938 133.25799560546875,213.4969940185547 143.74099731445312,194.9709930419922 C154.2239990234375,176.44500732421875 153.51699829101562,157.3249969482422 140.02699279785156,161.
5260009765625z"></path></g><g opacity="1" transform="matrix(0.9980824589729309,0.061898648738861084,-0.061898648738861084,0.9980824589729309,120.16292572021484,191.14892578125)"><path fill="rgb(61,169,214)" fill-opacity="1" d=" M15.029000282287598,22.034000396728516 C3.2249999046325684,30.22599983215332 -10.38599967956543,25.05699920654297 -13.
73799991607666,14.342000007629395 C-19.23200035095215,-3.187000036239624 5.685999870300293,-25.91200065612793 21.493999481201172,-29.95800018310547"></path><path stroke-linecap="round" stroke-linejoin="miter" fill-opacity="0" stroke-miterlimit="10" stroke="rgb(23,105,140)" stroke-opacity="1" stroke-width="6" d=" M15.029000282287598,22.034000396728516 C3.2249999046325684,30.22599983215332 -10.38599967956543,25.05699920654297 -13.73799991607666,14.342000007629395 C-19.23200035095215,-3.187000036239624 5.685999870300293,-25.91200065612793 21.493999481201172,-29.95800018310547"></path></g></g><g transform="matrix(-1.1
345634460449219,0.0626845508813858,0.0626845508813858,1.1345634460449219,532.0525512695312,-52.33681869506836)" opacity="1" style="display: block;"><g opacity="1" transform="matrix(1,0,0,1,118.23500061035156,144.23399353027344)"><path fill="rgb(61,169,214)" fill-opacity="1" d=" M52.014305114746094,21.847536087036133 C39.96558380126953,-11.157759666442871 12.597128868103027,-54.353363037109375 -20.98444366455078,-35.62875747680664 C-53.1435
92834472656,-17.64188575744629 -30.59743309020996,39.139732360839844 3.5625553131103516,65.29749298095703"></path></g><g opacity="1" transform="matrix(1,0,0,1,118.23500061035156,144.23399353027344)"><path fill="rgb(26,140,187)" fill-opacity="1" d=" M-20.58660888671875,-35.10453414916992 C-52.17953872680664,-18.21276092529297 -31.337284088134766,38.14754867553711 2.4251649379730225,63.504276275634766 C1.4130176305770874,64.30608367919922 -16.906715393066406,-12.549470901489258 -17.095983505249023,-17.038333892822266 C-23.880535125732422,-18.368022918701172 -27.710063934326172,-27.252685546875 -20.58660888671875,-35.10453414916992z"></path></g><g opacity="1" transform="matrix(1,0,0,1,118.23500061035156,144.23399353027344)"><path stroke-linecap="round" stroke-linejoin="miter" fill-opacity="0" stroke-miterlimit="10" stroke="rgb(23,105,140)" stroke-opacity="1" stroke-width="6" d=" M50.3626708984375,20.013694763183594 C39.7728385925293,-11.569198608398438 12.506523132324219,-53.939151763916016 -20.9844
4366455078,-35.62887191772461 C-53.22821044921875,-17.648427963256836 -30.59743309020996,39.13951110839844 3.5625553131103516,65.29737854003906"></path></g><g opacity="1" transform="matrix(1,0,0,1,106.447998046875,152.6409912109375)"><path fill="rgb(212,67,142)" fill-opacity="1" d=" M29.465303421020508,9.644570350646973 C26.330440521240234,-2.6633121967315674 7.611503601074219,-36.143917083740234 -10.856637954711914,-23.7301082611084 C-24.341310501098633,-14.660401344299316 -5.642597198486328,21.82785415649414 3.2649710178375244,31.779783248901367"></path><path stroke-linecap="round" stroke-linejoin="miter" fill-opacity="0" stroke-miterlimit="10" stroke="rgb(23,105,140)" stroke-opacity="1" stroke-width="6" d=" M29.465303421020508,9.644570350646973 C26.330440521240234,-2.6633121967315674 7.611503601074219,-36.143917083740234 -10.856637954711914,-23.7301082611084 C-24.341310501098633,-14.660401344299316 -5.642597198486328,21.82785415649414 3.2649710178375244,31.779783248901367"></path></g><g opacity="1" transform="matrix(0.9980824589729309,0.061898648738861084,-0.061898648738861084,0.9980824589729309,120.16292572021484,191.14892578125)"><path fill="rgb(61,169,214)" fill-opacity="1" d=" M19.231000900268555,-29.89299964904785 C6.334000110626221,-26.30500030517578 -19.23200035095215,-3.187000036239624 -13.73799991607666,14.342000007629395 C-10.38599967956543,25.05699920654297 2.193000078201294,29.239999771118164 12.081999778747559,25.22800064086914 C40.5359992980957,6.599999904632568 43.361000061035156,-34.36600112915039 19.231000900268555,-29.89299964904785z"></path></g><g opacity="1" transform="matrix(0.9980824589729309,0.061898648738861084,-0.061898648738861084,0.9980824589729309,120.16292572021484,191.14892578125)"><path fill="rgb(26,140,187)" fill-opacity="1" d=" M19.231000900268555,-29.89299964904785 C6.334000110626221,-26.30500030517578 -19.23200035095215,-3.187000036239624 -13.73799991607666,14.342000007629395 C-10.38599967956543,25.05699920654297 2.86899995803833,32.22100067138672 13.951000213623047,23.038999557495117 C-5.908999919891357,10.807000160217285 -11.196000099182129,-10.36400032043457 19.231000900268555,-29.89299964904785z"></path></g><g opacity="1" transform="matrix(0.9980824589729309,0.061898648738861084,-0.061898648738861084,0.9980824589729309,120.16292572021484,191.14892578125)"><path stroke-linecap="round" stroke-linejoin="miter" fill-opacity="0" stroke-miterlimit="10" stroke="rgb(23,105,140)" stroke-opacity="1" stroke-width="6" d=" M10.00100040435791,25.770000457763672 C-0.6039999723434448,29.892000198364258 -10.38599967956543,25.05699920654297 -13.73799991607666,14.342000007629395 C-19.23200035095215,-3.187000036239624 4.889999866485596,-24.947999954223633 19.231000900268555,-29.89299964904785"></path></g></g><g transform="matrix(1.141395926475525,-0.020873133093118668,0.020873133093118668,1.141395926475525,-44.547454833984375,-57.07036590576172)" opacity="1" style="display: block;"><g opacity="1" transform="matrix(1,0,0,1,189.58599853515625,246.38400268554688)"><path fill="rgb(255,255,255)" fill-opacity="1" d=" M0.7149999737739563,-29.562999725341797 C28.68400001525879,-29.562999725341797 51.59700012207031,-17.63800048828125 51.59700012207031,-0.21899999678134918 C51.59700012207031,17.198999404907227 37.145999908447266,28.628999710083008 1.9229999780654907,29.12299919128418 C-33.29899978637695,29.562999725341797 -51.59700012207031,21.266000747680664 -51.37699890136719,-1.2079999446868896 C-51.21200180053711,-22.30900001525879 -27.253999710083008,-29.562999725341797 0.7149999737739563,-29.562999725341797z"></path><path stroke-linecap="round" stroke-linejoin="miter" fill-opacity="0" stroke-miterlimit="10" stroke="rgb(23,105,140)" stroke-opacity="1" stroke-width="6" d=" M0.7149999737739563,-29.562999725341797 C28.68400001525879,-29.562999725341797 51.59700012207031,-17.63800048828125 51.59700012207031,-0.21899999678134918 C51.59700012207031,17.198999404907227 37.145999908447266,28.628999710083008 1.9229999780654907,29.12299919128418 C-33.29899978637695,29.562999725341797 -51.59700012207031,21.266000747680664 -51.37699890136719,-1.2079999446868896 C-51.21200180053711,-22.30900001525879 -27.253999710083008,-29.562999725341797 0.7149999737739563,-29.562999725341797z"></path></g></g><g transform="matrix(1.141395926475525,-0.020873133093118668,0.020873133093118668,1.141395926475525,-44.547454833984375,-57.07
036590576172)" opacity="1" style="display: block;"><g opacity="1" transform="matrix(1,0,0,1,191.7570037841797,248.44500732421875)"><path fill="rgb(0,0,0)" fill-opacity="1" d=" M0.02800000086426735,19.259000778198242 C13.489999771118164,19.259000778198242 24.479999542236328,10.631999969482422 24.479999542236328,0.027000000700354576 C24.479999542236328,-10.57800006866455 13.489999771118164,-19.259000778198242 0.02800000086426735,-19.259000778198242 C-13.48900032043457,-19.259000778198242 -24.479000091552734,-10.57800006866455 -24.479000091552734,0.027000000700354576 C-24.479000091552734,10.631999969482422 -13.48900032043457,19.259000778198242 0.02800000086426735,19.259000778198242z"></path></g><g opacity="1" transform="matrix(1,0,0,1,202.28225708007812,251.0625)"><path fill="rgb(255,255,255)" fill-opacity="1" d=" M7.118000030517578,-1.4700000286102295 C10.6899995803833,0.34299999475479126 7.605000019073486,3.421999931335449 4.8420000076293945,5.888000011444092 C1.156999945640564,9.177000045776367 -2.1619999408721924,10.015999794006348 -4.48799991607666,8.23900032043457 C-7.631999969482422,5.8379998207092285 -11.300000190734863,-0.07800000160932541 -6.672999858856201,-1.8040000200271606 C-3.993000030517578,-2.803999900817871 -2.822999954223633,0.9269999861717224 -0.07800000160932541,0.7730000019073486 C2.9570000171661377,0.6019999980926514 5.270999908447266,-2.4509999752044678 7.118000030517578,-1.4700000286102295z"></path></g></g><g transform="matrix(1.141395926475525,-0.020873133093118668,0.020873133093118668,1.141395926475525,-44.547454833984375,-57.07036590576172)" opacity="1" style="display: block;"><g opacity="1" transform="matrix(1,0,0,1,188.70700073242188,226.54800415039062)"><path fill="rgb(61,169,214)" fill-opacity="1" d=" M0.16500000655651093,-20.826000213623047 C28.518999099731445,-21.320999145507812 56.81700134277344,-7.0329999923706055 57.97100067138672,21.320999145507812 C57.97100067138672,21.320999145507812 -56.48699951171875,19.836999893188477 -56.48699951171875,19.836999893188477 C-57.97100067138672,-6.757999897003174 -29.781999588012695,-20.33099937438965 0.16500000655651093,-20.826000213623047z"></path></g><g opacity="0" transform="matrix(1,0,0,1,0,0)"><path fill="rgb(61,169,214)" fill-opacity="1" d=" M225.6719970703125,269.8970031738281 C217.75,276.3609924316406 171.625,278.1109924316406 151.52200317382812,269.97601318359375 C164.625,275.1109924316406 176.375,275.6099853515625 191.0050048828125,275.3420104980469 C212.4459991455078,274.9490051269531 218.125,274.2359924316406 225.6719970703125,269.8970031738281z"></path><path stroke-linecap="round" stroke-linejoin="round" fill-opacity="0" stroke="rgb(23,105,140)" stroke-opacity="1" stroke-width="6" d=" M225.6719970703125,269.8970031738281 C217.75,276.3609924316406 171.625,278.1109924316406 151.52200317382812,269.97601318359375 C164.625,275.1109924316406 176.375,275.6099853515625 191.0050048828125,275.3420104980469 C212.4459991455078,274.9490051269531 218.125,274.2359924316406 225.6719970703125,269.8970031738281z"></path></g><g opacity="1" transform="matrix(1,0,0,1,188.70700073242188,226.54800415039062)"><path stroke-linecap="round" stroke-linejoin="round" fill-opacity="0" stroke="rgb(23,105,140)" stroke-opacity="1" stroke-width="6" d=" M53.775001525878906,5.073999881744385 C56.23699951171875,9.842000007629395 57.7239990234375,15.260000228881836 57.97100067138672,21.320999145507812 C57.97100067138672,21.320999145507812 -56.48699951171875,19.836999893188477 -56.48699951171875,19.836999893188477 C-57.30400085449219,5.189000129699707 -49.119998931884766,-5.508999824523926 -36.597999572753906,-12.246999740600586"></path></g></g><g transform="matrix(-1.1402978897094727,-0.054232411086559296,-0.054232411086559296,1.1402978897094727,564.466552734375,-48.166343688964844)" opacity="1" style="display: block;"><g opacity="1" transform="matrix(1,0,0,1,189.58599853515625,246.38400268554688)"><path fill="rgb(255,255,255)" fill-opacity="1" d=" M0.7149999737739563,-29.562999725341797 C28.68400001525879,-29.562999725341797 51.59700012207031,-17.63800048828125 51.59700012207031,-0.21899999678134918 C51.59700012207031,17.198999404907227 37.145999908447266,28.628999710083008 1.9229999780654907,29.12299919128418 C-33.29899978637695,29.562999725341797 -51.59700012207031,21.266000747680664 -51.37699890136719,-1.2079999446868896 C-51.21200180053711,-22.30900001525879 -27.253999710083008,-29.562999725341797 0.7149999737739563,-29.562999725341797z"></path><path stroke-linecap="round" stroke-linejoin="miter" fill-opacity="0" stroke-miterlimit="10" stroke="rgb(23,105,140)" stroke-opacity="1" stroke-width="6" d=" M0.7149999737739563,-29.562999725341797 C28.68400001525879,-29.562999725341797 51.59700012207031,-17.63800048828125 51.59700012207031,-0.21899999678134918 C51.59700012207031,17.198999404907227 37.145999908447266,28.628999710083008 1.9229999780654907,29.12299919128418 C-33.29899978637695,29.562999725341797 -51.59700012207031,21.266000747680664 -51.37699890136719,-1.2079999446868896 C-51.21200180053711,-22.30900001525879 -27.253999710083008,-29.562999725341797 0.7149999737739563,-29.562999725341797z"></path></g></g><g transform="matrix(-1.1402978897094727,-0.054232411086559296,-0.054232411086559296,1.1402978897094727,564.466552734375,-48.166343688964844)" opacity="1" style="display: block;"><g opacity="1" transform="matrix(1,0,0,1,191.7570037841797,248.44500732421875)"><path fill="rgb(0,0,0)" fill-opacity="1" d=" M0.02800000086426735,19.259000778198242 C13.489999771118164,19.259000778198242 24.479999542236328,10.631999969482422 24.479999542236328,0.027000000700354576 C24.479999542236328,-10.57800006866455 13.489999771118164,-19.259000778198242 0.02800000086426735,-19.259000778198242 C-13.48900032043457,-19.259000778198242 -24.479000091552734,-10.57800006866455 -24.479000091552734,0.027000000700354576 C-24.479000091552734,10.631999969482422 -13.48900032043457,19.259000778198242 0.02800000086426735,19.259000778198242z"></path></g><g opacity="1" transform="matrix(-0.32556816935539246,0.9455185532569885,-0.9455185532569885,-0.32556816935539246,180.52423095703125,250.3049774169922)"><path fill="rgb(255,255,255)" fill-opacity="1" d=" M7.25600004196167,-7.488999843597412 C9.562000274658203,-3.5320000648498535 8.520999908447266,-1.8569999933242798 6.673999786376953,2.7239999771118164 C4.935999870300293,7.034999847412109 1.8009999990463257,10.361000061035156 0.09300000220537186,6.736999988555908 C-1.9639999866485596,2.372999906539917 1.0069999694824219,1.4800000190734863 0.5519999861717224,-0.6029999852180481 C0.020999999716877937,-3.0329999923706055 -3.7090001106262207,-4.386000156402588 -3.996999979019165,-7.269999980926514 C-4.493000030517578,-12.234000205993652 4.949999809265137,-11.446000099182129 7.25600004196167,-7.488999843597412z"></path></g></g><g transform="matrix(-1.1402978897094727,-0.054232411086559296,-0.054232411086559296,1.1402978897094727,564.466552734375,-48.166343688964844)" opacity="1" style="display: block;"><g opacity="1" transform="matrix(1,0,0,1,188.70700073242188,226.54800415039062)"><path fill="rgb(61,169,214)" fill-opacity="1" d=" M0.16500000655651093,-20.826000213623047 C28.518999099731445,-21.320999145507812 56.81700134277344,-7.0329999923706055 57.97100067138672,21.320999145507812 C57.97100067138672,21.320999145507812 -56.48699951171875,19.836999893188477 -56.48699951171875,19.836999893188477 C-57.97100067138672,-6.757999897003174 -29.781999588012695,-20.33099937438965 0.16500000655651093,-20.826000213623047z"></path></g><g opacity="0" transform="matrix(1,0,0,1,0,0)"><path fill="rgb(61,169,214)" fill-opacity="1" d=" M225.6719970703125,269.8970031738281 C217.75,276.3609924316406 171.625,278.1109924316406 151.52200317382812,269.97601318359375 C164.625,275.1109924316406 176.375,275.6099853515625 191.0050048828125,275.3420104980469 C212.4459991455078,274.9490051269531 218.125,274.2359924316406 225.6719970703125,269.8970031738281z"></path><path stroke-linecap="round" stroke-linejoin="round" fill-opacity="0" stroke="rgb(23,105,140)" stroke-opacity="1" stroke-width="6" d=" M225.6719970703125,269.8970031738281 C217.75,276.3609924316406 171.625,278.1109924316406 151.52200317382812,269.97601318359375 C164.625,275.1109924316406 176.375,275.6099853515625 191.0050048828125,275.3420104980469 C212.4459991455078,274.9490051269531 218.125,274.2359924316406 225.6719970703125,269.8970031738281z"></path></g><g opacity="1" transform="matrix(1,0,0,1,188.70700073242188,226.54800415039062)"><path stroke-linecap="round" stroke-linejoin="round" fill-opacity="0" stroke="rgb(23,105,140)" stroke-opacity="1" stroke-width="6" d=" M51.0369987487793,5.428999900817871 C53.1879997253418,10.135000228881836 54.479000091552734,15.463000297546387 54.72100067138672,21.405000686645508 C54.72100067138672,21.405000686645508 -54.73699951171875,19.937000274658203 -54.73699951171875,19.937000274658203 C-55.564998626708984,5.104000091552734 -47.707000732421875,-5.709000110626221 -35.39799880981445,-12.458000183105469"></path></g></g><g transform="matrix(1.1930662393569946,0.017443105578422546,-0.017443105578422546,1.1930662393569946,-44.9725341796875,-90.79421997070312)" opacity="1" style="display: block;"><g opacity="1" transform="matrix(1,0,0,1,253.62899780273438,315.6199951171875)"><path fill="rgb(252,108,182)" fill-opacity="1" d=" M-81.01957702636719,-12.005627632141113 C-105.89368438720703,-23.104293823242188 -124.43257904052734,6.796382427215576 -100.54856872558594,22.134084701538086 C-76.6314697265625,40.027095794677734 -29.014480590820312,44.901126861572266 3.7620272636413574,44.49162673950195 C35.62840270996094,44.11244583129883 80.09566497802734,34.10114288330078 105.7452621459961,15.392151832580566 C125.0370864868164,2.727750539779663 116.92626190185547,-35.844093322753906 80.73822784423828,-15.259321212768555 C57.900386810302734,-0.754092276096344 28.42287254333496,1.812490463256836 3.772812604904175,3.0549376010894775 C-24.610973358154297,4.501517295837402 -62.447998046875,-3.337864398956299 -81.01957702636719,-12.005627632141113z"></path><path stroke-linecap="round" stroke-linejoin="miter" fill-opacity="0" stroke-miterlimit="10" stroke="rgb(172,27,102)" stroke-opacity="1" stroke-width="6" d=" M-81.01957702636719,-12.005627632141113 C-105.89368438720703,-23.104293823242188 -124.43257904052734,6.796382427215576 -100.54856872558594,22.134084701538086 C-76.6314697265625,40.027095794677734 -29.014480590820312,44.901126861572266 3.7620272636413574,44.49162673950195 C35.62840270996094,44.11244583129883 80.09566497802734,34.10114288330078 105.7452621459961,15.392151832580566 C125.0370864868164,2.727750539779663 116.92626190185547,-35.844093322753906 80.73822784423828,-15.259321212768555 C57.900386810302734,-0.754092276096344 28.42287254333496,1.812490463256836 3.772812604904175,3.0549376010894775 C-24.610973358154297,4.501517295837402 -62.447998046875,-3.337864398956299 -81.01957702636719,-12.005627632141113z"></path></g></g><g transform="matrix(1.5845454931259155,-0.48438432812690735,0.48438432812690735,1.5845454931259155,-284.4888916015625,-101.51815795898438)" opacity="1" style="display: none;"><g opacity="1" transform="matrix(1,0,0,1,254.75599670410156,322.35101318359375)"><path stroke-linecap="round" stroke-linejoin="miter" fill-opacity="0" stroke-miterlimit="10" stroke="rgb(172,27,102)" stroke-opacity="1" stroke-width="6" d=" M-21.65340805053711,15.810972213745117 C-19.603408813476562,16.195972442626953 -9.58899974822998,17.14900016784668 2.9119999408721924,16.841999053955078 C14.909000396728516,16.547000885009766 16.921680450439453,16.243202209472656 26.608680725097656,14.9269437789917"></path></g></g><g transform="matrix(1.1930662393569946,0.017443105578422546,-0.017443105578422546,1.1930662393569946,-44.9725341796875,-90.79421997070312)" opacity="1" style="display: block;"><g opacity="1" transform="matrix(1,0,0,1,254.75599670410156,322.35101318359375)"><path stroke-linecap="round" stroke-linejoin="miter" fill-opacity="0" stroke-miterlimit="10" stroke="rgb(172,27,102)" stroke-opacity="1" stroke-width="6" d=" M-99.40031433105469,-4.825104236602783 C-68.61083984375,13.690631866455078 -20.662817001342773,17.42806053161621 2.569631576538086,16.841999053955078 C23.484514236450195,16.328811645507812 72.7118911743164,12.235211372375488 99.26336669921875,-11.409050941467285"></path></g></g><g transform="matrix(1.1930662393569946,0.017443105578422546,-0.017443105578422546,1.1930662393569946,255.9869842529297,219.0961456298828)" opacity="1" style="display: block;"><g opacity="1" transform="matrix(1,0,0,1,0,0)"><path fill="rgb(122,1,26)" fill-opacity="1" d=" M0.5,82.875 C-1.9040000438690186,82.875 -6.738999843597412,82.70600128173828 -13.197999954223633,82.4739990234375 C-17.148000717163086,82.33200073242188 -21.707000732421875,82.16600036621094 -26.687999725341797,82 C-13.625,83.375 -3.315000057220459,83.375 0.5,83.375 C4.188000202178955,83.375 16.312999725341797,82.56300354003906 30.812999725341797,80.93800354003906 C24.554000854492188,81.42400360107422 18.72599983215332,81.83899688720703 13.831000328063965,82.16000366210938 C7.38700008392334,82.58200073242188 2.559999942779541,82.83899688720703 0.5,82.875z"></path><path stroke-linecap="round" stroke-linejoin="round" fill-opacity="0" stroke="rgb(172,27,102)" stroke-opacity="1" stroke-width="6" d=" M0.5,82.875 C-1.9040000438690186,82.875 -6.738999843597412,82.70600128173828 -13.197999954223633,82.4739990234375 C-17.148000717163086,82.33200073242188 -21.707000732421875,82.16600036621094 -26.687999725341797,82 C-13.625,83.375 -3.315000057220459,83.375 0.5,83.375 C4.188000202178955,83.375 16.312999725341797,82.56300354003906 30.812999725341797,80.93800354003906 C24.554000854492188,81.42400360107422 18.72599983215332,81.83899688720703 13.831000328063965,82.16000366210938 C7.38700008392334,82.58200073242188 2.559999942779541,82.83899688720703 0.5,82.875z"></path></g></g><g transform="matrix(2.2608237266540527,0.49489307403564453,-0.49489307403564453,2.2608237266540527,257.2896423339844,213.06692504882812)" opacity="1" style="display: none;"><g opacity="1" transform="matrix(1,0,0,1,0,0)"><path fill="rgb(251,133,194)" fill-opacity="1" d=" M-29.25,-45.75 C-60.25,-46.25 -66.91500091552734,-27.531999588012695 -70,-20.5 C-75.08699798583984,-8.906000137329102 -73.05699920654297,2.632999897003174 -38.5,-15 C-6.290999889373779,-31.434999465942383 -5.414999961853027,-45.36600112915039 -29.25,-45.75z"></path></g><g opacity="1" transform="matrix(0.7431448101997375,0.6691306233406067,-0.6691306233406067,0.7431448101997375,50.50012969970703,17.000286102294922)"><path fill="rgb(251,133,194)" fill-opacity="1" d=" M-28.57699966430664,-43.0369987487793 C-57.07699966430664,-49.452999114990234 -68.73400115966797,-25.56399917602539 -70,-20.5 C-71.25,-15.5 -74.552001953125,-2.7850000858306885 -38.361000061035156,-16.761999130249023 C-2.1110000610351562,-30.761999130249023 -7.7779998779296875,-38.354000091552734 -28.57699966430664,-43.0369987487793z"></path></g><g opacity="1" transform="matrix(1,0,0,1,0,0)"><path fill="rgb(251,133,194)" fill-opacity="1" d=" M56.347999572753906,66.22100067138672 C42.08599853515625,67.47899627685547 19.20800018310547,75.39700317382812 5.340000152587891,89.06999969482422 C-15.359999656677246,74.78500366210938 -39.70600128173828,69.21900177001953 -52.689998626708984,72.05400085449219 C-64.92400360107422,74.72599792480469 -63.26300048828125,85.25399780273438 -56.81700134277344,92.51899719238281 C-49.540000915527344,100.72000122070312 -4.521999835968018,110.16100311279297 5.330999851226807,97.23200225830078 C13.819999694824219,106.89299774169922 59.42900085449219,95.90899658203125 69.927001953125,85.34500122070312 C78.38500213623047,76.83399963378906 69.19100189208984,65.08899688720703 56.347999572753906,66.22100067138672z"></path></g></g><g transform="matrix(0.9733315110206604,0.829990565776825,-0.829990565776825,0.9733315110206604,278.2189025878906,248.009033203125)" opacity="1" style="display: none;"><g opacity="1" transform="matrix(1,0,0,1,0,0)"><path fill="rgb(214,61,93)" fill-opacity="1" d=" M12.702467918395996,67.57469177246094 C13.411999702453613,58.695777893066406 -17.024932861328125,60.16524124145508 -15.581439971923828,67.76346588134766 C-10.233375549316406,71.8470230102539 -6.123367786407471,73.94495391845703 -0.380623996257782,74.30567932128906 C2.621295928955078,74.49273681640625 12.750632286071777,71.44935607910156 12.702467918395996,67.57469177246094z"></path><path stroke-linecap="butt" stroke-linejoin="miter" fill-opacity="0" stroke-miterlimit="4" stroke="rgb(172,27,102)" stroke-opacity="1" stroke-width="10" d=" M12.702467918395996,67.57469177246094 C13.411999702453613,58.695777893066406 -17.024932861328125,60.16524124145508 -15.581439971923828,67.76346588134766 C-10.233375549316406,71.8470230102539 -6.123367786407471,73.94495391845703 -0.380623996257782,74.30567932128906 C2.621295928955078,74.49273681640625 12.750632286071777,71.44935607910156 12.702467918395996,67.57469177246094z"></path></g></g><g transform="matrix(1.7268271446228027,0.02524690516293049,-0.02524690516293049,1.7268271446228027,253.98626708984375,233.51002502441406)" opacity="0.9286666666667378" style="display: block;"><g opacity="1" transform="matrix(1,0,0,1,0,0)"><path stroke-linecap="round" stroke-linejoin="miter" fill-opacity="0" stroke-miterlimit="4" stroke="rgb(253,210,234)" stroke-opacity="0.4" stroke-width="30" d="M0 0"></path></g><g opacity="1" transform="matrix(1,0,0,1,0,0)"><path stroke-linecap="round" stroke-linejoin="miter" fill-opacity="0" stroke-miterlimit="4" stroke="rgb(253,210,234)" stroke-opacity="0.4" stroke-width="42.072666666667594" d=" M-34.48099899291992,38.689998626708984 C-47.48099899291992,30.243999481201172 -58.00199890136719,23.111000061035156 -67.16899871826172,12.586999893188477 C-102.16400146484375,-27.5939998626709 -51.90299987792969,-64.71499633789062 -22.784000396728516,-44.749000549316406 C-16.104000091552734,-40.16899871826172 -5.815000057220459,-31.190000534057617 2.6389999389648438,-31.39699935913086 C10.220000267028809,-31.58300018310547 21.32200050354004,-43.20500183105469 31.23900032043457,-50.79499816894531 C50.152000427246094,-65.27100372314453 100.68099975585938,-42.768001556396484 77.18099975585938,1.2319999933242798 C62.56800079345703,28.591999053955078 30.618000030517578,67.30500030517578 8.968999862670898,80.85199737548828"></path></g></g><g transform="matrix(1.799133062362671,0,0,1.799133062362671,254.08892822265625,236.63565063476562)" opacity="0.0021930000001423623" style="display: none;"><g opacity="1" transform="matrix(1,0,0,1,0,0)"><path stroke-linecap="round" stroke-linejoin="miter" fill-opacity="0" stroke-miterlimit="4" stroke="rgb(253,210,234)" stroke-opacity="0.4" stroke-width="30" d="M0 0"></path></g><g opacity="1" transform="matrix(1,0,0,1,0,0)"><path stroke-linecap="round" stroke-linejoin="miter" fill-opacity="0" stroke-miterlimit="4" stroke="rgb(253,210,234)" stroke-opacity="0.4" stroke-width="30.028666666668528" d=" M-56.902000427246094,22.674999237060547 C-60.5260009765625,19.597000122070312 -63.93199920654297,16.304000854492188 -67.16899871826172,12.586999893188477 C-102.16400146484375,-27.5939998626709 -51.90299987792969,-64.71499633789062 -22.784000396728516,-44.749000549316406 C-16.104000091552734,-40.16899871826172 -5.815000057220459,-31.190000534057617 2.6389999389648438,-31.39699935913086 C10.220000267028809,-31.58300018310547 21.32200050354004,-43.20500183105469 31.23900032043457,-50.79499816894531 C50.152000427246094,-65.27100372314453 100.68099975585938,-42.768001556396484 77.18099975585938,1.2319999933242798 C62.56800079345703,28.591999053955078 30.618000030517578,67.30500030517578 8.968999862670898,80.85199737548828"></path></g></g></g>
</svg>